<svg aria-hidden="true" style="position: absolute; width: 0; height: 0; overflow: hidden;" version="1.1" xmlns="http://www.w3.org/2000/svg" xmlns:xlink="http://www.w3.org/1999/xlink">
<defs>
<symbol id="icon-icon--ABtest" viewBox="0 0 42 32">
<title>icon--ABtest</title>
<path d="M0 0h42v31.216h-42v-31.216zM1.703 6.243h38.594v-4.54h-38.594v4.54zM1.703 29.514h38.594v-21.568h-38.594v21.568zM36.892 5.108v-1.703h1.703v1.703h-1.703zM6.242 5.108v-1.703h1.703v1.703h-1.702zM3.405 5.108v-1.703h1.703v1.703h-1.703zM14.757 5.108v-1.703h21v1.703h-21zM9.649 5.108v-1.703h1.702v1.703h-1.703zM29.513 21.568h5.675v-5.676h-5.675v5.676zM27.243 23.838v-10.216h10.216v10.216h-10.217zM16.723 28.403l-1.966-1.135 10.5-18.187 1.966 1.135-0.007 0.013-10.493 18.174zM9.931 16.102c-1.608 0.002-2.91 1.304-2.912 2.912v0c0.002 1.607 1.305 2.909 2.912 2.911h0c1.607-0.002 2.909-1.304 2.911-2.911v-0c-0.002-1.607-1.304-2.91-2.911-2.912h-0zM9.931 24.405c-2.976-0.003-5.388-2.415-5.392-5.391v-0c0.003-2.977 2.415-5.389 5.392-5.392h0c2.976 0.004 5.388 2.416 5.391 5.392v0c-0.003 2.976-2.415 5.388-5.391 5.391h-0z"></path>
</symbol>
<symbol id="icon-icon--angular" viewBox="0 0 30 32">
<title>icon--angular</title>
<path d="M14.896 0l14.896 5.312-2.272 19.696-12.624 6.992-12.624-6.992-2.272-19.696 14.896-5.312zM12.176 16.864l2.72-6.544 2.72 6.544h-5.44zM24.192 24.416l-9.296-20.88-9.296 20.88h3.472l1.872-4.672h7.904l1.872 4.672h3.472z"></path>
</symbol>
<symbol id="icon-icon--behance" viewBox="0 0 50 32">
<title>icon--behance</title>
<path d="M20.090 14.094s4.709-0.351 4.709-5.874-3.853-8.22-8.735-8.22h-16.064v30.872h16.064s9.806 0.309 9.806-9.113c-0.001 0 0.428-7.665-5.78-7.665zM7.078 5.487h8.985s2.184 0 2.184 3.211c0 3.213-1.285 3.679-2.741 3.679h-8.429v-6.889h0.001zM15.609 25.384c-0.237 0.006-0.439 0-0.574 0h-7.957v-8.249h8.986s3.256-0.044 3.256 4.237c-0.001 3.612-2.432 3.985-3.711 4.012zM38.95 7.854c12.494 0 10.744 13.4 10.745 13.4h-15.996c0 5.734 5.432 5.372 5.432 5.372 5.131 0 4.951-3.32 4.951-3.32h5.433c0 8.813-10.564 8.21-10.564 8.21-12.676 0-11.861-11.801-11.861-11.801s-0.011-11.861 11.861-11.861zM33.637 17.135h10.14s0.063-4.759-4.708-4.759c-4.769 0-5.433 4.759-5.433 4.759zM32.309 1.818h12.734v3.802h-12.734v-3.802z"></path>
</symbol>
<symbol id="icon-icon--chevron--down" viewBox="0 0 56 32">
<title>icon--chevron--down</title>
<path d="M28 24.632l-22.96-23.739c-0.526-0.551-1.267-0.893-2.087-0.893s-1.561 0.342-2.086 0.892l-0.001 0.001c-0.535 0.56-0.865 1.32-0.865 2.158s0.33 1.598 0.866 2.159l-0.001-0.001 25.048 25.897c0.527 0.551 1.267 0.893 2.088 0.893s1.561-0.342 2.087-0.892l0.001-0.001 25.048-25.897c0.535-0.56 0.864-1.321 0.864-2.158s-0.329-1.598-0.865-2.159l0.001 0.001c-0.526-0.551-1.267-0.894-2.087-0.894s-1.561 0.343-2.086 0.893l-0.001 0.001-22.963 23.739z"></path>
</symbol>
<symbol id="icon-icon--chevron--left" viewBox="0 0 18 32">
<title>icon--chevron--left</title>
<path d="M4.21 16l13.565 13.121c0.315 0.301 0.51 0.724 0.51 1.193s-0.196 0.892-0.509 1.192l-0.001 0.001c-0.32 0.306-0.755 0.494-1.233 0.494s-0.913-0.188-1.234-0.494l0.001 0.001-14.798-14.313c-0.315-0.301-0.511-0.724-0.511-1.193s0.196-0.892 0.51-1.193l0.001-0.001 14.798-14.313c0.32-0.306 0.755-0.494 1.233-0.494s0.913 0.188 1.234 0.494l-0.001-0.001c0.315 0.301 0.51 0.724 0.51 1.193s-0.196 0.892-0.509 1.192l-0.001 0.001-13.565 13.121z"></path>
</symbol>
<symbol id="icon-icon--chevron--right" viewBox="0 0 18 32">
<title>icon--chevron--right</title>
<path d="M14.075 16l-13.565-13.12c-0.315-0.301-0.511-0.724-0.511-1.193s0.196-0.892 0.51-1.193l0.001-0.001c0.32-0.306 0.755-0.494 1.233-0.494s0.913 0.188 1.234 0.495l-0.001-0.001 14.798 14.313c0.315 0.301 0.51 0.724 0.51 1.193s-0.196 0.892-0.51 1.193l-0.001 0.001-14.798 14.313c-0.32 0.306-0.755 0.494-1.233 0.494s-0.913-0.188-1.234-0.494l0.001 0.001c-0.314-0.301-0.51-0.724-0.51-1.192s0.195-0.892 0.509-1.192l0.001-0.001 13.565-13.122z"></path>
</symbol>
<symbol id="icon-icon--chevron--up" viewBox="0 0 56 32">
<title>icon--chevron--up</title>
<path d="M28 7.368l-22.961 23.739c-0.526 0.551-1.266 0.893-2.087 0.893s-1.56-0.342-2.086-0.892l-0.001-0.001c-0.535-0.56-0.865-1.32-0.865-2.158s0.33-1.598 0.866-2.159l-0.001 0.001 25.047-25.897c0.527-0.551 1.267-0.893 2.088-0.893s1.561 0.342 2.087 0.892l0.001 0.001 25.048 25.897c0.535 0.56 0.864 1.321 0.864 2.158s-0.329 1.598-0.865 2.159l0.001-0.001c-0.526 0.551-1.267 0.894-2.087 0.894s-1.561-0.343-2.086-0.893l-0.001-0.001-22.961-23.739z"></path>
</symbol>
<symbol id="icon-icon--CSS3" viewBox="0 0 29 32">
<title>icon--CSS3</title>
<path d="M25.82 28.566l2.517-28.196 0.034-0.37h-28.37l0.033 0.37 2.535 28.435 0.227 0.064 11.283 3.131h0.18l11.541-3.2 0.021-0.235v0.001zM14.208 6.238h8.245l-0.248 2.886-8.134 3.615 0.137 0.651h7.634l-0.879 10.068-6.782 1.88-6.78-1.877-0.43-4.822h2.791l0.224 2.445 0.022 0.237 0.23 0.062 3.885 1.032 0.177-0.002 4.069-1.131 0.020-0.235 0.384-4.515 0.031-0.369h-12.062l-0.254-2.898 8.412-3.602-0.134-0.652h-8.637l-0.246-2.773h8.325z"></path>
</symbol>
<symbol id="icon-icon--CSSdev" viewBox="0 0 42 32">
<title>icon--CSSdev</title>
<path d="M0 0h42v31.216h-42v-31.216zM1.703 6.243h38.594v-4.54h-38.594v4.54zM1.703 29.514h38.594v-21.568h-38.594v21.568zM36.892 5.108v-1.703h1.703v1.703h-1.703zM6.242 5.108v-1.703h1.703v1.703h-1.702zM3.405 5.108v-1.703h1.703v1.703h-1.703zM14.757 5.108v-1.703h21v1.703h-21zM9.649 5.108v-1.703h1.702v1.703h-1.703zM27.010 25.657l-0.012 0.127-0.122 0.034-6.116 1.696h-0.097l-6.222-1.728-0.010-0.127-1.36-15.243-0.017-0.2h15.335l-0.018 0.2-1.36 15.241zM20.733 13.588h-4.5l0.133 1.499h4.67l0.070 0.353-0.3 0.129-4.246 1.817 0.138 1.567h6.52l-0.017 0.199-0.208 2.441-0.011 0.127-0.123 0.034-2.076 0.577-0.096 0.001-2.224-0.591-0.011-0.128-0.121-1.321h-1.51l0.234 2.606 3.664 1.015 3.666-1.017 0.475-5.442h-4.126l-0.074-0.352 4.397-1.954 0.134-1.56h-4.457z"></path>
</symbol>
<symbol id="icon-icon--dev" viewBox="0 0 42 32">
<title>icon--dev</title>
<path d="M0 0h42v31.216h-42v-31.216zM1.703 6.243h38.594v-4.54h-38.594v4.54zM1.703 29.514h38.594v-21.568h-38.594v21.568zM36.892 5.108v-1.703h1.703v1.703h-1.703zM6.242 5.108v-1.703h1.703v1.703h-1.702zM3.405 5.108v-1.703h1.703v1.703h-1.703zM14.757 5.108v-1.703h21v1.703h-21zM9.649 5.108v-1.703h1.702v1.703h-1.703zM12.299 18.468c0.557 0.067 0.949 0.219 1.173 0.456s0.337 0.476 0.337 0.718c0 0.266-0.090 0.593-0.268 0.98s-0.358 0.791-0.537 1.211-0.268 0.814-0.268 1.18c0 0.533 0.262 0.799 0.786 0.799h0.799v1.087h-0.8c-0.806 0-1.362-0.194-1.666-0.581s-0.455-0.805-0.455-1.255c0-0.441 0.089-0.891 0.268-1.349s0.356-0.878 0.53-1.261 0.263-0.691 0.263-0.924c0-0.308-0.156-0.503-0.468-0.587-0.224-0.069-0.483-0.113-0.75-0.124l-0.006-0h-0.237v-0.712h0.237c0.183 0 0.433-0.042 0.749-0.125s0.475-0.275 0.475-0.574c0-0.225-0.087-0.533-0.262-0.924-0.175-0.392-0.352-0.82-0.531-1.286-0.166-0.407-0.264-0.878-0.268-1.372v-0.002c0-0.491 0.158-0.918 0.474-1.28s0.866-0.543 1.648-0.543h0.799v1.086h-0.8c-0.523 0-0.785 0.267-0.785 0.799 0 0.367 0.089 0.764 0.268 1.193s0.358 0.841 0.537 1.236 0.268 0.726 0.268 0.993c0 0.233-0.112 0.47-0.337 0.711-0.224 0.242-0.616 0.392-1.173 0.45zM16.999 20.035v-2.035h1.91v2.035h-1.909zM19.999 20.035v-2.035h1.91v2.035h-1.909zM22.999 20.035v-2.035h1.91v2.035h-1.909zM30.023 18.431c-0.566-0.067-0.96-0.219-1.18-0.456-0.221-0.237-0.331-0.477-0.331-0.718 0-0.267 0.089-0.593 0.268-0.98s0.358-0.791 0.537-1.212c0.179-0.42 0.269-0.813 0.269-1.18 0-0.532-0.262-0.799-0.787-0.799h-0.8v-1.086h0.8c0.816 0 1.374 0.194 1.673 0.581s0.45 0.805 0.45 1.255c0 0.441-0.088 0.89-0.262 1.348-0.175 0.458-0.352 0.878-0.531 1.261s-0.27 0.691-0.27 0.924c0 0.308 0.158 0.504 0.47 0.587s0.564 0.125 0.755 0.125h0.237v0.712h-0.237c-0.191 0-0.443 0.041-0.755 0.125-0.312 0.083-0.47 0.274-0.47 0.574 0 0.225 0.090 0.533 0.27 0.924s0.356 0.82 0.53 1.286c0.175 0.466 0.263 0.924 0.263 1.374 0 0.491-0.158 0.917-0.475 1.279-0.316 0.362-0.865 0.544-1.648 0.544h-0.8v-1.087h0.8c0.525 0 0.787-0.266 0.787-0.799 0-0.366-0.090-0.764-0.27-1.192-0.288-0.712-0.468-1.12-0.654-1.524l0.118 0.287c-0.18-0.395-0.268-0.726-0.268-0.992 0-0.233 0.11-0.471 0.33-0.712s0.615-0.391 1.18-0.449z"></path>
</symbol>
<symbol id="icon-icon--dribble" viewBox="0 0 32 32">
<title>icon--dribble</title>
<path d="M31.635 12.898c-0.448-2.148-1.275-4.047-2.416-5.715l0.035 0.054c-1.156-1.695-2.576-3.115-4.217-4.236l-0.055-0.035c-0.773-0.53-1.656-1.019-2.585-1.421l-0.102-0.039c-1.818-0.786-3.935-1.244-6.159-1.244s-4.341 0.457-6.262 1.283l0.103-0.039c-1.954 0.84-3.623 1.984-5.028 3.39l-0 0c-0.7 0.7-1.335 1.465-1.895 2.286l-0.035 0.055c-1.106 1.614-1.934 3.513-2.364 5.559l-0.018 0.102c-0.205 0.958-0.322 2.058-0.322 3.186s0.117 2.228 0.34 3.29l-0.018-0.104c0.45 2.148 1.277 4.046 2.416 5.715l-0.035-0.055c1.156 1.695 2.576 3.114 4.216 4.235l0.055 0.035c2.478 1.693 5.539 2.703 8.836 2.703 0.004 0 0.009 0 0.013 0h-0.001c0.003 0 0.006 0 0.010 0 2.22 0 4.334-0.458 6.251-1.284l-0.103 0.039c1.953-0.84 3.621-1.983 5.027-3.389l-0 0c2.863-2.853 4.634-6.799 4.634-11.159 0-0.010 0-0.020-0-0.030v0.002c0-0.006 0-0.012 0-0.019 0-1.121-0.117-2.214-0.339-3.268l0.018 0.103zM29.642 15.948c-0.195-0.042-4.767-1.026-9.41-0.443-0.465-1.156-0.865-2.031-1.295-2.888l0.105 0.23c5.336-2.178 7.503-5.31 7.528-5.347 1.89 2.278 3.046 5.225 3.072 8.442l0 0.006zM25.060 5.942c-0.034 0.053-1.958 2.981-7.058 4.893-2.309-4.245-4.847-7.614-5.050-7.882 1.022-0.248 2.086-0.382 3.184-0.382 3.422 0 6.542 1.275 8.923 3.371zM12.9 2.963c0 0.002-0.002 0.003-0.002 0.003l-0.040 0.009c0.013-0.004 0.028-0.007 0.042-0.011zM10.371 3.862c0.18 0.242 2.679 3.629 5.018 7.785-6.488 1.723-12.118 1.656-12.475 1.65 0.878-4.185 3.69-7.656 7.458-9.435zM2.626 16.082c0-0.144 0.006-0.285 0.011-0.427 0.238 0.005 6.914 0.157 13.87-1.925 0.387 0.757 0.758 1.528 1.097 2.296-0.179 0.050-0.357 0.104-0.533 0.162-7.291 2.357-10.99 8.918-10.99 8.918s0.005 0.004 0.005 0.006c-2.147-2.376-3.461-5.541-3.461-9.013 0-0.006 0-0.012 0-0.018v0.001zM16.136 29.594c-0.006 0-0.013 0-0.020 0-3.274 0-6.275-1.169-8.608-3.113l0.022 0.018c0.178 0.144 0.303 0.235 0.303 0.235s2.59-5.648 10.602-8.44c0.030-0.012 0.060-0.020 0.091-0.029 1.901 4.94 2.686 9.077 2.886 10.258-1.55 0.677-3.357 1.070-5.256 1.070-0.007 0-0.014 0-0.021-0h0.001zM23.686 27.29c-0.137-0.816-0.857-4.782-2.629-9.652 4.361-0.697 8.141 0.499 8.42 0.59-0.627 3.792-2.756 6.995-5.744 9.031l-0.047 0.030z"></path>
</symbol>
<symbol id="icon-icon--ecomm" viewBox="0 0 32 32">
<title>icon--ecomm</title>
<path d="M16.669 2.419l-14.25 14.25c-0.223 0.223-0.361 0.531-0.361 0.871s0.138 0.648 0.361 0.871l10.445 10.445c0.48 0.48 1.26 0.48 1.74 0l14.294-14.294c0.252-0.252 0.382-0.6 0.358-0.956l-0.649-9.308c-0.043-0.595-0.503-1.070-1.086-1.137l-0.006-0.001-9.84-1.093c-0.041-0.005-0.087-0.007-0.135-0.007-0.34 0-0.648 0.138-0.871 0.36v0zM27.482 1.088c1.724 0.197 3.068 1.587 3.193 3.316l0.001 0.012 0.633 9.074c0.006 0.075 0.009 0.163 0.009 0.251 0 0.994-0.403 1.894-1.054 2.545l-13.934 13.934c-0.651 0.652-1.551 1.055-2.546 1.055s-1.894-0.403-2.546-1.055l-10.182-10.182c-0.651-0.651-1.054-1.551-1.054-2.546s0.403-1.894 1.054-2.546l13.892-13.892c0.651-0.651 1.551-1.054 2.545-1.054 0.14 0 0.279 0.008 0.415 0.024l-0.017-0.002 9.592 1.066zM21.755 10.085c-0.594-0.582-0.963-1.392-0.963-2.288 0-1.767 1.433-3.2 3.2-3.2 0.896 0 1.706 0.368 2.287 0.962l0.001 0.001c0.564 0.576 0.912 1.366 0.912 2.237 0 1.767-1.433 3.2-3.2 3.2-0.871 0-1.661-0.348-2.238-0.912l0.001 0.001zM22.886 8.954c0.29 0.29 0.69 0.469 1.132 0.469 0.884 0 1.601-0.717 1.601-1.601 0-0.442-0.179-0.842-0.469-1.132v0c-0.29-0.29-0.69-0.469-1.132-0.469-0.884 0-1.601 0.717-1.601 1.601 0 0.442 0.179 0.842 0.469 1.132v0zM16.37 22.128c-0.814 0.814-1.728 1.183-2.742 1.109s-1.986-0.507-2.914-1.298l-0.997 0.998-0.826-0.826 0.998-0.997c-0.608-0.677-1.086-1.362-1.436-2.056s-0.57-1.291-0.662-1.796l2.338-1.72 1.186 1.359-1.324 1.083c0.267 0.736 0.647 1.37 1.124 1.916l-0.006-0.007 3.026-3.026c-0.506-0.745-0.954-1.598-1.302-2.501l-0.030-0.087c-0.338-0.899-0.054-1.802 0.851-2.708 0.859-0.859 1.782-1.192 2.768-0.997s1.874 0.642 2.665 1.341l1.118-1.118 0.826 0.826-1.118 1.118c0.493 0.584 0.871 1.158 1.134 1.719s0.447 1.088 0.55 1.582l-1.891 2.2-1.375-1.168 1.186-1.565c-0.161-0.604-0.44-1.128-0.814-1.571l0.005 0.006-2.596 2.597c0.286 0.446 0.579 0.98 0.877 1.598s0.436 1.272 0.413 1.96-0.367 1.365-1.032 2.030zM15.424 12.998c-0.378 0.378-0.536 0.782-0.473 1.212s0.232 0.874 0.507 1.333l2.442-2.442c-0.974-0.745-1.799-0.779-2.476-0.104zM14.616 20.683c0.424-0.424 0.616-0.874 0.576-1.35s-0.186-0.954-0.438-1.435l-2.82 2.819c1.009 0.757 1.903 0.746 2.682-0.034z"></path>
</symbol>
<symbol id="icon-icon--envelope" viewBox="0 0 52 32">
<title>icon--envelope</title>
<path d="M7.385 3.692l19.077 13.595 17.846-13.595h-36.923zM28.204 21.023c-0.962 0.688-2.523 0.688-3.486 0l-21.026-15.28v20.549c0 1.952 0.074 2.016 2.027 2.016h40.383c1.954 0 1.899-0.064 1.899-2.016l-0.005-19.733-19.791 14.464zM3.231 0h45.231c2.23 0 3.231 1.001 3.231 3.231v25.538c0 2.23-1.001 3.231-3.231 3.231h-45.231c-2.23 0-3.231-1.001-3.231-3.231v-25.538c0-2.23 1.001-3.231 3.231-3.231z"></path>
</symbol>
<symbol id="icon-icon--facebook" viewBox="0 0 32 32">
<title>icon--facebook</title>
<path d="M30.234 0h-28.468c-0.975 0-1.766 0.791-1.766 1.766v0 28.468c0 0.974 0.791 1.766 1.766 1.766h15.337v-12.376h-4.165v-4.844h4.165v-3.564c0-4.133 2.526-6.384 6.213-6.384 0.022-0 0.049-0 0.076-0 1.283 0 2.55 0.068 3.797 0.201l-0.155-0.013v4.32h-2.537c-2.008 0-2.4 0.949-2.4 2.349v3.085h4.8l-0.624 4.844h-4.204v12.381h8.165c0.975 0 1.766-0.791 1.766-1.766v0-28.468c0-0.975-0.791-1.766-1.766-1.766v0z"></path>
</symbol>
<symbol id="icon-icon--github" viewBox="0 0 38 32">
<title>icon--github</title>
<path d="M38.244 15.365c0.007 0.001 0.015 0.002 0.023 0.002 0.065 0 0.119-0.046 0.131-0.107l0-0.001c0.001-0.007 0.002-0.015 0.002-0.023 0-0.065-0.046-0.119-0.107-0.132l-0.001-0c-1.806-0.333-3.127-0.7-7.584-0.664 0.278-1.028 0.428-2.243 0.458-3.682-0.007-3.903-1.875-5.285-2.235-5.932 0.529-2.955-0.088-4.3-0.375-4.762-1.058-0.377-3.683 0.969-5.115 1.916-2.338-0.683-7.277-0.617-9.129 0.176-3.418-2.448-5.226-2.073-5.226-2.073s-1.169 2.095-0.309 5.16c-1.125 1.434-1.963 2.448-1.963 5.136 0 1.514 0.178 2.87 0.581 4.053-1.788-0.004-5.538 0.237-7.294 0.671-0.058 0.015-0.1 0.067-0.1 0.129 0 0.011 0.001 0.021 0.004 0.032l-0-0.001c0.015 0.058 0.067 0.101 0.129 0.101 0.011 0 0.022-0.001 0.032-0.004l-0.001 0c1.772-0.438 5.647-0.677 7.325-0.662 0.097 0.255 0.204 0.502 0.323 0.741-4.317 0.115-5.481 0.731-7.294 1.184-0.131 0.034-0.26 0.065-0.385 0.096-0.058 0.015-0.101 0.067-0.101 0.129 0 0.011 0.001 0.022 0.004 0.032l-0-0.001c0.015 0.058 0.067 0.1 0.129 0.1 0.011 0 0.021-0.001 0.032-0.004l-0.001 0 0.387-0.097c1.818-0.454 2.998-1.074 7.367-1.179 1.285 2.332 3.761 3.783 7.939 4.184-0.597 0.453-1.313 1.312-1.412 2.305-0.75 0.485-2.257 0.645-3.43 0.275-1.642-0.518-2.271-3.77-4.731-3.307-0.533 0.101-0.427 0.452 0.034 0.75 0.75 0.485 1.456 1.092 2 2.384 0.418 0.993 1.296 2.766 4.075 2.766 1.103 0 1.875-0.133 1.875-0.133s0.021 2.533 0.021 3.517c0 1.135-1.531 1.456-1.531 2.001 0 0.216 0.506 0.236 0.914 0.236 0.806 0 2.481-0.672 2.481-1.852 0-0.937 0.015-4.090 0.015-4.641 0-1.206 0.647-1.588 0.647-1.588s0.080 6.437-0.154 7.299c-0.275 1.015-0.772 0.871-0.772 1.324 0 0.673 2.017 0.165 2.685-1.313 0.517-1.15 0.292-7.464 0.292-7.464l0.55-0.011s0.031 2.89 0.013 4.211c-0.019 1.369-0.112 3.099 0.7 3.915 0.534 0.537 2.264 1.477 2.264 0.617 0-0.5-0.948-0.911-0.948-2.264v-6.225c0.757 0 0.644 2.047 0.644 2.047l0.055 3.803s-0.166 1.385 1.498 1.966c0.588 0.206 1.846 0.262 1.904-0.083 0.059-0.346-1.514-0.86-1.529-1.934-0.008-0.655 0.029-1.037 0.029-3.881s-0.381-3.896-1.712-4.734c4.108-0.422 6.65-1.438 7.888-4.161 1.424 0.048 4.405 0.193 7.87 1.252 0.012 0.004 0.025 0.006 0.039 0.006 0.059 0 0.109-0.039 0.126-0.092l0-0.001c0.004-0.012 0.006-0.025 0.006-0.039 0-0.059-0.039-0.109-0.093-0.126l-0.001-0c-3.418-1.046-6.308-1.209-7.834-1.26 0.096-0.237 0.185-0.485 0.262-0.744 4.483-0.042 5.808 0.325 7.611 0.658zM7.123 19.692c-0.165 0-0.298-0.089-0.298-0.198s0.133-0.198 0.298-0.198 0.298 0.089 0.298 0.198-0.133 0.198-0.298 0.198zM7.751 19.997c0-0.11 0.133-0.198 0.298-0.198s0.298 0.089 0.298 0.198-0.133 0.198-0.298 0.198-0.298-0.089-0.298-0.198zM8.318 20.67c0-0.11 0.133-0.198 0.297-0.198s0.298 0.089 0.298 0.198-0.133 0.198-0.298 0.198c-0.165 0-0.298-0.089-0.298-0.198zM9.112 21.629c-0.165 0-0.298-0.089-0.298-0.198s0.133-0.198 0.298-0.198c0.165 0 0.297 0.089 0.297 0.198s-0.133 0.198-0.297 0.198zM9.679 22.346c-0.165 0-0.299-0.090-0.299-0.198s0.133-0.198 0.298-0.198 0.297 0.089 0.297 0.198c0 0.109-0.133 0.198-0.297 0.198zM10.442 22.956c-0.165 0-0.298-0.089-0.298-0.198s0.133-0.198 0.298-0.198c0.165 0 0.297 0.089 0.297 0.198s-0.133 0.198-0.297 0.198zM11.512 23.353c-0.165 0-0.298-0.089-0.298-0.198s0.133-0.198 0.297-0.198c0.165 0 0.298 0.089 0.298 0.198s-0.133 0.198-0.298 0.198zM12.584 23.353c-0.165 0-0.298-0.089-0.298-0.198s0.133-0.198 0.298-0.198 0.298 0.089 0.298 0.198-0.133 0.198-0.298 0.198zM13.661 23.184c-0.165 0-0.298-0.089-0.298-0.198s0.133-0.198 0.298-0.198 0.298 0.089 0.298 0.198-0.133 0.198-0.298 0.198zM22.093 18.959c-0.804 0.029-1.749 0.045-2.698 0.045-0.958 0-1.913-0.017-2.863-0.050l0.138 0.004c-4.513-0.158-6.998-2.063-6.998-5.362 0-0.343 0.073-1.548 1.006-2.667 0.908-1.088 2.299-1.663 4.021-1.663 0.119 0 0.329 0.013 0.754 0.039 0.914 0.057 2.443 0.152 3.959 0.152 1.37 0 2.757-0.101 3.502-0.155 0.349-0.026 0.489-0.036 0.58-0.036 3.666 0 4.972 2.342 4.972 4.534 0 2.258-1.105 4.987-6.372 5.159zM6.226 21.813c0.71 0 0.012-1.102 0-1.617-0.003 0.502-0.71 1.617 0 1.617zM20.059 17.072c0 0 0 0 0 0-0.073 0-0.132 0.059-0.132 0.132 0 0 0 0.001 0 0.001v-0c0 0.292-0.343 0.617-0.802 0.617-0.066 0-0.13-0.007-0.19-0.020-0.152-0.035-0.285-0.098-0.399-0.185l0.003 0.002c-0.022-0.016-0.043-0.033-0.063-0.049-0.056-0.047-0.105-0.098-0.149-0.153l-0.002-0.002c-0.066-0.085-0.103-0.163-0.103-0.209 0-0.073-0.059-0.132-0.132-0.132s-0.132 0.059-0.132 0.132v0c0 0.038 0.007 0.080 0.023 0.124 0.029 0.082 0.067 0.152 0.114 0.216l-0.002-0.002c0.123 0.166 0.278 0.301 0.456 0.397l0.007 0.004c0.165 0.088 0.361 0.141 0.569 0.144h0.001c0.002 0 0.005 0 0.008 0 0.292 0 0.559-0.108 0.763-0.286l-0.001 0.001c0.047-0.042 0.089-0.088 0.125-0.135 0.101-0.126 0.165-0.286 0.172-0.461l0-0.002c0-0.073-0.059-0.133-0.133-0.133v0zM18.734 16.364c0.069 0.104 0.179 0.176 0.306 0.195l0.002 0c0.021 0.003 0.045 0.005 0.070 0.005 0.134 0 0.254-0.058 0.337-0.149l0-0c0.033-0.037 0.060-0.080 0.078-0.127l0.001-0.003c0.024-0.052 0.038-0.112 0.039-0.176v-0c-0.003-0.25-0.206-0.453-0.457-0.453-0.125 0-0.238 0.050-0.32 0.131l0-0c-0.005 0.003-0.007 0.007-0.011 0.011-0.054 0.060-0.094 0.134-0.114 0.216l-0.001 0.003c-0.006 0.028-0.010 0.059-0.010 0.092s0.004 0.064 0.010 0.095l-0.001-0.003c0.013 0.062 0.037 0.116 0.070 0.164l-0.001-0.002zM15.36 11.584c-0.091-0.112-0.19-0.211-0.298-0.3l-0.004-0.003c-0.108-0.087-0.221-0.158-0.338-0.213-0.165-0.079-0.358-0.126-0.563-0.127h-0c-1.042 0-1.889 1.261-1.889 2.816s0.846 2.639 1.889 2.639c0.339-0 0.652-0.113 0.904-0.302l-0.004 0.003c0.107-0.078 0.208-0.168 0.302-0.272s0.179-0.22 0.256-0.348c0.27-0.449 0.432-1.040 0.432-1.719s-0.162-1.305-0.432-1.791c-0.081-0.145-0.165-0.27-0.26-0.387l0.004 0.005zM24.367 10.941c-1.042 0-1.889 1.261-1.889 2.815s0.846 2.64 1.889 2.64c1.044 0 1.89-1.084 1.89-2.64s-0.846-2.815-1.89-2.815z"></path>
</symbol>
<symbol id="icon-icon--googleplus" viewBox="0 0 50 32">
<title>icon--googleplus</title>
<path d="M15.81 13.548c5.035-0.015 10.069-0.024 15.112 0.014 0.301 4.228-0.257 8.727-2.854 12.222-3.932 5.532-11.828 7.148-17.988 4.777-6.182-2.355-10.56-8.884-10.039-15.541 0.135-8.146 7.622-15.278 15.768-15.007 3.903-0.181 7.571 1.517 10.56 3.903-1.295 1.483-2.604 2.837-3.977 4.123l-0.031 0.029c-3.591-2.484-8.703-3.193-12.296-0.325-5.14 3.556-5.374 11.949-0.429 15.776 4.807 4.363 13.897 2.196 15.225-4.484-3.012-0.046-6.030 0-9.043-0.098-0.007-1.797-0.014-3.593-0.007-5.389zM45.263 13.524c1.503 0.015 3.013 0.015 4.514 0.031v4.491c-1.502 0.015-3.004 0.024-4.514 0.038-0.011 1.125-0.022 2.71-0.029 4.296l-0.001 0.219h-4.499c-0.015-1.503-0.015-3.004-0.030-4.506l-4.514-0.046v-4.491c1.502-0.015 3.004-0.023 4.514-0.031 0.007-1.509 0.023-3.012 0.037-4.513h4.492c0.007 1.502 0.015 3.012 0.030 4.513z"></path>
</symbol>
<symbol id="icon-icon--HTML5" viewBox="0 0 29 32">
<title>icon--HTML5</title>
<path d="M25.858 28.674l-11.654 3.326-11.644-3.326-2.56-28.674h28.416l-2.558 28.674zM9.611 12.963l-0.358-4.032h13.844l0.103-0.093 0.276-3.061-0.102-0.111h-17.605l-0.102 0.112 0.932 10.35 0.102 0.093h12.536l-0.455 4.992-4.196 0.889-4.229-0.887-0.196-1.844-3.294 0.018 0.409 4.268 0.073 0.089 7.186 2.16 7.258-2.16 0.073-0.088 0.954-10.583-0.102-0.111h-13.106z"></path>
</symbol>
<symbol id="icon-icon--IA" viewBox="0 0 34 32">
<title>icon--IA</title>
<path d="M14.227 1.346c-1.014 0-1.837 0.752-1.837 1.682 0 0.928 0.822 1.682 1.837 1.682h5.146c1.014 0 1.837-0.753 1.837-1.682s-0.822-1.682-1.837-1.682h-5.146zM22.68 13.038l-5.040 5.19v1.664h11.76v5.19h4.2v6.919h-10.080v-6.92h4.2v-3.458h-10.080v3.459h4.2v6.919h-10.080v-6.92h4.2v-3.458h-10.080v3.459h4.2v6.919h-10.080v-6.92h4.2v-5.188h11.76v-1.665l-5.040-5.19 5.036-5.19 0.004-1.794h-1.733c-1.826 0-3.307-1.355-3.307-3.026s1.481-3.027 3.307-3.027h5.146c1.826 0 3.307 1.355 3.307 3.027s-1.481 3.026-3.307 3.026h-1.733v1.795l5.040 5.189zM15.96 7.847v0zM16.8 8.846l-4.070 4.191 4.070 4.191 4.070-4.192-4.070-4.19zM13.31 26.638v3.806h6.979v-3.806h-6.979zM25.070 26.638v3.806h6.979v-3.806h-6.979zM1.55 26.638v3.806h6.979v-3.806h-6.979z"></path>
</symbol>
<symbol id="icon-icon--instagram" viewBox="0 0 32 32">
<title>icon--instagram</title>
<path d="M16 7.677c4.516 0 8.258 3.741 8.258 8.258s-3.677 8.259-8.258 8.259-8.258-3.677-8.258-8.259c0-4.58 3.741-8.258 8.258-8.258zM29.419 2.645c1.677 1.677 2.581 4 2.581 6.711v13.29c0 2.774-0.904 5.161-2.645 6.839-1.677 1.612-4 2.515-6.774 2.515h-13.162c-2.645 0-4.968-0.839-6.709-2.516-1.806-1.741-2.71-4.129-2.71-6.903v-13.226c0-5.613 3.742-9.355 9.355-9.355h13.29c2.71 0 5.097 0.904 6.774 2.645zM16 21.226c2.904 0 5.29-2.387 5.29-5.291s-2.387-5.29-5.29-5.29-5.29 2.387-5.29 5.29c0 2.904 2.387 5.291 5.29 5.291zM24.581 9.356c-0.012 0-0.026 0-0.040 0-1.033 0-1.871-0.838-1.871-1.871s0.838-1.871 1.871-1.871c0.014 0 0.028 0 0.042 0l-0.002-0c1.016 0.022 1.831 0.851 1.831 1.871s-0.815 1.848-1.829 1.871l-0.002 0zM29.032 22.646h0.129v-13.29c0-1.871-0.645-3.484-1.742-4.645-1.161-1.162-2.774-1.742-4.709-1.742h-13.291c-1.935 0-3.613 0.581-4.709 1.677-1.162 1.162-1.742 2.774-1.742 4.71v13.226c0 2 0.581 3.613 1.742 4.775 1.161 1.096 2.774 1.677 4.709 1.677h13.162c1.935 0 3.548-0.581 4.709-1.677s1.742-2.71 1.742-4.71z"></path>
</symbol>
<symbol id="icon-icon--linkedin" viewBox="0 0 32 32">
<title>icon--linkedin</title>
<path d="M27.268 27.268h-4.741v-7.426c0-1.772-0.035-4.050-2.467-4.050-2.47 0-2.846 1.929-2.846 3.922v7.554h-4.745v-15.271h4.554v2.087h0.064c0.634-1.201 2.183-2.467 4.492-2.467 4.803 0 5.69 3.162 5.69 7.275v8.376zM4.744 27.268v-15.271h4.748v15.271h-4.748zM7.118 9.91c-0 0-0.001 0-0.001 0-1.519 0-2.751-1.232-2.751-2.751 0-0.001 0-0.001 0-0.002v0c0.001-1.519 1.232-2.749 2.751-2.749s2.751 1.232 2.751 2.751-1.232 2.751-2.751 2.751v0zM29.632 0h-27.271c-1.303 0-2.361 1.033-2.361 2.306v27.387c0 1.274 1.059 2.309 2.362 2.309h27.27c1.305 0 2.371-1.035 2.371-2.309v-27.385c0-1.275-1.066-2.307-2.371-2.307z"></path>
</symbol>
<symbol id="icon-icon--medium" viewBox="0 0 40 32">
<title>icon--medium</title>
<path d="M4.687 6.402c0.005-0.046 0.008-0.1 0.008-0.155 0-0.45-0.195-0.855-0.504-1.136l-0.001-0.001-3.691-4.446v-0.664h11.461l8.858 19.427 7.787-19.427h10.925v0.664l-3.156 3.025c-0.221 0.17-0.363 0.435-0.363 0.733 0 0.054 0.005 0.106 0.013 0.157l-0.001-0.005v22.232c-0.008 0.046-0.013 0.099-0.013 0.153 0 0.298 0.141 0.563 0.361 0.731l0.002 0.002 3.082 3.026v0.664h-15.501v-0.664l3.192-3.099c0.313-0.314 0.313-0.407 0.313-0.885v-17.971l-8.875 22.545h-1.201l-10.333-22.544v15.11c-0.012 0.084-0.019 0.182-0.019 0.281 0 0.566 0.225 1.078 0.591 1.454l-0-0 4.152 5.036v0.664h-11.774v-0.664l4.152-5.035c0.349-0.361 0.564-0.854 0.564-1.397 0-0.12-0.010-0.237-0.030-0.351l0.002 0.012v-17.471z"></path>
</symbol>
<symbol id="icon-icon--prototyping" viewBox="0 0 42 32">
<title>icon--prototyping</title>
<path d="M0 0h42v31.216h-42v-31.216zM9.649 5.108v-1.703h1.702v1.703h-1.702zM36.892 5.108v-1.703h1.703v1.703h-1.703zM14.757 5.108v-1.703h21v1.703h-21zM3.405 5.108v-1.703h1.702v1.703h-1.702zM6.242 5.108v-1.703h1.703v1.703h-1.703zM1.702 6.243h38.594v-4.54h-38.594v4.54zM1.702 29.515h38.594v-21.569h-38.594v21.569zM25.047 11.897c-0.386-0.184-0.648-0.57-0.65-1.018v-0c0-0.619 0.504-1.122 1.123-1.122h3.929c0.619 0.002 1.12 0.504 1.12 1.123 0 0.447-0.262 0.834-0.64 1.014l-0.007 0.003v14.185c0 1.345-1.094 2.438-2.438 2.438s-2.437-1.093-2.437-2.438v-14.185zM25.52 10.601c-0.147 0.009-0.262 0.13-0.262 0.278s0.116 0.269 0.262 0.278l0.001 0h3.929c0.147-0.009 0.262-0.13 0.262-0.278s-0.116-0.269-0.262-0.278l-0.001-0h-3.93zM25.749 14.936l0.185-0.058c0.54-0.171 1.264-0.19 1.55-0.19s1.010 0.019 1.55 0.19l0.186 0.058v-3.217h-3.471v3.217zM28.882 15.541l0.469-0.136-0.47-0.137c-0.207-0.060-0.665-0.161-1.397-0.161s-1.19 0.101-1.397 0.161l-0.47 0.137 0.47 0.136c0.208 0.061 0.666 0.162 1.397 0.162 0.732 0 1.19-0.101 1.398-0.162zM27.584 18.298c-0.11-0.008-0.196-0.099-0.196-0.209s0.086-0.202 0.195-0.209l0.001-0h1.636v-2.005l-0.185 0.058c-0.541 0.171-1.264 0.19-1.551 0.19s-1.010-0.019-1.55-0.19l-0.185-0.058v10.208c0 0.957 0.779 1.735 1.735 1.735 0.957 0 1.736-0.778 1.736-1.735v-1.493h-1.636c-0.116 0-0.21-0.094-0.21-0.21v0c0-0.116 0.095-0.209 0.21-0.209h1.636v-0.63h-0.645c-0.004 0-0.009 0-0.014 0-0.116 0-0.21-0.094-0.21-0.21s0.094-0.21 0.21-0.21c0.005 0 0.010 0 0.015 0.001l-0.001-0h0.645v-0.63h-1.636c-0.115 0-0.21-0.094-0.21-0.209s0.095-0.209 0.21-0.209h1.636v-0.629h-0.645c-0.116 0-0.21-0.094-0.21-0.21s0.094-0.21 0.21-0.21h0.645v-0.629h-1.636c-0.11-0.008-0.196-0.099-0.196-0.209s0.086-0.202 0.195-0.209l0.001-0h1.636v-0.63h-0.645c-0.006 0.001-0.013 0.001-0.020 0.001-0.116 0-0.21-0.094-0.21-0.21s0.094-0.21 0.21-0.21c0.007 0 0.014 0 0.021 0.001l-0.001-0h0.645v-0.63h-1.636zM17.61 28.52c-3.414-0.004-6.18-2.77-6.185-6.184v-0c0.006-2.61 1.621-4.84 3.906-5.752l0.042-0.015v-5.624c-0.349-0.179-0.585-0.535-0.587-0.947v-0c0.001-0.585 0.474-1.058 1.059-1.059h3.529c0.585 0.001 1.058 0.474 1.059 1.059v0c0 0.4-0.232 0.769-0.586 0.947v5.624c2.326 0.927 3.942 3.158 3.947 5.766v0.001c-0.003 3.414-2.77 6.181-6.184 6.184h-0zM12.287 21.904c-0.011 0.128-0.017 0.276-0.017 0.426 0 2.95 2.39 5.343 5.34 5.346h0c2.95-0.004 5.339-2.396 5.339-5.346 0-0.15-0.006-0.298-0.018-0.445l0.001 0.019c-0.31 0.121-0.745 0.221-1.33 0.309-1.068 0.161-2.486 0.249-3.992 0.249s-2.924-0.088-3.994-0.249c-0.584-0.088-1.020-0.188-1.33-0.309zM17.66 27.041c-0.003 0-0.007 0-0.011 0-0.194 0-0.351-0.157-0.351-0.351 0-0.185 0.144-0.337 0.326-0.35l0.001-0c0.898-0.094 1.702-0.435 2.36-0.954l-0.010 0.007c0.059-0.047 0.135-0.075 0.217-0.075 0.194 0 0.351 0.157 0.351 0.351 0 0.112-0.052 0.211-0.133 0.275l-0.001 0.001c-0.748 0.592-1.676 0.987-2.69 1.092l-0.023 0.002c-0.012 0.002-0.024 0.002-0.036 0.002zM20.867 25.381c-0.194-0.001-0.351-0.158-0.351-0.352 0-0.088 0.032-0.169 0.086-0.23l-0 0c0.162-0.185 0.308-0.382 0.436-0.587 0.063-0.1 0.173-0.165 0.298-0.165 0.194 0 0.352 0.157 0.352 0.352 0 0.069-0.020 0.134-0.054 0.188l0.001-0.001c-0.161 0.255-0.327 0.475-0.508 0.682l0.005-0.006c-0.064 0.074-0.157 0.12-0.262 0.12-0.001 0-0.001 0-0.002 0h0zM17.61 20.785c-2.721 0-4.398 0.273-5.016 0.488 0.618 0.214 2.296 0.487 5.016 0.487s4.398-0.273 5.016-0.487c-0.618-0.215-2.296-0.488-5.016-0.488zM16.017 17.387c-1.464 0.474-2.619 1.544-3.195 2.916l-0.013 0.034c0.223-0.052 0.483-0.1 0.786-0.145 1.076-0.162 2.502-0.251 4.014-0.251s2.939 0.089 4.015 0.251c0.303 0.045 0.563 0.093 0.787 0.145-0.59-1.407-1.745-2.477-3.174-2.94l-0.036-0.010c-0.2-0.066-0.341-0.25-0.341-0.468 0-0 0-0.001 0-0.001v0-5.861h-2.5v5.861c0 0 0 0 0 0 0 0.218-0.142 0.403-0.339 0.468l-0.003 0.001zM19.731 9.998c-0.001-0.197-0.16-0.356-0.357-0.356 0 0 0 0 0 0h-3.53c-0 0-0 0-0 0-0.098 0-0.187 0.040-0.251 0.105l-0 0c-0.063 0.064-0.102 0.153-0.102 0.25 0 0.196 0.158 0.355 0.354 0.357h3.529c0.197 0 0.357-0.16 0.357-0.356zM28.108 27.244c-0.096-0.001-0.182-0.042-0.241-0.109l-0-0c-0.052-0.056-0.084-0.132-0.084-0.216 0-0.006 0-0.011 0-0.017l-0 0.001c0.006-0.075 0.041-0.14 0.094-0.186l0-0c0.242-0.2 0.407-0.476 0.478-0.795 0.016-0.076 0.064-0.138 0.129-0.173l0.001-0.001c0.039-0.021 0.086-0.033 0.135-0.033 0.038 0 0.075 0.007 0.109 0.021l-0.002-0.001c0.126 0.049 0.214 0.169 0.214 0.31 0 0.018-0.002 0.037-0.004 0.054l0-0.002c-0.001 0.007-0.004 0.012-0.006 0.019-0.098 0.431-0.328 0.798-0.645 1.066l-0.003 0.002-0.026 0.018c-0.041 0.026-0.091 0.042-0.144 0.042-0.002 0-0.004-0-0.006-0h0z"></path>
</symbol>
<symbol id="icon-icon--research" viewBox="0 0 41 32">
<title>icon--research</title>
<path d="M40.401 28.449l-2.742 2.742-5.009-5.009h-32.649v-26.182h35.226v23.274l5.174 5.175zM26.379 24.753h4.843l-0.42-0.42 0.686-0.686-0.723-0.723c-1.208 0.968-2.705 1.625-4.343 1.825l-0.042 0.004zM1.428 6.664v18.090h22.739c-0.611-0.080-1.161-0.21-1.688-0.39l0.061 0.018c-2.127-0.725-3.842-2.188-4.875-4.078l-0.023-0.045c-0.129-0.234-0.265-0.522-0.384-0.818l-0.020-0.057c-0.071 0.052-0.159 0.083-0.254 0.086l-0.001 0h-4.175c-0.251-0.012-0.451-0.218-0.451-0.472s0.199-0.46 0.45-0.472l0.001-0h4.142c-0.022-0.079-0.055-0.157-0.076-0.238-0.099-0.362-0.181-0.798-0.23-1.243l-0.004-0.039h-1.176c-0.251-0.012-0.451-0.218-0.451-0.472s0.199-0.46 0.45-0.472l0.001-0h1.142c0.004-0.446 0.032-0.891 0.103-1.333h-3.901c-0.251-0.012-0.451-0.218-0.451-0.472s0.199-0.46 0.45-0.472l0.001-0h4.108c0.049-0.177 0.099-0.355 0.16-0.529 0.45-1.301 1.158-2.412 2.068-3.321l0-0 0.047-0.043c3.411-3.363 8.902-3.35 12.295 0.043 1.104 1.102 1.912 2.498 2.298 4.062l0.012 0.060v-7.392h-32.369zM16.983 11.321c0.251 0.012 0.451 0.218 0.451 0.472s-0.199 0.46-0.45 0.472l-0.001 0h-1.518c-0.245-0.020-0.436-0.223-0.436-0.472s0.191-0.452 0.434-0.472l0.002-0h1.518zM7.784 16.533c0-0.26 0.211-0.471 0.471-0.471h5.692c0.247 0.016 0.442 0.221 0.442 0.471s-0.195 0.455-0.441 0.471l-0.001 0h-5.692c-0.26-0.001-0.471-0.211-0.471-0.471v-0zM13.947 11.321c0.251 0.012 0.451 0.218 0.451 0.472s-0.199 0.46-0.45 0.472l-0.001 0h-5.692c-0.251-0.012-0.451-0.218-0.451-0.472s0.199-0.46 0.45-0.472l0.001-0h5.692zM13.947 20.803c0.251 0.012 0.451 0.218 0.451 0.472s-0.199 0.46-0.45 0.472l-0.001 0h-5.692c-0.251-0.012-0.451-0.218-0.451-0.472s0.199-0.46 0.45-0.472l0.001-0h5.692zM16.983 20.803c0.251 0.012 0.451 0.218 0.451 0.472s-0.199 0.46-0.45 0.472l-0.001 0h-1.518c-0.251-0.012-0.451-0.218-0.451-0.472s0.199-0.46 0.45-0.472l0.001-0h1.518zM6.738 20.803c0.251 0.012 0.451 0.218 0.451 0.472s-0.199 0.46-0.45 0.472l-0.001 0h-3.035c-0.251-0.012-0.451-0.218-0.451-0.472s0.199-0.46 0.45-0.472l0.001-0h3.035zM12.809 9.988c-0.251-0.012-0.451-0.218-0.451-0.472s0.199-0.46 0.45-0.472l0.001-0h4.174c0.251 0.012 0.451 0.218 0.451 0.472s-0.199 0.46-0.45 0.472l-0.001 0h-4.173zM3.703 9.988c-0.251-0.012-0.451-0.218-0.451-0.472s0.199-0.46 0.45-0.472l0.001-0h7.588c0.251 0.012 0.451 0.218 0.451 0.472s-0.199 0.46-0.45 0.472l-0.001 0h-7.587zM3.703 19.47c-0.251-0.012-0.451-0.218-0.451-0.472s0.199-0.46 0.45-0.472l0.001-0h7.588c0.251 0.012 0.451 0.218 0.451 0.472s-0.199 0.46-0.45 0.472l-0.001 0h-7.587zM3.703 12.265c-0.251-0.012-0.451-0.218-0.451-0.472s0.199-0.46 0.45-0.472l0.001-0h3.035c0.251 0.012 0.451 0.218 0.451 0.472s-0.199 0.46-0.45 0.472l-0.001 0h-3.035zM3.703 17.006c-0.251-0.012-0.451-0.218-0.451-0.472s0.199-0.46 0.45-0.472l0.001-0h3.035c0.251 0.012 0.451 0.218 0.451 0.472s-0.199 0.46-0.45 0.472l-0.001 0h-3.035zM3.703 14.729c-0.251-0.012-0.451-0.218-0.451-0.472s0.199-0.46 0.45-0.472l0.001-0h7.588c0.251 0.012 0.451 0.218 0.451 0.472s-0.199 0.46-0.45 0.472l-0.001 0h-7.587zM1.428 5.235h32.37v-3.808h-32.37v3.808zM30.942 4.284v-1.428h1.428v1.428h-1.427zM12.377 4.284v-1.428h17.614v1.428h-17.614zM5.236 4.284v-1.428h1.428v1.428h-1.428zM2.856 4.284v-1.428h1.428v1.428h-1.428zM8.093 4.284v-1.428h1.429v1.428h-1.429zM33.545 21.591l0.253 0.254v-3.706c-0.316 1.311-0.893 2.457-1.675 3.43l0.013-0.017 0.723 0.724 0.686-0.686zM29.36 20.258c0 0 0 0 0 0 0.385 0 0.697 0.311 0.698 0.696v0l-0.002 0.006c0.019-0.019 0.041-0.035 0.060-0.054 1.229-1.228 1.988-2.925 1.988-4.8s-0.76-3.572-1.988-4.8v0c-0.082-0.082-0.172-0.155-0.258-0.233-0.126 0.131-0.303 0.212-0.498 0.212h-6.164c-0.374-0.014-0.671-0.321-0.671-0.697s0.297-0.682 0.67-0.697l0.001-0h4.842c-0.802-0.36-1.739-0.57-2.725-0.57-1.374 0-2.653 0.408-3.722 1.11l0.026-0.016c0.015 0.057 0.035 0.113 0.035 0.174-0.001 0.384-0.313 0.696-0.697 0.696h-0.413c-0.008 0.008-0.015 0.014-0.023 0.019-0.548 0.551-1.002 1.196-1.335 1.909l-0.017 0.042h5.712c0.011-0.001 0.024-0.001 0.037-0.001 0.385 0 0.697 0.312 0.697 0.697s-0.312 0.697-0.697 0.697c-0.013 0-0.026-0-0.039-0.001l0.002 0h-6.184c-0.101 0.439-0.158 0.942-0.158 1.459 0 0.277 0.017 0.551 0.049 0.82l-0.003-0.032h2.373c0.366 0.024 0.653 0.327 0.653 0.697s-0.287 0.672-0.651 0.697l-0.002 0h-2.058c0.259 0.753 0.619 1.406 1.070 1.983l-0.011-0.015h4.922c0.369 0.020 0.661 0.325 0.661 0.697s-0.292 0.677-0.66 0.697l-0.002 0h-3.464c1.087 0.773 2.441 1.236 3.904 1.236s2.817-0.463 3.925-1.25l-0.021 0.014h-2.101c-0.366-0.024-0.653-0.327-0.653-0.697s0.287-0.672 0.651-0.697l0.002-0h2.241zM29.36 16.893c0.374 0.014 0.672 0.321 0.672 0.698s-0.298 0.683-0.671 0.698l-0.001 0h-6.164c-0.369-0.020-0.661-0.325-0.661-0.697s0.292-0.677 0.66-0.697l0.002-0h6.165zM27.119 14.648c-0.366-0.024-0.653-0.327-0.653-0.697s0.287-0.672 0.651-0.697l0.002-0h2.241c0.366 0.024 0.653 0.327 0.653 0.697s-0.287 0.672-0.651 0.697l-0.002 0h-2.242z"></path>
</symbol>
<symbol id="icon-icon--SASS" viewBox="0 0 42 32">
<title>icon--SASS</title>
<path d="M29.697 23.79c-0.133-0.095-0.111-0.401 0.327-1.356 0.172-0.375 0.565-1.006 1.247-1.609 0.079 0.248 0.128 0.486 0.126 0.707-0.009 1.478-1.063 2.029-1.7 2.258zM24.087 25.069c-0.179 0.094-0.343 0.152-0.419 0.107-0.056-0.033 0.074-0.156 0.074-0.156s0.911-0.98 1.27-1.427c0.208-0.259 0.45-0.567 0.714-0.912l0.003 0.103c-0.002 1.174-1.136 1.966-1.642 2.285zM16.804 21.594c-0.421 1.028-1.303 3.656-1.84 3.515-0.461-0.121-0.741-2.119-0.092-4.085 0.327-0.99 1.025-2.172 1.436-2.632 0.66-0.738 1.387-0.98 1.564-0.68 0.225 0.381-0.803 3.238-1.068 3.882zM7.99 27.587c-1.21 1.32-2.9 1.818-3.625 1.398-0.783-0.454-0.473-2.397 1.012-3.798 0.905-0.853 2.073-1.639 2.848-2.124l0.75-0.45 0.082-0.047v-0.002l0.187-0.112c0.54 1.994 0.016 3.749-1.254 5.135zM36.146 18.094c-1.386 0.001-2.695 0.328-3.856 0.909l0.050-0.023c-0.389-0.778-0.784-1.462-0.85-1.971-0.077-0.594-0.167-0.949-0.074-1.656 0.094-0.708 0.503-1.71 0.497-1.785s-0.092-0.436-0.938-0.442c-0.847-0.006-1.571 0.163-1.656 0.386-0.133 0.348-0.254 0.767-0.341 1.199l-0.009 0.053c-0.148 0.767-1.691 3.505-2.566 4.938-0.287-0.559-0.53-1.052-0.581-1.442-0.077-0.594-0.167-0.948-0.073-1.656 0.093-0.708 0.502-1.71 0.496-1.785-0.005-0.075-0.091-0.436-0.938-0.442s-1.571 0.163-1.656 0.387c-0.085 0.223-0.176 0.746-0.35 1.251-0.173 0.505-2.223 5.073-2.76 6.257-0.312 0.698-0.539 1.164-0.776 1.624l0.096-0.206-0.001-0.001-0.028 0.059c-0.144 0.282-0.23 0.437-0.23 0.437l0.003 0.006c-0.114 0.207-0.237 0.399-0.297 0.399-0.042 0-0.127-0.55 0.018-1.306 0.305-1.585 1.038-4.056 1.031-4.141-0.004-0.043 0.136-0.474-0.479-0.699-0.597-0.219-0.81 0.146-0.864 0.147-0.053 0.001-0.093 0.129-0.093 0.129s0.666-2.779-1.269-2.779c-1.21 0-2.887 1.324-3.713 2.524-0.521 0.284-1.636 0.893-2.82 1.543l-1.358 0.747-0.090-0.099c-2.347-2.503-6.685-4.274-6.501-7.64 0.066-1.224 0.492-4.446 8.336-8.355 6.425-3.202 11.569-2.32 12.458-0.368 1.27 2.79-2.749 7.975-9.422 8.723-2.543 0.285-3.881-0.701-4.214-1.068-0.35-0.386-0.403-0.403-0.534-0.331-0.213 0.118-0.078 0.459 0 0.662 0.2 0.519 1.017 1.438 2.411 1.896 1.226 0.402 4.211 0.623 7.821-0.773 4.043-1.564 7.2-5.914 6.272-9.55-0.943-3.699-7.075-4.915-12.879-2.853-3.454 1.227-7.193 3.153-9.881 5.668-3.198 2.99-3.708 5.592-3.498 6.68 0.747 3.863 6.072 6.38 8.204 8.244l-0.293 0.162c-1.070 0.529-5.129 2.654-6.144 4.898-1.152 2.546 0.183 4.373 1.067 4.619 2.739 0.762 5.55-0.608 7.060-2.861s1.325-5.185 0.632-6.524l-0.027-0.049 0.837-0.494c0.247-0.158 0.751-0.446 1.26-0.727l0.282-0.142c-0.26 0.71-0.45 1.562-0.549 2.792-0.116 1.446 0.477 3.314 1.252 4.049 0.341 0.323 0.752 0.331 1.012 0.331 0.902 0 1.313-0.75 1.766-1.638 0.556-1.088 1.049-2.355 1.049-2.355s-0.619 3.423 1.068 3.423c0.614 0 1.232-0.797 1.507-1.203l0.002 0.006 0.047-0.079c0.064-0.098 0.1-0.16 0.1-0.16l0.003-0.017c0.384-0.641 0.922-1.629 1.436-2.632l0.18-0.387c1.062-2.083 2.080-4.693 2.080-4.693s0.094 0.638 0.404 1.693c0.183 0.621 0.571 1.307 0.876 1.965-0.246 0.342-0.397 0.538-0.397 0.538l0.004 0.010c-0.197 0.261-0.417 0.543-0.648 0.818-0.838 0.998-1.836 2.137-1.969 2.466-0.158 0.387-0.12 0.672 0.184 0.902 0.222 0.167 0.618 0.193 1.030 0.165 0.564-0.031 1.090-0.157 1.575-0.363l-0.031 0.012c0.407-0.144 0.882-0.37 1.327-0.698 0.822-0.604 1.317-1.468 1.27-2.613-0.027-0.631-0.228-1.256-0.482-1.846l0.224-0.325c1.296-1.894 2.3-3.975 2.3-3.975s0.095 0.638 0.405 1.693c0.157 0.534 0.467 1.117 0.745 1.688-1.218 0.99-1.973 2.14-2.235 2.894-0.485 1.395-0.105 2.028 0.607 2.172 0.323 0.065 0.778-0.083 1.121-0.228 0.427-0.142 0.94-0.377 1.418-0.729 0.822-0.604 1.612-1.45 1.565-2.595-0.022-0.521-0.164-1.038-0.355-1.535 1.032-0.43 2.369-0.67 4.072-0.471 3.653 0.427 4.369 2.708 4.232 3.662-0.137 0.955-0.903 1.479-1.159 1.638-0.256 0.158-0.335 0.213-0.313 0.331 0.031 0.171 0.15 0.165 0.368 0.128 0.301-0.051 1.918-0.776 1.987-2.538 0.088-2.237-2.055-4.695-5.851-4.675z"></path>
</symbol>
<symbol id="icon-icon--shopify" viewBox="0 0 28 32">
<title>icon--shopify</title>
<path d="M18.203 31.439l1.189-27.671c0.050 0.026 0.101 0.051 0.152 0.101 0.202 0.178 1.87 1.847 1.87 1.847s2.402 0.177 2.529 0.177 0.253 0.101 0.278 0.253c0.025 0.152 3.438 23.244 3.438 23.244l-9.456 2.049zM18.987 3.718l-1.214 27.746-17.774-3.339s2.301-17.832 2.402-18.439c0.101-0.834 0.126-0.859 1.012-1.138 0.126-0.051 1.264-0.405 2.831-0.885 0.607-2.58 2.554-7.664 6.624-7.664 0.531 0 1.138 0.278 1.643 0.91h0.152c1.745 0 2.731 1.493 3.287 3.111 0.556-0.177 0.91-0.278 0.936-0.278s0.076-0.025 0.101-0.025zM14.36 4.958c0-1.214-0.152-2.1-0.405-2.757-0.986 0.43-2.123 1.568-2.73 3.896 1.061-0.329 2.149-0.658 3.134-0.962v-0.177zM12.743 1.087c-2.908 0-4.552 3.819-5.234 6.171 0.783-0.227 1.618-0.48 2.478-0.758 0.581-3.086 1.997-4.629 3.286-5.236-0.146-0.11-0.33-0.176-0.53-0.177h-0zM13.451 14.822l1.239-3.566s-0.809-0.481-2.453-0.481c-4.273 0-6.371 2.857-6.371 5.792 0 3.49 3.489 3.592 3.489 5.716 0 0.506-0.379 1.214-1.264 1.214-1.365 0-2.984-1.391-2.984-1.391l-0.834 2.731s1.567 1.922 4.652 1.922c2.579 0 4.475-1.922 4.475-4.932 0-3.819-4.248-4.452-4.248-6.070 0-0.305 0.076-1.493 1.973-1.493 1.264 0 2.326 0.556 2.326 0.556zM15.068 2.024c0.228 0.658 0.354 1.467 0.354 2.453v0.328c0.556-0.177 1.062-0.328 1.517-0.48-0.379-1.164-0.961-2.201-1.871-2.302z"></path>
</symbol>
<symbol id="icon-icon--twitter" viewBox="0 0 38 32">
<title>icon--twitter</title>
<path d="M38.4 3.694c-1.318 0.601-2.846 1.038-4.449 1.233l-0.075 0.008c1.629-0.987 2.854-2.502 3.448-4.303l0.016-0.056c-1.44 0.87-3.116 1.534-4.902 1.896l-0.101 0.017c-1.439-1.533-3.478-2.488-5.74-2.488-0.003 0-0.007 0-0.010 0h0.001c-4.351 0-7.878 3.527-7.878 7.878v0c0 0.617 0.070 1.218 0.204 1.795-6.547-0.328-12.353-3.464-16.239-8.231-0.67 1.131-1.066 2.493-1.066 3.947 0 0.005 0 0.010 0 0.015v-0.001c0 0.002 0 0.004 0 0.006 0 2.72 1.379 5.119 3.477 6.534l0.028 0.018c-1.316-0.043-2.54-0.404-3.608-1.007l0.039 0.020v0.1c0 3.817 2.715 7.001 6.32 7.725-0.621 0.176-1.334 0.277-2.071 0.277-0.526 0-1.040-0.052-1.537-0.15l0.050 0.008c1.037 3.154 3.927 5.404 7.351 5.471l0.008 0c-2.66 2.103-6.061 3.373-9.76 3.373-0.009 0-0.017 0-0.026-0h0.001c-0.635 0-1.262-0.038-1.879-0.11 3.407 2.219 7.577 3.539 12.055 3.539 0.008 0 0.015 0 0.023 0h-0.001c14.491 0 22.415-12.005 22.415-22.416 0-0.341-0.006-0.682-0.022-1.019 1.548-1.128 2.852-2.479 3.894-4.022l0.036-0.057z"></path>
</symbol>
<symbol id="icon-icon--users" viewBox="0 0 34 32">
<title>icon--users</title>
<path d="M33.598 19.557l0.002 8.028c0 0.020-0.002 0.041-0.003 0.062-0.618 0.15-1.46 0.307-2.313 0.43l-0.169 0.020c0.013-0.151 0.022-0.33 0.023-0.51l0-0.003c-0.001-2.987-0.003-5.81-0.006-8.632l0.001 0.604c-0.060-1.544-0.635-2.935-1.533-3.981-1.009-1.174-2.426-1.91-4-1.91v-1.007c0.496-0.267 0.922-0.584 1.297-0.953l-0.001 0.001c0.173-0.171 0.335-0.351 0.487-0.54l0.009-0.012c0.838 0.214 1.574 0.541 2.237 0.97l-0.029-0.018c1.383 0.877 2.501 2.195 3.2 3.791 0.484 1.108 0.774 2.342 0.798 3.658zM25.065 21.073c0.321 0.865 0.514 1.795 0.534 2.775l0.002 7.662-0.002 0.059c-0.642 0.142-1.528 0.294-2.425 0.412l-0.182 0.020c0.013-0.162 0.023-0.325 0.023-0.49 0-0.087-0.001-7.576-0.004-7.662-0.046-1.030-0.349-1.981-0.846-2.801l0.015 0.026c-0.184-0.308-0.375-0.573-0.587-0.821l0.007 0.008c-1.066-1.249-2.641-2.035-4.4-2.036h-0c-0.001 0-0.001 0-0.002 0-2.267 0-4.231 1.302-5.183 3.199l-0.015 0.033c-0.354 0.696-0.576 1.514-0.611 2.38l-0 0.011c-0.002 0.074-0.004 7.586-0.004 7.662 0 0.129 0.012 0.253 0.019 0.379-1.088-0.164-1.97-0.337-2.84-0.542l0.236 0.047c0-0.95 0.002-7.474 0.003-7.546 0.026-0.978 0.223-1.909 0.548-2.775 0.561-1.472 1.471-2.703 2.632-3.634l0.017-0.013c0.523-0.417 1.117-0.782 1.754-1.069l0.053-0.021c0.894 0.524 1.908 0.835 2.994 0.835 1.22 0 2.354-0.382 3.322-1.032 2.295 0.865 4.074 2.642 4.923 4.877l0.019 0.058zM6.208 11.155c0.155 0.195 0.32 0.379 0.496 0.553 0.374 0.368 0.8 0.685 1.266 0.937l0.030 0.015v1.006c-1.194 0-2.296 0.426-3.2 1.141-1.351 1.067-2.257 2.788-2.333 4.75-0.002 0.025-0.002 0.639-0.003 1.517l-0.002 6.511c0 0.173 0.010 0.343 0.022 0.513-1.024-0.144-1.865-0.302-2.694-0.492l0.214 0.041c-0.001-0.022-0.003-0.042-0.003-0.062l0.002-8.028c0.025-1.316 0.314-2.55 0.798-3.657 1.042-2.382 3.018-4.147 5.408-4.745zM11.053 12.442c-0.214 0.027-0.432 0.046-0.653 0.046-0.88-0.003-1.706-0.228-2.427-0.622l0.027 0.013c-0.496-0.267-0.922-0.584-1.297-0.953l0.001 0.001c-0.173-0.17-0.336-0.35-0.487-0.539l-0.009-0.012c-0.874-1.102-1.408-2.546-1.408-4.131 0-3.448 2.507-6.244 5.6-6.244 1.886 0 3.551 1.043 4.566 2.638 0.582-0.191 1.196-0.297 1.834-0.297s1.252 0.106 1.834 0.296c1.014-1.594 2.68-2.638 4.566-2.638 3.093 0 5.6 2.796 5.6 6.244 0 1.586-0.534 3.029-1.408 4.131-0.16 0.201-0.323 0.381-0.495 0.55l-0.001 0.001c-0.374 0.369-0.8 0.686-1.266 0.938l-0.030 0.015c-0.694 0.381-1.52 0.606-2.399 0.609h-0.001c-0.221 0-0.438-0.018-0.653-0.046-0.268 0.593-0.585 1.104-0.958 1.568l0.011-0.014c-0.422 0.525-0.909 0.975-1.455 1.346l-0.023 0.015c-0.969 0.65-2.104 1.033-3.322 1.033-1.086 0-2.1-0.312-2.994-0.836-0.706-0.418-1.304-0.937-1.796-1.545l-0.010-0.012c-0.363-0.45-0.679-0.961-0.929-1.51l-0.018-0.045zM10.4 1.922c-2.141 0-3.877 1.936-3.877 4.322s1.736 4.323 3.877 4.323c0.034 0 0.066-0.005 0.099-0.006-0.061-0.358-0.097-0.772-0.099-1.194v-0.002c0-1.132 0.251-2.205 0.699-3.168l-0.019 0.046c0.52-1.139 1.304-2.109 2.277-2.792-0.712-0.935-1.771-1.53-2.957-1.53zM14.206 5.429c-0.418 0.335-0.772 0.73-1.053 1.176l-0.011 0.019c-0.485 0.774-0.773 1.715-0.773 2.723 0 0.209 0.012 0.415 0.037 0.618l-0.002-0.024 0.020-0.013c0.072 0.69 0.265 1.321 0.56 1.891l-0.014-0.030-0.005 0.002c0.056 0.108 0.115 0.216 0.179 0.318 0.798 1.28 2.138 2.12 3.658 2.12s2.86-0.84 3.658-2.12c0.064-0.102 0.122-0.21 0.179-0.318l-0.005-0.002c0.28-0.541 0.474-1.171 0.544-1.839l0.002-0.023 0.020 0.013c0.022-0.178 0.034-0.384 0.034-0.593 0-1.008-0.288-1.949-0.786-2.744l0.013 0.022c-0.292-0.465-0.645-0.86-1.055-1.188l-0.009-0.007c-0.449-0.362-0.984-0.638-1.569-0.791l-0.029-0.007c-0.321-0.081-0.653-0.128-0.996-0.128s-0.675 0.047-0.996 0.128c-0.614 0.16-1.149 0.435-1.607 0.804l0.008-0.006zM23.2 1.922c-1.186 0-2.246 0.595-2.957 1.53 0.973 0.684 1.757 1.654 2.276 2.792 0.429 0.917 0.68 1.99 0.68 3.122v0c0 0.408-0.038 0.806-0.098 1.196 0.032 0.001 0.066 0.006 0.099 0.006 2.141 0 3.877-1.936 3.877-4.323s-1.736-4.322-3.877-4.322z"></path>
</symbol>
<symbol id="icon-icon--usertest" viewBox="0 0 25 32">
<title>icon--usertest</title>
<path d="M23.959 5.006c0.363 0 0.657 0.293 0.657 0.655v25.682c0 0.363-0.294 0.657-0.657 0.657v0h-23.302c-0.363 0-0.657-0.294-0.657-0.657v-25.682c0-0.363 0.294-0.657 0.657-0.657h4.89l3.479-1.499v-0.223c0-1.813 1.47-3.282 3.282-3.282s3.282 1.47 3.282 3.282v0 0.223l3.479 1.5h4.89zM23.303 30.687v-24.37h-3.774v1.149h1.969c0.363 0 0.657 0.294 0.657 0.657v20.759c-0 0.362-0.294 0.656-0.657 0.656 0 0 0 0 0 0h-18.379c-0.362-0-0.655-0.293-0.656-0.655v-20.76c0-0.363 0.293-0.657 0.656-0.657h1.97v-1.147h-3.774v24.37h21.99zM5.743 10.093c-0.362-0-0.656-0.294-0.656-0.657 0 0 0 0 0 0v0-0.657h-1.313v19.446h17.067v-19.446h-1.314v0.657c-0 0.362-0.294 0.656-0.657 0.656 0 0 0 0 0 0h-13.128zM6.4 6.071v2.708h11.816v-2.706l-3.646-1.505-0.293-0.629v-0.656c0-1.088-0.882-1.969-1.969-1.969s-1.969 0.882-1.969 1.969v0 0.656l-0.292 0.629-3.646 1.504zM11.651 3.938v-1.312h1.313v1.314h-1.313zM17.746 25.068c0.184 0 0.334 0.149 0.334 0.334s-0.149 0.334-0.334 0.334h-4.030c-0.175-0.012-0.312-0.157-0.312-0.334s0.137-0.322 0.311-0.334l0.001-0h4.030zM8.423 16.47c0.629 0 1.14 0.512 1.14 1.141v2.686c0 0.629-0.511 1.141-1.14 1.141h-2.687c-0.629-0.001-1.139-0.511-1.14-1.141v-2.686c0-0.629 0.511-1.141 1.14-1.141h2.687zM8.895 20.297v-2.686c-0-0.261-0.212-0.472-0.472-0.472h-2.687c-0.261 0-0.472 0.212-0.472 0.472 0 0 0 0 0 0v0 2.686c0 0.261 0.212 0.472 0.472 0.472h2.687c0.26 0 0.472-0.212 0.472-0.472zM19.896 23.457c0.007-0 0.015-0.001 0.023-0.001 0.185 0 0.334 0.15 0.334 0.334s-0.15 0.334-0.334 0.334c-0.008 0-0.016-0-0.024-0.001l0.001 0h-2.955c-0.184 0-0.334-0.149-0.334-0.334s0.149-0.334 0.334-0.334v0h2.955zM19.896 25.069c0.007-0 0.015-0.001 0.023-0.001 0.185 0 0.334 0.15 0.334 0.334s-0.15 0.334-0.334 0.334c-0.008 0-0.016-0-0.024-0.001l0.001 0h-1.074c-0.175-0.012-0.312-0.157-0.312-0.334s0.137-0.322 0.311-0.334l0.001-0h1.074zM18.080 19.76c0 0.184-0.149 0.334-0.334 0.334v0h-4.030c-0.184 0-0.334-0.149-0.334-0.334s0.149-0.334 0.334-0.334v0h4.030c0.184 0 0.334 0.149 0.334 0.334zM4.596 11.968c0-0.629 0.511-1.141 1.14-1.141h2.687c0.629 0 1.14 0.512 1.14 1.141v2.686c0 0.629-0.511 1.141-1.14 1.141h-2.687c-0.629-0.001-1.139-0.511-1.14-1.141v-2.686zM5.264 11.968v2.686c0 0.261 0.212 0.472 0.472 0.472h2.687c0.261-0 0.472-0.212 0.472-0.472 0 0 0 0 0 0v0-2.686c0 0 0 0 0 0 0-0.261-0.211-0.472-0.472-0.472h-2.687c-0.261 0-0.472 0.212-0.472 0.472 0 0 0 0 0 0v0zM8.423 22.113c0.629 0 1.14 0.511 1.14 1.141v2.686c0 0.629-0.511 1.14-1.14 1.14h-2.687c-0.629-0.001-1.139-0.511-1.14-1.14v-2.687c0-0.629 0.511-1.141 1.14-1.141h2.687zM8.895 25.94v-2.686c-0-0.261-0.212-0.472-0.472-0.472h-2.687c-0.261 0-0.472 0.212-0.472 0.472 0 0 0 0 0 0v0 2.686c0 0.261 0.212 0.472 0.472 0.472h2.687c0.26 0 0.472-0.212 0.472-0.472zM8.258 23.456c0.089 0 0.174 0.035 0.236 0.099 0.061 0.060 0.099 0.144 0.099 0.236s-0.038 0.176-0.099 0.236l-1.612 1.611c-0.060 0.061-0.144 0.098-0.236 0.098s-0.176-0.038-0.236-0.098l-0.806-0.806c-0.053-0.059-0.086-0.138-0.086-0.224 0-0.185 0.15-0.334 0.334-0.334 0.086 0 0.165 0.033 0.224 0.086l-0-0 0.57 0.57 1.376-1.376c0.060-0.061 0.144-0.098 0.236-0.098 0 0 0 0 0 0h-0zM8.219 18.148c0 0 0 0 0 0 0 0.092-0.038 0.176-0.098 0.236l-0.57 0.57 0.57 0.57c0.061 0.060 0.099 0.144 0.099 0.236s-0.038 0.176-0.099 0.236l-0 0c-0.060 0.060-0.142 0.098-0.234 0.098-0.001 0-0.002 0-0.003 0h0c-0.001 0-0.001 0-0.002 0-0.091 0-0.174-0.037-0.233-0.098l-0-0-0.571-0.57-0.57 0.57c-0.059 0.060-0.142 0.098-0.233 0.098-0.001 0-0.002 0-0.002 0h0c-0.184-0.001-0.333-0.15-0.333-0.334 0-0.092 0.037-0.175 0.097-0.235l0.57-0.57-0.57-0.57c-0.061-0.060-0.099-0.144-0.099-0.236s0.038-0.176 0.099-0.236l0-0c0.060-0.060 0.142-0.098 0.234-0.098 0.001 0 0.002 0 0.003 0h-0c0.001 0 0.001 0 0.002 0 0.091 0 0.174 0.037 0.233 0.098l0 0 0.571 0.57 0.57-0.57c0.059-0.060 0.142-0.098 0.233-0.098 0.001 0 0.002 0 0.002 0h-0c0.001 0 0.002 0 0.002 0 0.183 0 0.332 0.149 0.332 0.332 0 0.001 0 0.001 0 0.002v-0zM10.491 20.094c-0.175-0.012-0.312-0.157-0.312-0.334s0.137-0.322 0.311-0.334l0.001-0h2.15c0.175 0.012 0.312 0.157 0.312 0.334s-0.137 0.322-0.311 0.334l-0.001 0h-2.15zM10.491 24.124c-0.178-0.009-0.319-0.155-0.319-0.334s0.141-0.325 0.318-0.334l0.001-0h5.374c0.173 0.015 0.308 0.159 0.308 0.334s-0.135 0.319-0.306 0.334l-0.001 0h-5.374zM10.491 18.482c-0.175-0.012-0.312-0.157-0.312-0.334s0.137-0.322 0.311-0.334l0.001-0h5.374c0.007-0 0.015-0.001 0.023-0.001 0.185 0 0.334 0.15 0.334 0.334s-0.15 0.334-0.334 0.334c-0.008 0-0.016-0-0.024-0.001l0.001 0h-5.374zM10.491 25.736c-0.173-0.015-0.308-0.159-0.308-0.334s0.135-0.319 0.306-0.334l0.001-0h2.15c0.173 0.015 0.308 0.159 0.308 0.334s-0.135 0.319-0.306 0.334l-0.001 0h-2.15zM6.411 14.354l-0.806-0.806c-0.061-0.060-0.099-0.144-0.099-0.236s0.038-0.176 0.099-0.236l0-0c0.059-0.060 0.142-0.098 0.233-0.098 0.001 0 0.002 0 0.002 0h-0c0.090 0 0.174 0.034 0.236 0.098l0.57 0.57 1.376-1.376c0.060-0.060 0.143-0.098 0.235-0.098 0.001 0 0.001 0 0.001 0h-0c0.001-0 0.003-0 0.004-0 0.183 0 0.332 0.149 0.332 0.332 0 0.093-0.038 0.177-0.1 0.238l-1.612 1.612c-0.060 0.060-0.142 0.098-0.234 0.098-0.001 0-0.002 0-0.003 0h0c-0.001 0-0.001 0-0.002 0-0.091 0-0.174-0.037-0.233-0.098l-0-0zM10.491 14.452c-0.175-0.012-0.312-0.157-0.312-0.334s0.137-0.322 0.311-0.334l0.001-0h2.15c0.175 0.012 0.312 0.157 0.312 0.334s-0.137 0.322-0.311 0.334l-0.001 0h-2.15zM16.94 12.84c-0.184 0-0.334-0.149-0.334-0.334s0.149-0.334 0.334-0.334h2.955c0.007-0.001 0.015-0.001 0.023-0.001 0.185 0 0.334 0.15 0.334 0.334s-0.15 0.334-0.334 0.334c-0.008 0-0.016-0-0.024-0.001l0.001 0h-2.955zM18.080 14.118c0 0.184-0.149 0.334-0.334 0.334v0h-4.030c-0.184 0-0.334-0.149-0.334-0.334s0.149-0.334 0.334-0.334v0h4.030c0.184 0 0.334 0.149 0.334 0.334zM19.896 17.815c0.007-0 0.015-0.001 0.023-0.001 0.185 0 0.334 0.15 0.334 0.334s-0.15 0.334-0.334 0.334c-0.008 0-0.016-0-0.024-0.001l0.001 0h-2.955c-0.184 0-0.334-0.149-0.334-0.334s0.149-0.334 0.334-0.334v0h2.955zM19.896 19.427c0.007-0 0.015-0.001 0.023-0.001 0.185 0 0.334 0.15 0.334 0.334s-0.15 0.334-0.334 0.334c-0.008 0-0.016-0-0.024-0.001l0.001 0h-1.074c-0.007 0-0.015 0.001-0.023 0.001-0.185 0-0.334-0.15-0.334-0.334s0.15-0.334 0.334-0.334c0.008 0 0.016 0 0.024 0.001l-0.001-0h1.074zM19.896 13.784c0.007-0.001 0.015-0.001 0.023-0.001 0.185 0 0.334 0.15 0.334 0.334s-0.15 0.334-0.334 0.334c-0.008 0-0.016-0-0.024-0.001l0.001 0h-1.074c-0.007 0.001-0.015 0.001-0.023 0.001-0.185 0-0.334-0.15-0.334-0.334s0.15-0.334 0.334-0.334c0.008 0 0.016 0 0.024 0.001l-0.001-0h1.074zM10.491 12.84c-0.175-0.012-0.312-0.157-0.312-0.334s0.137-0.322 0.311-0.334l0.001-0h5.374c0.007-0.001 0.015-0.001 0.023-0.001 0.185 0 0.334 0.15 0.334 0.334s-0.15 0.334-0.334 0.334c-0.008 0-0.016-0-0.024-0.001l0.001 0h-5.374z"></path>
</symbol>
<symbol id="icon-icon--wireframe" viewBox="0 0 42 32">
<title>icon--wireframe</title>
<path d="M0 0v31.216h42v-31.216h-42zM1.703 6.243v-4.54h38.594v4.54h-38.594zM1.703 29.514v-21.568h38.594v21.568h-38.594zM36.892 5.108h1.703v-1.703h-1.703v1.703zM6.243 5.108h1.703v-1.703h-1.703v1.703zM3.405 5.108h1.703v-1.703h-1.703v1.703zM14.757 5.108h21v-1.703h-21v1.703zM9.649 5.108h1.702v-1.703h-1.701v1.703zM18.77 18.582c-2.34-2.847-3.633-4.27-3.877-4.27-0.623 0-10.352 11.080-10.352 12.364h32.35c0-1.063-11.663-14.757-12.293-14.757-0.282 0-2.225 2.22-5.828 6.663zM9.081 15.892c1.567 0 2.838-1.271 2.838-2.838s-1.271-2.838-2.838-2.838v0c-1.567 0-2.838 1.271-2.838 2.838s1.271 2.838 2.838 2.838v0z"></path>
</symbol>
<symbol id="icon-icon--wordpress" viewBox="0 0 32 32">
<title>icon--wordpress</title>
<path d="M2.274 15.999c0 5.432 3.157 10.128 7.736 12.353l-6.547-17.939c-0.751 1.64-1.189 3.557-1.189 5.576 0 0.004 0 0.007 0 0.011v-0.001zM25.266 15.307c0-1.697-0.61-2.871-1.132-3.785-0.696-1.131-1.348-2.088-1.348-3.219 0-1.262 0.957-2.436 2.305-2.436 0.061 0 0.119 0.008 0.178 0.011-2.426-2.234-5.678-3.603-9.25-3.603-0.006 0-0.013 0-0.019 0h0.001c-4.795 0-9.014 2.46-11.468 6.187 0.322 0.009 0.625 0.016 0.884 0.016 1.435 0 3.657-0.174 3.657-0.174 0.74-0.044 0.827 1.043 0.088 1.131 0 0-0.744 0.087-1.571 0.13l4.998 14.867 3.004-9.008-2.139-5.859c-0.573-0.036-1.069-0.082-1.561-0.143l0.122 0.012c-0.74-0.043-0.653-1.174 0.087-1.131 0 0 2.267 0.174 3.615 0.174 1.435 0 3.658-0.174 3.658-0.174 0.74-0.043 0.827 1.043 0.088 1.131 0 0-0.745 0.088-1.571 0.131l4.961 14.754 1.368-4.575c0.594-1.898 1.045-3.262 1.045-4.437zM16.241 17.2l-4.118 11.966c1.161 0.354 2.495 0.558 3.878 0.558 1.633 0 3.2-0.285 4.653-0.808l-0.096 0.030c-0.035-0.054-0.067-0.116-0.095-0.181l-0.003-0.008-4.219-11.558zM28.043 9.414c0.059 0.437 0.092 0.907 0.092 1.411 0 1.393-0.26 2.958-1.044 4.917l-4.192 12.121c4.080-2.379 6.824-6.8 6.824-11.864 0-0.007 0-0.016 0-0.025 0-2.406-0.623-4.667-1.717-6.63l0.035 0.069h0.001zM16 0c-8.822 0-16 7.177-16 15.999s7.177 16 16 16c8.821 0 16-7.177 16-16s-7.179-15.999-16-15.999zM16 31.266c-8.418 0-15.266-6.849-15.266-15.266s6.848-15.266 15.266-15.266c8.417 0 15.265 6.848 15.265 15.266s-6.848 15.266-15.265 15.266z"></path>
</symbol>
<symbol id="icon-icon--youtube" viewBox="0 0 33 32">
<title>icon--youtube</title>
<path d="M26.282 14.981h-20.408c-3.244 0.001-5.874 2.631-5.874 5.876v0 4.721c0 3.244 2.63 5.874 5.874 5.875h20.408c3.244-0.001 5.873-2.631 5.873-5.875v-4.721c-0-3.244-2.629-5.874-5.873-5.875h-0zM10.161 18.656h-1.897v9.428h-1.833v-9.428h-1.897v-1.604h5.627v1.604zM15.521 28.084h-1.626v-0.891c-0.302 0.329-0.613 0.581-0.939 0.751-0.325 0.177-0.639 0.26-0.944 0.26-0.378 0-0.659-0.12-0.851-0.364-0.189-0.244-0.285-0.604-0.285-1.091v-6.803h1.626v6.244c0 0.193 0.036 0.331 0.101 0.417 0.070 0.088 0.182 0.13 0.335 0.13 0.118 0 0.27-0.057 0.453-0.171 0.184-0.116 0.352-0.26 0.505-0.438v-6.181h1.626v8.139zM21.424 26.403c0 0.575-0.128 1.017-0.383 1.325-0.254 0.308-0.625 0.46-1.105 0.46-0.32 0-0.605-0.058-0.852-0.177-0.276-0.137-0.508-0.322-0.693-0.547l-0.003-0.004v0.623h-1.645v-11.031h1.645v3.553c0.221-0.246 0.453-0.436 0.696-0.564 0.249-0.13 0.499-0.194 0.752-0.194 0.514 0 0.907 0.172 1.179 0.519s0.408 0.855 0.408 1.521v4.516h0.002zM27.064 24.211h-3.112v1.533c0 0.428 0.053 0.725 0.159 0.891 0.108 0.166 0.291 0.247 0.552 0.247 0.27 0 0.457-0.070 0.566-0.21 0.105-0.142 0.162-0.45 0.162-0.929v-0.37h1.673v0.418c0 0.834-0.203 1.463-0.613 1.886-0.404 0.421-1.015 0.629-1.825 0.629-0.73 0-1.305-0.222-1.723-0.67-0.416-0.444-0.628-1.061-0.628-1.845v-3.656c0-0.704 0.232-1.282 0.693-1.726 0.46-0.444 1.051-0.666 1.779-0.666 0.745 0 1.318 0.205 1.717 0.617s0.599 1.002 0.599 1.774v2.075zM24.679 21.167c-0.26 0-0.444 0.073-0.557 0.225-0.116 0.143-0.169 0.388-0.169 0.729v0.823h1.438v-0.823c0-0.341-0.058-0.586-0.172-0.729-0.109-0.151-0.292-0.225-0.539-0.225zM19.069 21.14c0.219 0 0.389 0.071 0.507 0.211 0.116 0.143 0.171 0.35 0.171 0.627v4.203c0 0.26-0.048 0.444-0.14 0.56-0.094 0.117-0.24 0.175-0.439 0.175-0.138 0-0.268-0.032-0.393-0.087-0.149-0.077-0.277-0.174-0.385-0.289l-0.001-0.001v-5.070c0.11-0.112 0.222-0.197 0.336-0.249 0.112-0.053 0.229-0.079 0.344-0.079zM8.546 12.154v-4.815l-2.455-7.339h2.076l1.339 4.858h0.13l1.276-4.858h2.096l-2.401 7.112v5.042h-2.061zM15.8 12.38c-0.801 0-1.443-0.226-1.924-0.677-0.48-0.453-0.721-1.056-0.721-1.818v-4.647c0-0.697 0.247-1.249 0.739-1.659 0.493-0.411 1.156-0.617 1.989-0.617 0.758 0 1.379 0.217 1.865 0.649 0.482 0.433 0.724 0.995 0.724 1.678v4.631c0 0.767-0.236 1.366-0.709 1.805-0.476 0.436-1.129 0.655-1.961 0.655zM15.041 5.17h-0.001v4.884c0 0.246 0.066 0.435 0.195 0.569 0.131 0.138 0.318 0.204 0.56 0.204 0.247 0 0.444-0.068 0.59-0.205 0.148-0.137 0.221-0.327 0.221-0.567v-4.885c0-0.004 0-0.009 0-0.015 0-0.186-0.087-0.352-0.222-0.46l-0.001-0.001c-0.15-0.12-0.346-0.179-0.588-0.179-0.224 0-0.404 0.059-0.546 0.179-0.128 0.112-0.208 0.276-0.208 0.458 0 0.006 0 0.013 0 0.019l-0-0.001zM21.235 12.285c-0.425 0-0.741-0.136-0.958-0.404-0.212-0.265-0.32-0.664-0.32-1.199v-7.493h1.829v6.873c0 0.211 0.043 0.364 0.118 0.458 0.074 0.098 0.201 0.144 0.372 0.144 0.135 0 0.305-0.062 0.512-0.189 0.204-0.127 0.393-0.287 0.564-0.482v-6.806h1.831v8.966h-1.831v-0.994c-0.335 0.365-0.687 0.645-1.055 0.837-0.364 0.189-0.717 0.287-1.061 0.287z"></path>
</symbol>
<symbol id="icon-logo-footer" viewBox="0 0 37 32">
<title>logo-footer</title>
<path fill="#fbfaf0" style="fill: var(--color1, #fbfaf0)" d="M0 0h36.822v31.644h-36.822v-31.644zM15.78 8.218c-0.038 0-0.075 0.003-0.113 0.009-0.035 0.005-0.066 0.015-0.096 0.029l0.002-0.001c-0.037 0.043-0.072 0.090-0.103 0.139l-0.003 0.005c-0.033 0.053-0.066 0.108-0.098 0.164s-0.065 0.111-0.098 0.164c-0.033 0.053-0.068 0.101-0.106 0.143-0.068-0.088-0.138-0.188-0.203-0.292l-0.009-0.015c-0.066-0.106-0.132-0.209-0.197-0.308-0.032 0-0.065-0.001-0.1-0.004-0.057-0.004-0.123-0.007-0.189-0.007-0.003 0-0.006 0-0.008 0h0c-0.030 0-0.059 0.004-0.086 0.011l0.003-0.001c-0.007 0.117-0.010 0.238-0.011 0.363s0 0.251 0.001 0.378l0.006 0.383c0.003 0.128 0.004 0.253 0.004 0.376 0.013 0.012 0.032 0.022 0.058 0.028s0.055 0.011 0.088 0.012c0.010 0.001 0.021 0.001 0.033 0.001 0.054 0 0.106-0.006 0.157-0.017l-0.005 0.001v-0.982c0.044 0.048 0.084 0.101 0.118 0.157s0.068 0.113 0.102 0.17c0.033 0.057 0.068 0.112 0.107 0.166s0.082 0.103 0.132 0.147c0.044-0.044 0.085-0.094 0.121-0.149s0.073-0.112 0.107-0.169c0.034-0.057 0.068-0.112 0.1-0.165s0.069-0.098 0.109-0.135v0.96h0.355c0.012-0.259 0.017-0.517 0.012-0.771s0.001-0.505 0.013-0.753c-0.027-0.012-0.058-0.022-0.090-0.027l-0.002-0c-0.033-0.006-0.071-0.009-0.11-0.009-0 0-0.001 0-0.001 0h0zM17.87 9.309c0.139-0.024 0.254-0.069 0.344-0.135s0.15-0.151 0.18-0.258c0.030-0.105 0.020-0.231-0.030-0.376-0.043-0.092-0.113-0.165-0.2-0.209l-0.003-0.001c-0.093-0.046-0.2-0.079-0.313-0.092l-0.005-0c-0.091-0.012-0.195-0.018-0.302-0.018-0.034 0-0.067 0.001-0.1 0.002l0.005-0c-0.143 0.004-0.289 0.010-0.438 0.016-0.014 0.253-0.017 0.513-0.009 0.78s0.012 0.527 0.014 0.78h0.367c0.012-0.033 0.019-0.071 0.019-0.11 0-0.003-0-0.005-0-0.008v0c-0.001-0.044-0.004-0.086-0.008-0.128l0.001 0.006c-0.004-0.036-0.006-0.078-0.006-0.12 0-0.001 0-0.001 0-0.002v0c0-0.040 0.007-0.080 0.020-0.117 0.17 0.018 0.324 0.015 0.464-0.010zM17.399 8.425c0.041-0.007 0.092-0.010 0.153-0.010s0.121 0.007 0.18 0.018c0.060 0.011 0.113 0.028 0.16 0.051s0.079 0.053 0.094 0.089c0.027 0.1 0.027 0.179-0.001 0.237s-0.075 0.106-0.132 0.133l-0.002 0.001c-0.061 0.030-0.131 0.049-0.213 0.056-0.035 0.004-0.077 0.006-0.118 0.006s-0.083-0.002-0.123-0.006l0.005 0c-0.001-0.092-0.002-0.184-0.002-0.277v-0.299zM19.597 8.555c0.002-0.105 0.003-0.208 0.003-0.308-0.026-0.012-0.055-0.020-0.086-0.024l-0.001-0c-0.020-0.003-0.044-0.004-0.067-0.004-0.010 0-0.020 0-0.029 0.001l0.001-0c-0.036 0.002-0.069 0.005-0.102 0.011l0.005-0.001c-0.032 0.006-0.061 0.011-0.089 0.018-0.007 0.124-0.010 0.252-0.011 0.381-0.001 0.131-0 0.262 0.001 0.393s0.003 0.263 0.006 0.392c0.002 0.131 0.003 0.258 0.003 0.383h1.184c0.007-0.019 0.012-0.042 0.014-0.066l0-0.002c0.003-0.025 0.005-0.054 0.005-0.083s-0.002-0.058-0.005-0.087l0 0.003c-0.003-0.025-0.008-0.048-0.015-0.070l0.001 0.002c-0.058-0.006-0.125-0.010-0.194-0.010h-0c-0.070-0.001-0.141-0.001-0.213-0.001s-0.143 0-0.213-0.001c-0.069-0-0.137-0.004-0.203-0.011l0.009 0.001c-0.006-0.086-0.010-0.187-0.011-0.29v-0.002c-0.001-0.102 0-0.206 0.001-0.311s0.003-0.21 0.006-0.315zM21.969 9.475c-0.040 0.018-0.086 0.030-0.135 0.032l-0.001 0c-0.006 0-0.013 0-0.021 0-0.048 0-0.095-0.006-0.139-0.017l0.004 0.001c-0.064-0.014-0.117-0.030-0.168-0.049l0.009 0.003c-0.060-0.022-0.107-0.042-0.153-0.063l0.011 0.005c-0.044-0.021-0.079-0.039-0.107-0.055-0.043 0.035-0.084 0.071-0.125 0.107-0.038 0.034-0.072 0.069-0.103 0.108l-0.001 0.002c0.050 0.037 0.103 0.071 0.161 0.104s0.121 0.060 0.191 0.082c0.069 0.023 0.145 0.039 0.228 0.051s0.173 0.014 0.273 0.008c0.099-0.006 0.19-0.027 0.272-0.063 0.078-0.032 0.144-0.081 0.197-0.141l0.001-0.001c0.048-0.057 0.081-0.129 0.091-0.208l0-0.002c0.002-0.015 0.003-0.032 0.003-0.050 0-0.079-0.019-0.154-0.052-0.22l0.001 0.003c-0.016-0.015-0.031-0.031-0.044-0.048l-0.001-0.001c-0.018-0.021-0.041-0.038-0.067-0.048l-0.001-0c-0.034-0.029-0.073-0.052-0.117-0.067l-0.003-0.001c-0.039-0.015-0.089-0.030-0.14-0.042l-0.009-0.002c-0.053-0.013-0.107-0.025-0.161-0.037-0.061-0.013-0.113-0.027-0.163-0.045l0.009 0.003c-0.049-0.017-0.092-0.040-0.13-0.068l0.001 0.001c-0.037-0.028-0.066-0.065-0.084-0.107l-0.001-0.002c0.017-0.037 0.045-0.068 0.080-0.087l0.001-0.001c0.035-0.020 0.074-0.031 0.117-0.036s0.088-0.003 0.135 0.005c0.098 0.017 0.184 0.044 0.266 0.079l-0.008-0.003c0.038 0.016 0.069 0.031 0.093 0.042 0.043-0.025 0.084-0.060 0.124-0.103s0.074-0.091 0.103-0.139c-0.070-0.059-0.154-0.104-0.246-0.131l-0.005-0.001c-0.106-0.034-0.227-0.053-0.353-0.053-0.098 0-0.194 0.012-0.285 0.034l0.008-0.002c-0.099 0.022-0.186 0.062-0.262 0.117l0.002-0.001c-0.068 0.050-0.118 0.121-0.143 0.202l-0.001 0.003c-0.025 0.083-0.013 0.181 0.035 0.294 0.043 0.062 0.099 0.117 0.17 0.162 0.070 0.047 0.155 0.082 0.255 0.107 0.043 0.012 0.089 0.021 0.139 0.028s0.098 0.015 0.145 0.027c0.046 0.012 0.088 0.031 0.125 0.055 0.037 0.026 0.064 0.065 0.076 0.109l0 0.001v0.022c-0.021 0.043-0.055 0.076-0.096 0.096l-0.001 0.001zM15.578 10.782v0.395h5.867c-0-0.064-0.002-0.127-0.005-0.189l0 0.009c-0.003-0.065 0.022-0.179-0.029-0.18-1.571-0.035-2.492-0.019-2.716-0.019s-1.507-0.001-1.735-0.002c-0.228-0.001-1.159-0.006-1.383-0.014zM15.77 22.319c-0.068-0.067-0.149-0.121-0.238-0.159l-0.005-0.002c-0.091-0.039-0.197-0.071-0.307-0.091l-0.009-0.001c-0.116-0.022-0.241-0.035-0.375-0.039s-0.272-0.004-0.416-0.001c-0.013 0-0.022 0.005-0.025 0.014-0.002 0.004-0.002 0.008-0.003 0.013v0c-0.014 0.249-0.023 0.549-0.025 0.85l-0 0.008c-0.002 0.131-0.003 0.287-0.003 0.442v0.416c0.056 0.013 0.116 0.021 0.181 0.024s0.132 0.003 0.2 0.001l0.205-0.005c0.068-0.002 0.134 0.001 0.196 0.007 0.118-0.027 0.226-0.065 0.323-0.114s0.18-0.111 0.252-0.184l0-0c0.071-0.073 0.129-0.158 0.174-0.255s0.074-0.208 0.088-0.334c0-0.134-0.019-0.249-0.056-0.346-0.036-0.096-0.089-0.178-0.157-0.246l0 0zM15.564 23.035c-0.025 0.092-0.078 0.169-0.148 0.225l-0.001 0.001c-0.077 0.059-0.169 0.102-0.27 0.12l-0.004 0.001c-0.068 0.014-0.146 0.022-0.227 0.022-0.044 0-0.088-0.002-0.131-0.007l0.005 0c-0.013-0.155-0.020-0.318-0.020-0.488s0.007-0.333 0.020-0.487c0.183-0.013 0.34 0.006 0.469 0.054s0.224 0.125 0.281 0.227c0.043 0.129 0.050 0.239 0.025 0.332zM17.43 23.317c0.072 0.082 0.147 0.162 0.223 0.241s0.158 0.156 0.244 0.23c0.021 0 0.045 0 0.071 0.003s0.055 0.004 0.083 0.006 0.057 0.002 0.084 0.001c0.026-0 0.051-0.004 0.074-0.011l-0.002 0v-1.528c-0.054-0.012-0.118-0.019-0.182-0.021l-0.001-0c-0.054-0.002-0.119-0.003-0.185-0.003h-0.001c-0.021 0.067-0.034 0.14-0.039 0.219s-0.007 0.159-0.006 0.24c0.001 0.082 0.003 0.163 0.009 0.245s0.008 0.159 0.008 0.232c-0.078-0.073-0.151-0.148-0.221-0.225l-0.003-0.003c-0.058-0.064-0.127-0.142-0.195-0.22l-0.016-0.019-0.206-0.238c-0.068-0.079-0.138-0.155-0.209-0.23-0.046-0.010-0.1-0.015-0.154-0.015-0.011 0-0.023 0-0.034 0.001l0.002-0c-0.066 0.002-0.127 0.015-0.184 0.039v1.528h0.394c0.014-0.15 0.018-0.307 0.011-0.472-0.007-0.146-0.010-0.317-0.011-0.489v-0c0.080 0.081 0.156 0.162 0.229 0.244s0.145 0.164 0.218 0.246zM20.048 22.040c-0.064 0.183-0.132 0.363-0.205 0.543s-0.141 0.354-0.205 0.524c-0.077-0.171-0.149-0.349-0.218-0.533-0.088-0.238-0.161-0.414-0.24-0.587l0.022 0.054c-0.025-0.006-0.055-0.010-0.086-0.013l-0.003-0c-0.021-0.002-0.046-0.003-0.071-0.003-0.049 0-0.096 0.005-0.142 0.014l0.005-0.001c-0.034 0.007-0.064 0.017-0.092 0.030l0.003-0.001c0.057 0.121 0.113 0.245 0.166 0.373l0.158 0.386c0.053 0.13 0.107 0.257 0.163 0.383s0.117 0.247 0.182 0.361c0.013 0.018 0.031 0.029 0.055 0.031 0.010 0.001 0.022 0.001 0.035 0.001 0.016 0 0.031-0.001 0.046-0.002l-0.002 0 0.089-0.010c0.008-0.001 0.018-0.001 0.028-0.001 0.020 0 0.039 0.002 0.058 0.006l-0.002-0c0.051-0.132 0.104-0.263 0.158-0.391 0.442-1.11 0.551-1.36 0.662-1.609l-0.336 0.85c0.055-0.125 0.107-0.252 0.158-0.378-0.054-0.012-0.117-0.020-0.181-0.021h-0.001c-0.070-0.002-0.139-0.003-0.204-0.003zM21.605 23.464l-0.006-0.129c-0.001-0.024-0.001-0.053-0.001-0.082 0-0.017 0-0.033 0-0.050l-0 0.003c0.001-0.042 0.005-0.083 0.011-0.123l-0.001 0.005c0.027 0.005 0.052 0.007 0.076 0.006s0.047-0.003 0.070-0.007c0.023-0.003 0.046-0.005 0.069-0.007 0.004-0 0.009-0 0.014-0 0.022 0 0.043 0.003 0.063 0.007l-0.002-0c0.033 0.038 0.064 0.078 0.092 0.122l0.083 0.134c0.028 0.045 0.057 0.088 0.088 0.13s0.066 0.079 0.106 0.11h0.394c-0.023-0.052-0.048-0.096-0.077-0.137l0.002 0.003c-0.038-0.055-0.072-0.101-0.107-0.145l0.004 0.006c-0.036-0.046-0.073-0.092-0.11-0.138-0.027-0.033-0.062-0.076-0.096-0.12l-0.010-0.013c0.040-0.012 0.074-0.029 0.105-0.050l-0.001 0.001c0.030-0.021 0.065-0.037 0.102-0.049l0.003-0.001 0.057-0.094c0.064-0.107 0.102-0.235 0.102-0.373 0-0.001 0-0.003 0-0.004v0c-0.006-0.084-0.035-0.16-0.081-0.223l0.001 0.001c-0.045-0.057-0.101-0.103-0.166-0.133l-0.003-0.001c-0.070-0.033-0.151-0.057-0.236-0.068l-0.004-0c-0.085-0.012-0.184-0.020-0.285-0.020h-0c-0.099-0-0.203 0.002-0.308 0.008s-0.209 0.011-0.308 0.016v1.537c0.052 0.012 0.113 0.018 0.182 0.018s0.13-0.006 0.183-0.018c0-0.038-0.001-0.077-0.004-0.119zM21.655 22.494c0.002-0.028 0.011-0.053 0.024-0.076l-0 0.001c0.054 0 0.11 0 0.167-0.001s0.112 0.002 0.164 0.008c0.051 0.005 0.097 0.016 0.138 0.031s0.069 0.039 0.086 0.072c0.020 0.051 0.026 0.094 0.017 0.127-0.008 0.034-0.028 0.063-0.055 0.083l-0 0c-0.030 0.021-0.066 0.037-0.105 0.046l-0.002 0c-0.040 0.009-0.088 0.017-0.136 0.021l-0.003 0c-0.046 0.004-0.099 0.006-0.153 0.006h-0.143c0-0.028-0-0.061-0.002-0.098-0.001-0.033-0.002-0.072-0.002-0.11 0-0.001 0-0.002 0-0.003v0c0-0.038 0.002-0.074 0.007-0.107zM15.781 20.839v0.395h5.867c-0-0.064-0.002-0.127-0.005-0.189l0 0.009c-0.003-0.065 0.022-0.179-0.030-0.18-1.571-0.035-2.492-0.019-2.716-0.019s-1.507-0-1.735-0.002-1.158-0.006-1.382-0.014zM28.722 11.965v1.327h0.644v1.775h-3.196v-1.775h0.542v-1.327h-2.839v1.327h0.669v5.243h-0.669v1.319h2.839v-1.319h-0.542v-2.131h3.196v2.132h-0.644v1.319h2.84v-1.319h-0.568v-5.243h0.568v-1.327h-2.84zM27.516 25.676l0.114-0.007c0.066 0.018 0.131 0.071 0.202 0.142 0.242 0.248 0.482 0.497 0.747 0.718 0.067 0.057 0.222 0.015 0.336 0.018 0-0.11 0.036-0.24-0.010-0.329-0.058-0.113-0.187-0.188-0.277-0.288-0.224-0.251-0.446-0.508-0.669-0.765 0.096-0.072 0.159-0.121 0.21-0.163 0.041-0.033 0.056-0.047 0.070-0.061 0.031-0.030 0.038-0.039 0.046-0.050 0.024-0.048 0.027-0.054 0.028-0.059-0.015-0.054-0.041-0.101-0.075-0.141l0 0c-0.013-0.018-0.027-0.034-0.039-0.051-0.033-0.042-0.067-0.084-0.101-0.126-0.017-0.021-0.031-0.037-0.045-0.053l0.002 0.003c-0.035-0.039-0.040-0.046-0.046-0.052l-0.048-0.050-0.052-0.047c-0.015-0.013-0.033-0.027-0.051-0.041l-0.003-0.002c-0.014-0.010-0.033-0.023-0.052-0.034l-0.005-0.003c-0.049-0.026-0.055-0.029-0.061-0.032-0.050-0.021-0.058-0.023-0.065-0.025-0.053-0.014-0.061-0.015-0.070-0.017-0.053-0.007-0.064-0.007-0.075-0.007-0.056 0-0.069 0.002-0.082 0.003-0.081 0.011-0.154 0.030-0.224 0.057l0.006-0.002c-0.001 0-0.003 0-0.004 0-0.030 0-0.058-0.004-0.086-0.011l0.002 0.001c-0.022-0.007-0.045-0.015-0.069-0.021 0.022-0.031 0.063-0.093 0.103-0.155l0.020-0.034c0.012-0.019 0.026-0.043 0.038-0.067l0.002-0.005c0.021-0.039 0.034-0.084 0.035-0.133v-0c-0.001-0.024-0.005-0.046-0.013-0.067l0 0.001c-0.036-0.090-0.125-0.181-0.279-0.334-0.221-0.215-0.466-0.406-0.708-0.597-0.050-0.039-0.107-0.077-0.166-0.112l-0.008-0.004c-0.080-0.047-0.147-0.085-0.213-0.125-0.042-0.137-0.097-0.265-0.189-0.296-0.142-0.050-0.254-0.096-0.363-0.146l0.025 0.011c-0.029-0.013-0.057-0.029-0.085-0.043-0.103-0.048-0.179-0.088-0.255-0.13l0.021 0.011c-0.058-0.032-0.114-0.067-0.17-0.102-0.035-0.021-0.071-0.042-0.106-0.064-0.11-0.072-0.198-0.134-0.283-0.198l0.015 0.011c-0.495-0.372-0.923-0.809-1.35-1.248-1.064-1.095-2.14-2.179-3.216-3.261-0.392-0.395-0.786-0.788-1.178-1.182 1.034-1.016 2.069-2.031 3.1-3.050 1.221-1.205 2.416-2.442 3.667-3.618 0.162-0.153 0.317-0.316 0.474-0.476 0.063-0.066 0.127-0.131 0.192-0.192 0.046-0.046 0.095-0.091 0.142-0.135 0.099-0.092 0.204-0.181 0.315-0.264l0.010-0.007c0.047-0.035 0.096-0.067 0.145-0.1 0.041 0 0.071-0.002 0.101-0.002 0.059 0.007 0.073 0.008 0.085 0.011 0.022 0.006 0.044 0.013 0.063 0.021 0.060 0.032 0.066 0.036 0.071 0.040 0.053 0.039 0.062 0.048 0.070 0.056 0.059-0.012 0.103-0.080 0.158-0.164 0.506-0.748 1.727-2.34 1.727-2.34s0.248-0.435-0.225-0.114c-0.473 0.318-2.594 1.896-2.594 1.896 0.046 0.006 0.057 0.009 0.068 0.013 0.054 0.025 0.059 0.028 0.063 0.031 0.066 0.065 0.083 0.101 0.099 0.139-0.029 0.046-0.058 0.086-0.089 0.123l0.001-0.002c-0.032 0.038-0.062 0.071-0.092 0.103l0.002-0.002c-0.149 0.16-0.299 0.318-0.45 0.475l-0.067 0.069c-0.143 0.148-0.287 0.295-0.432 0.44-0.562 0.557-1.131 1.108-1.696 1.661-1.735 1.696-3.47 3.392-5.205 5.089-1.035-1.039-2.069-2.080-3.106-3.116-1.214-1.213-2.458-2.401-3.642-3.643-0.153-0.161-0.318-0.315-0.48-0.471-0.066-0.062-0.132-0.126-0.193-0.19-0.046-0.046-0.091-0.094-0.136-0.142-0.051-0.053-0.101-0.109-0.149-0.166l-0.004-0.005c-0.074-0.087-0.146-0.183-0.213-0.282l-0.007-0.011c0.001-0.039-0.001-0.070 0-0.099 0.008-0.058 0.009-0.071 0.012-0.083 0.007-0.024 0.014-0.045 0.023-0.064l-0.001 0.002c0.033-0.057 0.037-0.064 0.041-0.069 0.019-0.025 0.037-0.047 0.058-0.068l-0 0c-0.011-0.060-0.081-0.103-0.165-0.158-0.755-0.505-2.361-1.722-2.361-1.722s-0.44-0.248-0.119 0.221c0.319 0.468 1.902 2.57 1.902 2.57 0.003-0.025 0.008-0.048 0.015-0.070l-0.001 0.002c0.009-0.024 0.020-0.044 0.033-0.063l-0.001 0.001c0.039-0.042 0.086-0.074 0.14-0.096l0.003-0.001c0.064 0.041 0.093 0.064 0.123 0.088 0.055 0.046 0.079 0.068 0.103 0.090 0.16 0.148 0.32 0.297 0.478 0.447l0.070 0.067c0.149 0.142 0.297 0.284 0.443 0.429 0.561 0.558 1.116 1.123 1.671 1.686 1.721 1.737 3.442 3.475 5.164 5.212l-0.234 0.229c-1.553 1.52-3.103 3.046-4.66 4.561-0.352 0.342-0.707 0.671-1.119 0.928-0.086 0.053-0.151 0.091-0.217 0.127-0.183 0.101-0.396 0.193-0.619 0.264l-0.025 0.007c-0.071 0.022-0.13 0.046-0.187 0.073l0.009-0.004c-0.030 0.014-0.052 0.026-0.075 0.038-0.025 0.013-0.052 0.026-0.077 0.042-0.040 0.023-0.079 0.046-0.118 0.072-0.079 0.053-0.111 0.075-0.143 0.099-0.137 0.1-0.234 0.175-0.333 0.25-0.068 0.050-0.098 0.073-0.128 0.095-0.046 0.033-0.092 0.065-0.138 0.096l0.073 0.078c0.059 0.063 0.105 0.113 0.166 0.177-0.038-0.004-0.081-0.007-0.125-0.007-0.069 0-0.136 0.006-0.202 0.018l0.007-0.001c-0.123 0.026-0.232 0.068-0.331 0.126l0.005-0.003c-0.052 0.030-0.096 0.058-0.137 0.088l0.005-0.003c-0.025 0.018-0.039 0.029-0.055 0.039-0.133 0.103-0.243 0.205-0.356 0.297l-0.067 0.053-0.052 0.044c-0.035 0.030-0.067 0.060-0.097 0.092l-0 0c-0.042 0.044-0.069 0.075-0.096 0.105-0.086 0.103-0.149 0.185-0.214 0.268-0.024 0.030-0.047 0.060-0.071 0.089-0.049 0.060-0.096 0.113-0.145 0.164l0.001-0.001c-0.162 0.161-0.231 0.279 0.011 0.405 0.092 0.048 0.147 0.098 0.168 0.15l0.009 0.112c-0.018 0.065-0.070 0.129-0.142 0.2-0.25 0.24-0.501 0.48-0.722 0.742-0.057 0.067-0.013 0.218-0.016 0.33 0.113-0.001 0.245 0.033 0.335-0.013 0.114-0.058 0.189-0.185 0.289-0.275 0.253-0.224 0.512-0.444 0.771-0.665 0.075 0.093 0.125 0.155 0.168 0.205 0.034 0.040 0.048 0.054 0.062 0.068 0.031 0.030 0.041 0.037 0.051 0.045 0.049 0.023 0.055 0.026 0.061 0.026 0.055-0.016 0.102-0.041 0.143-0.075l-0.001 0c0.017-0.013 0.034-0.027 0.051-0.039 0.043-0.033 0.085-0.066 0.127-0.1l0.051-0.043 0.052-0.046c0.018-0.017 0.034-0.032 0.051-0.048l-0 0 0.047-0.051c0.036-0.045 0.039-0.050 0.043-0.054 0.032-0.046 0.035-0.052 0.038-0.057 0.026-0.048 0.029-0.054 0.032-0.060 0.020-0.050 0.022-0.057 0.024-0.064 0.013-0.051 0.014-0.060 0.016-0.069 0.006-0.053 0.006-0.064 0.006-0.074-0-0.054-0.003-0.068-0.004-0.080-0.008-0.056-0.013-0.073-0.017-0.090-0.013-0.049-0.027-0.090-0.044-0.129l0.002 0.006c-0-0.003-0-0.006-0-0.010 0-0.028 0.003-0.055 0.009-0.080l-0 0.002c0.007-0.021 0.016-0.044 0.021-0.067l0.095 0.060c0.047 0.029 0.075 0.045 0.099 0.059 0.030 0.017 0.053 0.029 0.075 0.039 0.056 0.025 0.097 0.035 0.136 0.034 0.024-0.001 0.047-0.006 0.068-0.014l-0.002 0c0.091-0.037 0.183-0.126 0.336-0.279 0.217-0.219 0.409-0.462 0.6-0.702 0.043-0.054 0.081-0.113 0.117-0.172 0.047-0.079 0.085-0.146 0.124-0.211 0.139-0.043 0.269-0.098 0.3-0.189 0.040-0.115 0.085-0.226 0.134-0.333 0.013-0.029 0.029-0.056 0.043-0.084 0.038-0.078 0.077-0.156 0.119-0.231 0.032-0.057 0.067-0.112 0.102-0.168 0.021-0.035 0.042-0.071 0.064-0.105 0.060-0.090 0.122-0.178 0.187-0.265 0.373-0.491 0.813-0.916 1.255-1.34 1.102-1.058 2.194-2.128 3.283-3.197 0.41-0.401 0.818-0.804 1.227-1.205l0.188 0.19c1.53 1.542 3.065 3.082 4.59 4.629 0.345 0.349 0.675 0.702 0.933 1.109 0.053 0.085 0.091 0.149 0.127 0.215 0.101 0.181 0.192 0.391 0.262 0.611l0.007 0.024c0.018 0.060 0.042 0.118 0.069 0.176 0.013 0.030 0.026 0.051 0.038 0.074 0.041 0.077 0.079 0.14 0.119 0.201l-0.005-0.009c0.053 0.079 0.075 0.11 0.098 0.142 0.1 0.135 0.175 0.232 0.251 0.33l0.095 0.127c0.033 0.046 0.066 0.091 0.096 0.137l0.080-0.071c0.065-0.057 0.117-0.103 0.182-0.161-0.005 0.040-0.008 0.087-0.008 0.134 0 0.064 0.006 0.126 0.016 0.187l-0.001-0.006c0.025 0.121 0.067 0.229 0.125 0.327l-0.003-0.005c0.026 0.046 0.054 0.089 0.085 0.131 0.018 0.025 0.029 0.038 0.039 0.054 0.104 0.131 0.206 0.241 0.298 0.353l0.053 0.067 0.044 0.051c0.029 0.034 0.061 0.067 0.093 0.098 0.044 0.042 0.075 0.069 0.105 0.095 0.103 0.085 0.188 0.149 0.271 0.213 0.031 0.024 0.060 0.047 0.090 0.071 0.080 0.066 0.124 0.104 0.164 0.144 0.162 0.16 0.282 0.229 0.412-0.007 0.050-0.090 0.101-0.143 0.155-0.163zM12.948 14.17v-2.204h-7.688v2.204h1.372v-0.87h1.653v5.237h-0.9v1.317h3.447v-1.317h-0.9v-5.237h1.644v0.87h1.372z"></path>
</symbol>
<symbol id="icon-logo" viewBox="0 0 39 32">
<title>logo</title>
<path d="M15.42 4.445c0.056 0 0.11 0.004 0.163 0.013s0.098 0.023 0.135 0.042c-0.014 0.258-0.021 0.56-0.021 0.864 0 0.094 0.001 0.188 0.002 0.282l-0-0.014c0.001 0.084 0.002 0.183 0.002 0.283 0 0.308-0.008 0.614-0.022 0.919l0.002-0.043h-0.52v-1.442c-0.060 0.059-0.113 0.125-0.157 0.198l-0.002 0.004c-0.048 0.080-0.097 0.163-0.146 0.248s-0.102 0.17-0.157 0.253c-0.054 0.083-0.113 0.158-0.178 0.225-0.073-0.065-0.137-0.138-0.192-0.218l-0.003-0.004c-0.048-0.068-0.099-0.149-0.147-0.233l-0.009-0.016c-0.074-0.133-0.123-0.217-0.174-0.299l0.025 0.044c-0.054-0.089-0.111-0.166-0.175-0.237l0.001 0.002v1.475c-0.068 0.016-0.145 0.025-0.225 0.025-0.016 0-0.033-0-0.049-0.001l0.002 0c-0.047-0.002-0.090-0.009-0.133-0.019l0.005 0.001c-0.033-0.007-0.062-0.023-0.085-0.043l0 0c0-0.185-0.002-0.373-0.005-0.565-0.002-0.080-0.005-0.282-0.008-0.483l-0.001-0.092c-0.002-0.114-0.002-0.25-0.002-0.385 0-0.064 0-0.129 0.001-0.193l-0 0.010c0.001-0.187 0.007-0.369 0.015-0.544 0.037-0.009 0.078-0.014 0.123-0.015 0.003 0 0.006 0 0.010 0 0.098 0 0.196 0.004 0.293 0.011l-0.013-0.001c0.051 0.004 0.099 0.005 0.146 0.005 0.097 0.148 0.194 0.303 0.289 0.462 0.096 0.16 0.199 0.314 0.31 0.463 0.056-0.064 0.108-0.136 0.155-0.216s0.097-0.162 0.144-0.247c0.047-0.084 0.095-0.167 0.144-0.246s0.1-0.152 0.156-0.216c0.037-0.018 0.083-0.032 0.137-0.042s0.11-0.013 0.165-0.013zM18.484 6.082c-0.117 0.021-0.253 0.032-0.391 0.032-0.102 0-0.203-0.006-0.301-0.019l0.012 0.001c-0.019 0.052-0.030 0.113-0.030 0.176 0 0 0 0 0 0.001v-0c0 0.061 0.003 0.122 0.009 0.182s0.010 0.122 0.012 0.182c0.001 0.061-0.008 0.12-0.029 0.177h-0.539c-0.002-0.38-0.009-0.771-0.020-1.172-0.004-0.126-0.006-0.274-0.006-0.423 0-0.263 0.007-0.525 0.021-0.785l-0.002 0.036c0.219-0.009 0.433-0.017 0.643-0.024 0.041-0.002 0.089-0.003 0.137-0.003 0.157 0 0.311 0.010 0.462 0.030l-0.018-0.002c0.178 0.024 0.334 0.070 0.467 0.139s0.232 0.175 0.298 0.317c0.072 0.218 0.087 0.406 0.044 0.566s-0.137 0.293-0.262 0.385l-0.002 0.001c-0.132 0.098-0.3 0.167-0.505 0.202zM17.794 4.755v0.45c0 0.14 0.002 0.278 0.004 0.416 0.112 0.012 0.227 0.012 0.347 0 0.115-0.009 0.221-0.039 0.317-0.087l-0.005 0.002c0.089-0.046 0.155-0.113 0.195-0.201s0.042-0.207 0.002-0.357c-0.022-0.055-0.068-0.099-0.138-0.134-0.068-0.034-0.147-0.061-0.229-0.076l-0.005-0.001c-0.078-0.015-0.17-0.025-0.263-0.027l-0.002-0c-0.010-0-0.022-0-0.034-0-0.067 0-0.133 0.005-0.197 0.016l0.007-0.001zM21.016 4.95c-0.004 0.158-0.007 0.315-0.008 0.473-0.002 0.094-0.003 0.204-0.003 0.315 0 0.053 0 0.106 0.001 0.16l-0-0.008c0.001 0.153 0.007 0.299 0.015 0.439 0.087 0.009 0.182 0.015 0.285 0.015s0.207 0.002 0.312 0.002 0.209 0.001 0.312 0.002 0.198 0.006 0.285 0.015c0.009 0.029 0.017 0.063 0.020 0.098l0 0.002c0.004 0.038 0.007 0.081 0.007 0.125s-0.003 0.088-0.007 0.131l0-0.005c-0.004 0.040-0.012 0.074-0.021 0.101h-1.735c0-0.188-0.002-0.379-0.005-0.575s-0.006-0.391-0.009-0.59c-0.001-0.112-0.002-0.245-0.002-0.377 0-0.075 0-0.149 0.001-0.224l-0 0.011c0.001-0.195 0.007-0.387 0.016-0.574 0.040-0.009 0.083-0.018 0.13-0.026 0.047-0.008 0.094-0.013 0.143-0.015s0.095 0 0.14 0.006c0.046 0.005 0.089 0.018 0.128 0.036 0 0.15-0.002 0.305-0.005 0.463zM24.492 6.332c0.063-0.032 0.113-0.082 0.143-0.144l0.001-0.002v-0.034c-0.017-0.069-0.057-0.126-0.111-0.165l-0.001-0.001c-0.052-0.036-0.113-0.065-0.179-0.082l-0.004-0.001c-0.058-0.016-0.129-0.030-0.203-0.040l-0.009-0.001c-0.079-0.011-0.148-0.026-0.215-0.045l0.011 0.003c-0.142-0.034-0.267-0.090-0.378-0.164l0.004 0.003c-0.099-0.065-0.182-0.146-0.247-0.241l-0.002-0.003c-0.070-0.17-0.087-0.318-0.051-0.443 0.037-0.126 0.106-0.227 0.21-0.308 0.103-0.079 0.231-0.137 0.382-0.173 0.12-0.030 0.257-0.048 0.398-0.048 0.023 0 0.047 0 0.070 0.001l-0.003-0c0.158 0.005 0.311 0.032 0.458 0.077s0.27 0.113 0.368 0.199c-0.042 0.073-0.093 0.143-0.15 0.209s-0.118 0.119-0.181 0.156c-0.035-0.017-0.081-0.039-0.136-0.063-0.109-0.049-0.236-0.088-0.369-0.113l-0.011-0.002c-0.069-0.012-0.135-0.015-0.198-0.008-0.064 0.006-0.123 0.025-0.175 0.054l0.002-0.001c-0.053 0.031-0.094 0.076-0.118 0.13l-0.001 0.002c0.028 0.066 0.069 0.121 0.125 0.163s0.118 0.076 0.189 0.101c0.070 0.025 0.145 0.047 0.226 0.064s0.16 0.036 0.236 0.055c0.077 0.018 0.15 0.040 0.219 0.066 0.067 0.024 0.126 0.058 0.176 0.102l-0.001-0.001c0.043 0.018 0.076 0.042 0.1 0.073s0.046 0.055 0.066 0.074c0.063 0.146 0.087 0.28 0.071 0.401-0.015 0.121-0.063 0.229-0.135 0.317l0.001-0.001c-0.073 0.090-0.17 0.162-0.289 0.214s-0.252 0.085-0.398 0.094c-0.041 0.003-0.088 0.004-0.136 0.004-0.093 0-0.185-0.006-0.274-0.018l0.011 0.001c-0.126-0.017-0.239-0.043-0.347-0.080l0.013 0.004c-0.107-0.036-0.2-0.078-0.286-0.128l0.007 0.004c-0.091-0.052-0.168-0.104-0.241-0.16l0.005 0.004c0.042-0.055 0.094-0.11 0.153-0.165s0.12-0.107 0.183-0.161c0.041 0.025 0.092 0.053 0.145 0.078l0.012 0.005c0.064 0.031 0.133 0.060 0.208 0.088 0.074 0.027 0.152 0.051 0.232 0.069s0.157 0.027 0.229 0.023c0.072-0.003 0.14-0.020 0.201-0.050l-0.003 0.001zM15.125 8.296c0.328 0.012 1.693 0.019 2.026 0.021s2.215 0.002 2.543 0.002c0.328 0 1.679-0.024 3.982 0.029 0.076 0.001 0.039 0.172 0.043 0.27s0.006 0.188 0.006 0.271h-8.6v-0.593zM15.407 25.63c0.099 0.101 0.175 0.224 0.23 0.37s0.082 0.319 0.082 0.52c-0.020 0.189-0.062 0.356-0.128 0.502s-0.15 0.273-0.254 0.383c-0.104 0.11-0.227 0.2-0.369 0.275-0.142 0.074-0.3 0.131-0.473 0.172-0.070-0.008-0.152-0.012-0.234-0.012-0.019 0-0.038 0-0.056 0.001l0.003-0c-0.1 0.003-0.2 0.005-0.301 0.008-0.1 0.002-0.199 0.002-0.293-0.002-0.096-0.003-0.187-0.016-0.275-0.037l0.009 0.002v-0.626c-0-0.015-0-0.032-0-0.050 0-0.449 0.006-0.898 0.018-1.344l-0.001 0.066c0.007-0.219 0.014-0.428 0.024-0.626 0-0.005 0.001-0.012 0.004-0.019 0.005-0.015 0.017-0.022 0.037-0.022 0.083-0.002 0.181-0.004 0.279-0.004 0.116 0 0.232 0.002 0.347 0.006l-0.017-0c0.195 0.006 0.379 0.026 0.549 0.059s0.325 0.079 0.464 0.14c0.139 0.060 0.257 0.141 0.356 0.241l0 0zM15.103 26.705c0.038-0.139 0.027-0.305-0.035-0.498-0.083-0.154-0.221-0.268-0.411-0.341s-0.42-0.101-0.688-0.082c-0.019 0.215-0.030 0.465-0.030 0.717 0 0.005 0 0.011 0 0.016v-0.001c0 0.256 0.010 0.5 0.030 0.733 0.184 0.018 0.357 0.011 0.517-0.023 0.154-0.029 0.289-0.093 0.403-0.183l-0.002 0.002c0.107-0.088 0.179-0.201 0.217-0.339zM17.839 27.129c-0.107-0.123-0.213-0.246-0.319-0.37s-0.218-0.246-0.335-0.367c0 0.243 0.005 0.488 0.015 0.735s0.005 0.484-0.015 0.709h-0.577v-2.296c0.079-0.035 0.172-0.056 0.269-0.059l0.001-0c0.096-0.003 0.187 0.003 0.273 0.022 0.103 0.113 0.206 0.227 0.305 0.345l0.302 0.359c0.101 0.12 0.204 0.24 0.31 0.36 0.104 0.119 0.214 0.233 0.328 0.344 0-0.111-0.004-0.226-0.012-0.35-0.007-0.107-0.012-0.236-0.013-0.365l-0-0.003c-0.001-0.123 0.002-0.243 0.009-0.361s0.027-0.228 0.058-0.329c0.083 0 0.174 0.002 0.273 0.005s0.189 0.014 0.27 0.032v2.296c-0.031 0.009-0.066 0.014-0.107 0.015-0.011 0-0.024 0-0.037 0-0.031 0-0.061-0.001-0.091-0.003l0.004 0c-0.052-0.003-0.094-0.006-0.136-0.009l0.014 0.001c-0.031-0.003-0.067-0.005-0.103-0.005-0.001 0-0.001 0-0.002 0h0c-0.128-0.111-0.244-0.224-0.355-0.342l-0.002-0.003c-0.112-0.12-0.221-0.24-0.328-0.362zM21.677 25.21c0.096 0 0.195 0.002 0.299 0.005s0.192 0.015 0.267 0.032c-0.075 0.19-0.152 0.38-0.231 0.568 0.343-0.939 0.182-0.563 0.022-0.187l-0.5 1.327c-0.080 0.193-0.157 0.389-0.232 0.588-0.025-0.006-0.054-0.009-0.083-0.009-0.014 0-0.028 0.001-0.042 0.002l0.002-0c-0.044 0.005-0.088 0.009-0.13 0.015-0.042 0.004-0.081 0.004-0.116 0.001-0.034-0.002-0.063-0.020-0.081-0.046l-0-0c-0.096-0.172-0.185-0.353-0.267-0.542s-0.162-0.381-0.239-0.576c-0.077-0.194-0.154-0.387-0.232-0.58s-0.158-0.38-0.243-0.561c0.038-0.018 0.081-0.032 0.13-0.043 0.061-0.013 0.131-0.020 0.203-0.020 0.037 0 0.073 0.002 0.108 0.006l-0.004-0c0.049 0.005 0.093 0.012 0.13 0.020 0.113 0.257 0.219 0.524 0.32 0.802 0.101 0.277 0.207 0.545 0.32 0.801 0.094-0.256 0.194-0.519 0.301-0.788s0.207-0.541 0.301-0.815zM23.959 27.35c0.004 0.063 0.005 0.122 0.005 0.178-0.077 0.018-0.166 0.027-0.268 0.027-0.005 0-0.010 0-0.016 0-0.089 0-0.176-0.010-0.26-0.029l0.008 0.002v-2.308c0.146-0.007 0.297-0.015 0.452-0.024 0.121-0.007 0.263-0.012 0.406-0.012 0.016 0 0.032 0 0.049 0h-0.002c0.146 0.001 0.285 0.012 0.418 0.030s0.249 0.053 0.351 0.103c0.102 0.050 0.185 0.117 0.248 0.202s0.103 0.197 0.117 0.334c0 0.003 0 0.007 0 0.011 0 0.204-0.056 0.396-0.152 0.56l0.003-0.005c-0.028 0.047-0.056 0.094-0.083 0.142-0.058 0.018-0.109 0.043-0.153 0.074s-0.094 0.056-0.149 0.073l-0.004 0.001c0.049 0.066 0.1 0.132 0.154 0.2s0.109 0.138 0.162 0.208c0.053 0.069 0.103 0.139 0.15 0.208s0.083 0.138 0.111 0.202h-0.577c-0.059-0.048-0.11-0.102-0.153-0.163l-0.002-0.003c-0.039-0.053-0.081-0.117-0.121-0.182l-0.007-0.013-0.121-0.2c-0.043-0.069-0.087-0.129-0.135-0.185l0.001 0.002c-0.027-0.007-0.058-0.011-0.090-0.011-0.007 0-0.014 0-0.021 0.001l0.001-0c-0.039 0.003-0.074 0.006-0.108 0.011l0.008-0.001c-0.034 0.005-0.068 0.008-0.103 0.010-0.006 0-0.014 0.001-0.021 0.001-0.032 0-0.063-0.004-0.093-0.011l0.003 0.001c-0.008 0.056-0.014 0.116-0.015 0.178s0 0.127 0.002 0.194c0.002 0.066 0.005 0.131 0.008 0.194zM24.032 25.892c-0.006 0.047-0.010 0.101-0.010 0.156 0 0.002 0 0.003 0 0.005v-0c0 0.058 0.001 0.114 0.003 0.17s0.003 0.106 0.003 0.147h0.21c0.076 0 0.15-0.003 0.224-0.008s0.142-0.016 0.205-0.031c0.060-0.013 0.112-0.037 0.158-0.070l-0.001 0.001c0.040-0.030 0.069-0.073 0.081-0.123l0-0.001c0.013-0.050 0.005-0.114-0.025-0.191-0.027-0.050-0.071-0.089-0.124-0.108l-0.002-0c-0.059-0.023-0.126-0.039-0.202-0.047-0.065-0.008-0.141-0.012-0.217-0.012-0.008 0-0.016 0-0.024 0h0.001c-0.084 0.002-0.166 0.002-0.245 0.002-0.019 0.032-0.032 0.071-0.035 0.112l-0 0.001zM15.422 23.407c0.328 0.012 1.693 0.019 2.026 0.021s2.215 0.003 2.543 0.003 1.679-0.024 3.982 0.028c0.076 0.002 0.039 0.172 0.043 0.27s0.007 0.188 0.007 0.271h-8.601v-0.593z"></path>
<path d="M34.392 10.074h4.163v1.993h-0.833v7.877h0.833v1.981h-4.163v-1.981h0.945v-3.204h-4.684v3.204h0.795v1.981h-4.163v-1.981h0.982v-7.877h-0.982v-1.993h4.163v1.993h-0.795v2.667h4.684v-2.667h-0.945v-1.993zM32.623 30.673c-0.079 0.031-0.153 0.111-0.227 0.246-0.191 0.355-0.367 0.251-0.604 0.010-0.075-0.073-0.153-0.144-0.235-0.211l-0.006-0.005c-0.032-0.027-0.075-0.062-0.118-0.097l-0.013-0.010c-0.122-0.097-0.246-0.192-0.397-0.32-0.056-0.048-0.106-0.095-0.155-0.143l0 0c-0.047-0.046-0.091-0.094-0.134-0.144l-0.003-0.003-0.065-0.078c-0.025-0.033-0.052-0.067-0.079-0.1-0.135-0.167-0.284-0.332-0.436-0.53-0.017-0.024-0.033-0.044-0.058-0.082-0.040-0.055-0.081-0.119-0.119-0.186l-0.006-0.011c-0.039-0.069-0.073-0.142-0.108-0.23-0.027-0.071-0.052-0.156-0.069-0.243l-0.002-0.010c-0.014-0.082-0.023-0.176-0.023-0.272 0-0.071 0.004-0.14 0.013-0.208l-0.001 0.008c-0.096 0.088-0.172 0.156-0.266 0.242-0.037 0.033-0.074 0.066-0.118 0.106-0.045-0.069-0.093-0.138-0.141-0.206-0.032-0.046-0.066-0.091-0.14-0.191-0.11-0.147-0.22-0.292-0.367-0.496-0.034-0.047-0.066-0.095-0.145-0.212-0.028-0.043-0.063-0.1-0.097-0.159l-0.009-0.017c-0.022-0.037-0.041-0.076-0.061-0.114-0.017-0.034-0.035-0.066-0.055-0.111-0.034-0.072-0.069-0.16-0.097-0.25l-0.004-0.015c-0.078-0.26-0.161-0.476-0.257-0.684l0.013 0.033c-0.044-0.096-0.091-0.191-0.15-0.304-0.052-0.098-0.108-0.195-0.185-0.323-0.379-0.611-0.863-1.142-1.368-1.666-2.235-2.324-4.486-4.637-6.728-6.954l-0.276-0.285c-0.6 0.603-1.197 1.209-1.797 1.811-1.598 1.605-3.198 3.212-4.814 4.803-0.648 0.638-1.294 1.276-1.84 2.013-0.096 0.13-0.187 0.263-0.274 0.399-0.033 0.052-0.063 0.105-0.094 0.158-0.051 0.083-0.102 0.167-0.15 0.252-0.062 0.113-0.118 0.23-0.174 0.347-0.020 0.043-0.043 0.083-0.062 0.127-0.072 0.161-0.138 0.328-0.197 0.5-0.045 0.136-0.236 0.22-0.44 0.283-0.058 0.099-0.113 0.198-0.182 0.317-0.053 0.090-0.108 0.177-0.17 0.259-0.281 0.359-0.562 0.725-0.879 1.054-0.225 0.23-0.36 0.363-0.494 0.419-0.029 0.011-0.062 0.018-0.096 0.020l-0.001 0c-0.057 0.002-0.117-0.014-0.199-0.051-0.045-0.021-0.081-0.040-0.116-0.061l0.006 0.003c-0.069-0.040-0.116-0.070-0.163-0.1l0.018 0.011-0.14-0.089c-0.008 0.034-0.020 0.068-0.030 0.101-0.005 0.016-0.008 0.031-0.013 0.131 0.019 0.046 0.035 0.091 0.060 0.185 0.006 0.025 0.013 0.050 0.025 0.135 0.002 0.019 0.005 0.039 0.006 0.121 0 0.015 0 0.031-0.009 0.111-0.002 0.013-0.004 0.026-0.023 0.103-0.003 0.011-0.006 0.022-0.035 0.096-0.004 0.009-0.008 0.018-0.046 0.091-0.004 0.008-0.009 0.015-0.055 0.085-0.005 0.007-0.010 0.014-0.063 0.081-0.005 0.006-0.010 0.012-0.069 0.077-0.024 0.025-0.048 0.048-0.072 0.071l-0.001 0.001c-0.009 0.008-0.017 0.017-0.076 0.069l-0.075 0.064c-0.061 0.050-0.123 0.1-0.186 0.15-0.025 0.018-0.050 0.040-0.075 0.059-0.058 0.050-0.128 0.089-0.204 0.112l-0.004 0.001c-0.008-0.001-0.017-0.005-0.089-0.040-0.015-0.012-0.031-0.022-0.075-0.067-0.020-0.021-0.041-0.042-0.092-0.102-0.065-0.078-0.146-0.179-0.225-0.28l-0.021-0.028c-0.379 0.334-0.759 0.665-1.13 1-0.147 0.135-0.257 0.326-0.424 0.413-0.132 0.068-0.326 0.018-0.491 0.019 0.004-0.168-0.062-0.395 0.023-0.496 0.325-0.395 0.693-0.755 1.059-1.115 0.105-0.106 0.182-0.203 0.209-0.3l-0.013-0.168c-0.032-0.079-0.112-0.153-0.247-0.226-0.354-0.189-0.254-0.366-0.016-0.608 0.059-0.061 0.114-0.125 0.212-0.245 0.035-0.044 0.071-0.089 0.105-0.134 0.095-0.124 0.188-0.249 0.314-0.402 0.039-0.047 0.079-0.093 0.14-0.158 0.046-0.049 0.094-0.094 0.143-0.138l0.076-0.066 0.099-0.080c0.165-0.138 0.326-0.29 0.521-0.445 0.024-0.017 0.044-0.034 0.081-0.059 0.122-0.092 0.26-0.172 0.409-0.234l0.012-0.005c0.071-0.029 0.146-0.051 0.251-0.074 0.086-0.016 0.184-0.026 0.285-0.026 0.065 0 0.129 0.004 0.191 0.011l-0.008-0.001c-0.089-0.096-0.157-0.172-0.243-0.266-0.084-0.093-0.119-0.132-0.154-0.17l0.047 0.052c0.068-0.047 0.135-0.095 0.202-0.145 0.045-0.033 0.090-0.067 0.189-0.143 0.145-0.113 0.288-0.225 0.488-0.375 0.047-0.035 0.094-0.067 0.209-0.148 0.057-0.039 0.115-0.074 0.174-0.109 0.037-0.022 0.075-0.042 0.113-0.062 0.033-0.018 0.066-0.037 0.109-0.057 0.086-0.040 0.173-0.077 0.262-0.104 0.363-0.116 0.676-0.254 0.97-0.42l-0.026 0.013c0.096-0.054 0.192-0.111 0.318-0.19 0.603-0.387 1.125-0.881 1.639-1.395 2.283-2.277 4.554-4.569 6.831-6.853l0.344-0.344c-2.524-2.609-5.046-5.221-7.569-7.83-0.815-0.845-1.627-1.694-2.45-2.533-0.213-0.217-0.431-0.431-0.649-0.644-0.034-0.034-0.068-0.067-0.102-0.1-0.232-0.226-0.466-0.449-0.701-0.672-0.035-0.033-0.070-0.066-0.15-0.136-0.042-0.035-0.086-0.069-0.18-0.131-0.057 0.023-0.111 0.049-0.208 0.145-0.005 0.007-0.011 0.013-0.048 0.093-0.009 0.029-0.017 0.063-0.020 0.099l-0 0.002s-2.32-3.158-2.787-3.861c-0.471-0.704 0.174-0.331 0.174-0.331s2.355 1.827 3.461 2.587c0.124 0.083 0.226 0.148 0.242 0.237-0.012 0.012-0.024 0.025-0.084 0.103-0.018 0.028-0.038 0.062-0.057 0.097l-0.004 0.007c-0.012 0.026-0.023 0.057-0.031 0.089l-0.001 0.004c-0.005 0.018-0.007 0.039-0.019 0.125-0.001 0.044 0.002 0.089 0.001 0.149 0.047 0.073 0.095 0.145 0.146 0.215 0.056 0.078 0.115 0.153 0.176 0.226 0.072 0.089 0.145 0.174 0.224 0.258 0.066 0.071 0.132 0.143 0.2 0.213 0.091 0.096 0.187 0.192 0.284 0.286 0.237 0.235 0.478 0.466 0.702 0.708 1.735 1.866 3.56 3.651 5.339 5.473 1.52 1.558 3.036 3.12 4.552 4.682 2.542-2.55 5.086-5.098 7.629-7.647 0.829-0.829 1.663-1.657 2.487-2.494 0.213-0.218 0.424-0.439 0.633-0.661 0.032-0.035 0.066-0.069 0.098-0.104 0.222-0.237 0.441-0.474 0.66-0.714 0.032-0.035 0.064-0.072 0.132-0.153 0.035-0.043 0.069-0.088 0.128-0.183-0.023-0.057-0.050-0.111-0.145-0.208-0.007-0.005-0.014-0.010-0.093-0.047-0.029-0.009-0.063-0.016-0.098-0.019l-0.002-0s3.109-2.371 3.803-2.849c0.693-0.482 0.33 0.172 0.33 0.172s-1.789 2.392-2.53 3.515c-0.081 0.126-0.145 0.229-0.232 0.246-0.031-0.029-0.064-0.056-0.099-0.082l-0.003-0.002c-0.029-0.019-0.063-0.039-0.098-0.057l-0.006-0.003c-0.026-0.011-0.056-0.022-0.088-0.031l-0.004-0.001c-0.018-0.005-0.039-0.006-0.125-0.017-0.043-0.001-0.089 0.003-0.148 0.003-0.071 0.049-0.143 0.098-0.212 0.15-0.077 0.057-0.15 0.118-0.222 0.179-0.087 0.074-0.17 0.148-0.254 0.229-0.069 0.067-0.14 0.134-0.209 0.203-0.095 0.092-0.189 0.189-0.281 0.288-0.231 0.242-0.458 0.487-0.696 0.716-1.833 1.768-3.585 3.624-5.375 5.436-1.512 1.531-3.029 3.056-4.545 4.582 0.575 0.593 1.153 1.184 1.727 1.776 1.576 1.627 3.154 3.256 4.715 4.9 0.626 0.66 1.253 1.317 1.979 1.875 0.128 0.098 0.259 0.191 0.393 0.281 0.050 0.034 0.104 0.064 0.155 0.096 0.082 0.052 0.164 0.105 0.249 0.153 0.112 0.064 0.227 0.123 0.343 0.18 0.042 0.021 0.082 0.044 0.125 0.064 0.16 0.075 0.324 0.143 0.494 0.204 0.135 0.047 0.216 0.24 0.277 0.445 0.098 0.060 0.195 0.117 0.313 0.188 0.088 0.054 0.175 0.11 0.255 0.174 0.354 0.287 0.714 0.574 1.037 0.897 0.226 0.229 0.356 0.366 0.41 0.501 0.011 0.029 0.018 0.063 0.019 0.098v0c0.001 0.057-0.015 0.118-0.052 0.2-0.022 0.045-0.041 0.081-0.062 0.116l0.004-0.006c-0.021 0.036-0.045 0.076-0.089 0.145-0.028 0.043-0.057 0.089-0.091 0.14 0.034 0.008 0.067 0.021 0.1 0.032 0.015 0.005 0.031 0.009 0.13 0.015 0.046-0.018 0.091-0.034 0.184-0.058 0.025-0.006 0.050-0.013 0.135-0.024 0.019-0.002 0.039-0.005 0.12-0.005 0.015 0 0.031 0 0.11 0.011 0.013 0.002 0.026 0.004 0.102 0.024 0.011 0.003 0.021 0.007 0.096 0.037 0.009 0.004 0.018 0.008 0.089 0.047 0.008 0.004 0.015 0.009 0.084 0.057 0.007 0.005 0.013 0.009 0.079 0.064 0.006 0.005 0.012 0.010 0.075 0.071 0.007 0.006 0.012 0.012 0.072 0.075l0.067 0.078c0.014 0.017 0.028 0.034 0.062 0.076 0.050 0.062 0.098 0.126 0.148 0.189 0.018 0.026 0.039 0.051 0.057 0.077 0.043 0.055 0.074 0.098 0.11 0.211-0.001 0.008-0.006 0.018-0.040 0.089-0.012 0.015-0.022 0.031-0.067 0.075-0.032 0.031-0.065 0.061-0.099 0.089l-0.003 0.002c-0.080 0.066-0.181 0.147-0.283 0.225l-0.026 0.020c0.328 0.386 0.652 0.771 0.981 1.149 0.132 0.15 0.321 0.263 0.406 0.432 0.067 0.133 0.015 0.328 0.014 0.494-0.167-0.005-0.393 0.058-0.492-0.028-0.388-0.333-0.741-0.707-1.096-1.080-0.104-0.107-0.199-0.186-0.296-0.214l-0.167 0.012zM11.269 13.386h-2.012v-1.307h-2.41v7.868h1.32v1.979h-5.053v-1.979h1.319v-7.868h-2.422v1.307h-2.011v-3.312h11.27v3.312z"></path>
</symbol>
</defs>
</svg>
