<?xml version="1.0" encoding="UTF-8"?>
<svg width="158px" height="153px" viewBox="0 0 158 153" version="1.1" xmlns="http://www.w3.org/2000/svg" xmlns:xlink="http://www.w3.org/1999/xlink">
    <!-- Generator: Sketch 52.2 (67145) - http://www.bohemiancoding.com/sketch -->
    <title>graphic-flower</title>
    <desc>Created with Sketch.</desc>
    <g id="Sandbox" stroke="none" stroke-width="1" fill="none" fill-rule="evenodd">
        <g id="Artboard" transform="translate(-160.000000, -58.000000)" fill-rule="nonzero" stroke="#979797">
            <g id="graphic-flower" transform="translate(163.000000, 61.000000)">
                <path d="M103.366486,120.901692 C131.817833,122.85306 152,127.757871 152,133.5 C152,140.955844 117.973641,147 76,147 C34.026359,147 0,140.955844 0,133.5 C0,127.757871 20.1821674,122.85306 48.6335142,120.901692" id="tablecloth" stroke-width="5"></path>
                <path d="M39,96 C39,116.434536 55.5654643,133 76,133 C96.4345357,133 113,116.434536 113,96" id="bowl-bottom" stroke-width="6" stroke-linejoin="bevel"></path>
                <path d="M36,96.5 L116,96.5" id="bowl-top" stroke-width="6" stroke-linejoin="bevel"></path>
                <path d="M123.413106,71.0460278 C115.914463,63.6809597 107.576816,59.9969188 98.4001639,59.993905 C88.9118156,59.9907889 80.3230214,63.923598 72.6337814,71.7923323 C80.3281935,79.666119 88.9195737,83.6045703 98.407922,83.6076865 C107.59137,83.6107025 115.915495,79.9266793 123.413602,72.555628" id="leave2" stroke-width="5" transform="translate(98.023692, 71.800796) rotate(-210.000000) translate(-98.023692, -71.800796) "></path>
                <path d="M80.2554005,71.0295833 C72.7615953,63.6694389 64.4263668,59.9908737 55.2497147,59.9938874 C45.7613664,59.9970036 37.1699862,63.935455 29.4755741,71.8092416 C37.1648141,79.6779759 45.7536083,83.6107851 55.2419566,83.6076689 C64.4254042,83.6046529 72.7519521,79.9151614 80.2549046,72.5391834" id="leave1" stroke-width="5" transform="translate(54.865487, 71.800778) rotate(-330.000000) translate(-54.865487, -71.800778) "></path>
                <path d="M76,54 L76,95.34375" id="stem" stroke-width="6" stroke-linecap="square"></path>
                <path d="M67.4367029,55.1400395 L66.0530529,53.9928533 C66.1668639,42.691824 70.4155396,33.5659064 78.8295939,26.5898014 C87.5230042,19.382082 99.0006795,15.8475091 113.26262,15.9860829 C113.429757,27.8106788 109.16662,37.3268365 100.47321,44.5345559 C92.065382,51.5054987 81.053213,55.0406599 67.4367029,55.1400395 Z" id="petal3" stroke-width="5"></path>
                <path d="M77.377697,55.0241982 L75.3959049,55.0241982 C65.7160086,46.9600303 60.8760605,38.0090743 60.8760605,28.1355235 C60.8760605,17.9341597 66.0427272,8.69855816 76.3760605,0.428718841 C86.7093939,8.69855816 91.8760605,17.9341597 91.8760605,28.1355235 C91.8760605,38.0017681 87.0432727,46.9646597 77.377697,55.0241982 Z" id="petal2" stroke-width="5"></path>
                <path d="M85.961941,53.9804189 L84.5782911,55.1276051 C70.9478376,55.0332442 59.9408406,51.5106609 51.5267863,44.5345559 C42.833376,37.3268365 38.5702395,27.8106788 38.7373767,15.9860829 C52.999317,15.8475091 64.4769923,19.382082 73.1704026,26.5898014 C81.5782307,33.5607442 85.8420768,42.69095 85.961941,53.9804189 Z" id="petal1" stroke-width="5"></path>
            </g>
        </g>
    </g>
</svg>