<?xml version="1.0" encoding="UTF-8" standalone="no"?>
<svg xmlns="http://www.w3.org/2000/svg" height="32px" width="42px" version="1.1" xmlns:xlink="http://www.w3.org/1999/xlink" viewBox="0 0 42 32"><!-- Generator: Sketch 52 (66869) - http://www.bohemiancoding.com/sketch -->
 <title>icon--ABtest</title>
 <desc>Created with Sketch.</desc>
 <g id="Symbols" fill-rule="evenodd" fill="none">
  <g id="Icon-/-UI-/-AB-Test" fill-rule="nonzero" fill="#111" transform="translate(0 -5)">
   <path id="icon--ABtest" d="m0 5h42v31.216h-42v-31.216zm1.7027 6.243h38.594v-4.5403h-38.594l-0.0003 4.5403zm0 23.271h38.594v-21.568h-38.594l-0.0003 21.568zm35.189-24.406v-1.7026h1.703v1.7026h-1.703zm-30.649 0v-1.7026h1.7027v1.7026h-1.7027zm-2.8378 0v-1.7026h1.7027v1.7026h-1.7027zm11.352 0v-1.7026h21v1.7026h-21zm-5.1084 0v-1.7026h1.7024v1.7026h-1.7024zm19.865 16.46h5.675v-5.676h-5.675v5.676zm-2.271 2.27v-10.216h10.216v10.216h-10.216zm-10.52 4.565l-1.966-1.135 9.354-16.203 0.483-0.836 0.663-1.148 1.966 1.135-0.007 0.013-3.105 5.376-7.388 12.798zm-6.7906-12.301c-1.6057 0-2.9116 1.306-2.9116 2.912 0 1.605 1.3059 2.911 2.9116 2.911 1.6056 0 2.9116-1.306 2.9116-2.911 0-1.606-1.306-2.912-2.9116-2.912zm0 8.303c-2.9727 0-5.3919-2.418-5.3919-5.391 0-2.974 2.4192-5.392 5.3919-5.392 2.9726 0 5.3916 2.418 5.3916 5.392 0 2.973-2.419 5.391-5.3916 5.391z"/>
  </g>
 </g>
</svg>
