<svg width="42" height="32">
  <path fill="#111" fill-rule="nonzero" d="M0 0h42v31.216H0V0zm1.703 6.243h38.594v-4.54H1.703v4.54zm0 23.271h38.594V7.946H1.703v21.568zM36.892 5.108V3.405h1.703v1.703h-1.703zm-30.65 0V3.405h1.703v1.703H6.243zm-2.837 0V3.405h1.703v1.703H3.405zm11.352 0V3.405h21v1.703h-21zm-5.108 0V3.405h1.702v1.703H9.648zM27.01 25.657l-.012.127-.122.034-6.116 1.696h-.097l-6.099-1.694-.123-.034-.01-.127-1.36-15.243-.017-.2h15.335l-.018.2-1.36 15.241zm-6.277-12.069h-4.5l.133 1.499h4.67l.07.353-.3.129-4.246 1.817.138 1.567h6.52l-.017.199-.208 2.441-.011.127-.123.034-2.076.577-.096.001-2.1-.558-.124-.033-.011-.128-.121-1.321h-1.51l.234 2.606 3.664 1.015 3.666-1.017.475-5.442h-4.126l-.074-.352 4.397-1.954.134-1.56h-4.457z"/>
</svg>