<svg width="42" height="32">
  <path fill="#111" fill-rule="nonzero" d="M0 0v31.216h42V0H0zm1.703 6.243v-4.54h38.594v4.54H1.703zm0 23.271V7.946h38.594v21.568H1.703zM36.892 5.108h1.703V3.405h-1.703v1.703zm-30.649 0h1.703V3.405H6.243v1.703zm-2.838 0h1.703V3.405H3.405v1.703zm11.352 0h21V3.405h-21v1.703zm-5.108 0h1.702V3.405H9.65v1.703zm9.121 13.474c-2.34-2.847-3.633-4.27-3.877-4.27-.623 0-10.352 11.08-10.352 12.364h32.35c0-1.063-11.663-14.757-12.293-14.757-.282 0-2.225 2.22-5.828 6.663zm-9.689-2.69a2.838 2.838 0 1 0 0-5.676 2.838 2.838 0 0 0 0 5.676z"/>
</svg>