<?xml version="1.0" encoding="UTF-8" standalone="no"?>
<svg xmlns="http://www.w3.org/2000/svg" height="41px" width="42px" version="1.1" xmlns:xlink="http://www.w3.org/1999/xlink" viewBox="0 0 42 41"><!-- Generator: Sketch 52 (66869) - http://www.bohemiancoding.com/sketch -->
 <title>icon--youtube</title>
 <desc>Created with Sketch.</desc>
 <g id="Symbols" fill-rule="evenodd" fill="none">
  <g id="Icon-/-Logo-/-Youtube" fill-rule="nonzero" fill="#111" transform="translate(0 -1)">
   <path id="icon--youtube" d="m33.674 20.194h-26.148c-4.1568 0-7.526 3.373-7.526 7.528v6.049c0 4.155 3.3692 7.527 7.5256 7.527h26.148c4.155 0 7.525-3.372 7.525-7.527v-6.049c0-4.155-3.37-7.528-7.525-7.528zm-20.655 4.709h-2.431v12.079h-2.3484v-12.079h-2.4293v-2.055h7.2087v2.055zm6.867 12.079h-2.083v-1.142c-0.387 0.422-0.786 0.745-1.203 0.962-0.417 0.227-0.819 0.333-1.21 0.333-0.484 0-0.844-0.154-1.09-0.466-0.242-0.312-0.365-0.774-0.365-1.398v-8.717h2.083v8c0 0.247 0.046 0.424 0.129 0.534 0.09 0.113 0.233 0.166 0.429 0.166 0.151 0 0.346-0.073 0.58-0.219 0.236-0.148 0.451-0.333 0.647-0.561v-7.92h2.083v10.428zm7.564-2.153c0 0.737-0.164 1.303-0.491 1.698-0.325 0.395-0.801 0.589-1.416 0.589-0.41 0-0.775-0.074-1.091-0.227-0.319-0.151-0.619-0.384-0.892-0.706v0.798h-2.108v-14.133h2.108v4.552c0.283-0.315 0.581-0.559 0.892-0.723 0.319-0.167 0.639-0.248 0.963-0.248 0.659 0 1.162 0.22 1.51 0.665 0.349 0.444 0.523 1.095 0.523 1.949v5.786h0.002zm7.226-2.809h-3.987v1.964c0 0.548 0.068 0.929 0.204 1.142 0.139 0.213 0.373 0.317 0.707 0.317 0.346 0 0.585-0.09 0.725-0.269 0.134-0.182 0.207-0.577 0.207-1.19v-0.474h2.144v0.535c0 1.068-0.26 1.874-0.786 2.417-0.518 0.539-1.3 0.806-2.338 0.806-0.935 0-1.672-0.285-2.207-0.858-0.533-0.569-0.805-1.36-0.805-2.364v-4.684c0-0.902 0.297-1.643 0.888-2.212 0.589-0.569 1.347-0.853 2.28-0.853 0.955 0 1.689 0.263 2.2 0.791 0.512 0.528 0.768 1.284 0.768 2.273v2.659zm-3.056-3.9c-0.333 0-0.569 0.093-0.714 0.288-0.148 0.183-0.217 0.497-0.217 0.934v1.055h1.843v-1.055c0-0.437-0.074-0.751-0.221-0.934-0.14-0.194-0.374-0.288-0.691-0.288zm-7.188-0.035c0.281 0 0.498 0.091 0.65 0.27 0.148 0.183 0.219 0.448 0.219 0.803v5.385c0 0.333-0.061 0.569-0.179 0.717-0.12 0.15-0.307 0.224-0.563 0.224-0.177 0-0.343-0.041-0.504-0.112-0.161-0.074-0.327-0.203-0.494-0.371v-6.496c0.141-0.143 0.284-0.253 0.43-0.319 0.144-0.068 0.293-0.101 0.441-0.101zm-13.483-11.513v-6.169l-3.1454-9.403h2.6604l1.716 6.2244h0.166l1.635-6.2244h2.685l-3.076 9.112v6.46h-2.641zm9.295 0.29c-1.026 0-1.849-0.29-2.465-0.867-0.615-0.58-0.924-1.353-0.924-2.329v-5.9544c0-0.8929 0.317-1.5994 0.947-2.126 0.632-0.5267 1.481-0.7905 2.548-0.7905 0.971 0 1.767 0.2789 2.389 0.8325 0.617 0.5552 0.927 1.2751 0.927 2.1495v5.9339c0 0.983-0.303 1.75-0.909 2.312-0.61 0.559-1.446 0.839-2.513 0.839zm-0.973-9.2378h-0.001v6.2578c0 0.315 0.084 0.557 0.25 0.729 0.168 0.177 0.407 0.261 0.717 0.261 0.317 0 0.569-0.087 0.756-0.263 0.189-0.176 0.283-0.419 0.283-0.726v-6.2588c0-0.2494-0.095-0.451-0.286-0.609-0.192-0.1545-0.443-0.2293-0.753-0.2293-0.287 0-0.518 0.0748-0.7 0.2293-0.176 0.158-0.266 0.3596-0.266 0.609zm7.937 9.1158c-0.545 0-0.95-0.174-1.227-0.518-0.272-0.34-0.41-0.851-0.41-1.536v-9.6002h2.343v8.8062c0 0.27 0.055 0.467 0.151 0.587 0.095 0.125 0.257 0.185 0.477 0.185 0.173 0 0.391-0.08 0.656-0.242 0.261-0.163 0.504-0.368 0.722-0.617v-8.7192h2.346v11.487h-2.346v-1.273c-0.429 0.468-0.88 0.827-1.352 1.072-0.466 0.242-0.919 0.368-1.36 0.368z"/>
  </g>
 </g>
</svg>
