<svg width="42" height="41">
  <path fill="#111" fill-rule="nonzero" d="M33.674 19.194H7.526A7.528 7.528 0 0 0 0 26.722v6.049a7.528 7.528 0 0 0 7.526 7.527h26.148a7.528 7.528 0 0 0 7.525-7.527v-6.049a7.529 7.529 0 0 0-7.525-7.528zm-20.655 4.709h-2.431v12.079H8.24V23.903H5.81v-2.055h7.209v2.055zm6.867 12.079h-2.083V34.84c-.387.422-.786.745-1.203.962-.417.227-.819.333-1.21.333-.484 0-.844-.154-1.09-.466-.242-.312-.365-.774-.365-1.398v-8.717h2.083v8c0 .247.046.424.129.534.09.113.233.166.429.166.151 0 .346-.073.58-.219.236-.148.451-.333.647-.561v-7.92h2.083v10.428zm7.564-2.153c0 .737-.164 1.303-.491 1.698-.325.395-.801.589-1.416.589-.41 0-.775-.074-1.091-.227a2.677 2.677 0 0 1-.892-.706v.798h-2.108V21.848h2.108V26.4c.283-.315.581-.559.892-.723.319-.167.639-.248.963-.248.659 0 1.162.22 1.51.665.349.444.523 1.095.523 1.949v5.786h.002zm7.226-2.809h-3.987v1.964c0 .548.068.929.204 1.142.139.213.373.317.707.317.346 0 .585-.09.725-.269.134-.182.207-.577.207-1.19v-.474h2.144v.535c0 1.068-.26 1.874-.786 2.417-.518.539-1.3.806-2.338.806-.935 0-1.672-.285-2.207-.858-.533-.569-.805-1.36-.805-2.364v-4.684c0-.902.297-1.643.888-2.212.589-.569 1.347-.853 2.28-.853.955 0 1.689.263 2.2.791.512.528.768 1.284.768 2.273v2.659zm-3.056-3.9c-.333 0-.569.093-.714.288-.148.183-.217.497-.217.934v1.055h1.843v-1.055c0-.437-.074-.751-.221-.934-.14-.194-.374-.288-.691-.288zm-7.188-.035c.281 0 .498.091.65.27.148.183.219.448.219.803v5.385c0 .333-.061.569-.179.717-.12.15-.307.224-.563.224-.177 0-.343-.041-.504-.112a1.782 1.782 0 0 1-.494-.371v-6.496c.141-.143.284-.253.43-.319.144-.068.293-.101.441-.101zM10.949 15.572V9.403L7.804 0h2.66l1.716 6.224h.166L13.981 0h2.685L13.59 9.112v6.46h-2.641zm9.295.29c-1.026 0-1.849-.29-2.465-.867-.615-.58-.924-1.353-.924-2.329V6.712c0-.893.317-1.6.947-2.126.632-.527 1.481-.79 2.548-.79.971 0 1.767.278 2.389.832.617.555.927 1.275.927 2.15v5.933c0 .983-.303 1.75-.909 2.312-.61.559-1.446.839-2.513.839zm-.973-9.238h-.001v6.258c0 .315.084.557.25.729.168.177.407.261.717.261.317 0 .569-.087.756-.263.189-.176.283-.419.283-.726V6.624a.752.752 0 0 0-.286-.609c-.192-.154-.443-.23-.753-.23-.287 0-.518.076-.7.23a.78.78 0 0 0-.266.61zm7.937 9.116c-.545 0-.95-.174-1.227-.518-.272-.34-.41-.851-.41-1.536v-9.6h2.343v8.806c0 .27.055.467.151.587.095.125.257.185.477.185.173 0 .391-.08.656-.242.261-.163.504-.368.722-.617v-8.72h2.346v11.488H29.92V14.3c-.429.468-.88.827-1.352 1.072-.466.242-.919.368-1.36.368z"/>
</svg>