<svg width="42" height="35">
  <path fill="#111" fill-rule="nonzero" d="M42 4.04a17.164 17.164 0 0 1-4.949 1.357A8.64 8.64 0 0 0 40.84.629a17.25 17.25 0 0 1-5.472 2.092A8.604 8.604 0 0 0 29.079 0a8.617 8.617 0 0 0-8.617 8.617c0 .675.076 1.332.223 1.963-7.161-.359-13.511-3.789-17.761-9.003A8.576 8.576 0 0 0 1.758 5.91a8.615 8.615 0 0 0 3.833 7.173 8.591 8.591 0 0 1-3.903-1.079v.109c0 4.175 2.97 7.657 6.912 8.449a8.627 8.627 0 0 1-3.892.148 8.626 8.626 0 0 0 8.049 5.984 17.29 17.29 0 0 1-10.702 3.689c-.695 0-1.38-.041-2.055-.12a24.39 24.39 0 0 0 13.209 3.871c15.85 0 24.516-13.13 24.516-24.517 0-.373-.007-.746-.024-1.115A17.492 17.492 0 0 0 42 4.041z"/>
</svg>