<?xml version="1.0" encoding="UTF-8" standalone="no"?>
<svg xmlns="http://www.w3.org/2000/svg" height="32px" width="42px" version="1.1" xmlns:xlink="http://www.w3.org/1999/xlink" viewBox="0 0 42 32"><!-- Generator: Sketch 52 (66869) - http://www.bohemiancoding.com/sketch -->
 <title>icon--CSSdev</title>
 <desc>Created with Sketch.</desc>
 <g id="Symbols" fill-rule="evenodd" fill="none">
  <g id="Icon-/-UI-/-CSS-Development" fill-rule="nonzero" fill="#111" transform="translate(0 -5)">
   <path id="icon--CSSdev" d="m0 5h42v31.216h-42v-31.216zm1.7027 6.243h38.594v-4.5403h-38.594l-0.0003 4.5403zm0 23.271h38.594v-21.568h-38.594l-0.0003 21.568zm35.189-24.406v-1.7026h1.703v1.7026h-1.703zm-30.649 0v-1.7026h1.7027v1.7026h-1.7027zm-2.8378 0v-1.7026h1.7027v1.7026h-1.7027zm11.352 0v-1.7026h21v1.7026h-21zm-5.1084 0v-1.7026h1.7024v1.7026h-1.7024zm17.362 20.549l-0.012 0.127-0.122 0.034-6.116 1.696h-0.097l-6.099-1.694-0.123-0.034-0.011-0.127-1.359-15.243-0.018-0.2h15.335l-0.018 0.2-1.36 15.241zm-6.277-12.069h-4.5l0.133 1.499h4.669l0.071 0.353-0.301 0.129-4.246 1.817 0.138 1.567h6.52l-0.017 0.199-0.208 2.441-0.011 0.127-0.123 0.034-2.076 0.577-0.096 0.001-2.099-0.558-0.125-0.033-0.011-0.128-0.121-1.321h-1.509l0.233 2.606 3.664 1.015 3.666-1.017 0.475-5.442h-4.126l-0.074-0.352 4.397-1.954 0.134-1.56h-4.457z"/>
  </g>
 </g>
</svg>
