<svg width="38" height="38">
  <path fill="#111" fill-rule="nonzero" d="M32.381 32.381h-5.63v-8.818c0-2.104-.041-4.809-2.93-4.809-2.933 0-3.38 2.291-3.38 4.657v8.97h-5.635V14.247h5.408v2.478h.076c.753-1.426 2.592-2.93 5.334-2.93 5.703 0 6.757 3.755 6.757 8.639v9.947zm-26.748 0V14.247h5.638v18.134H5.633zm2.82-20.613a3.267 3.267 0 0 1-3.268-3.269 3.267 3.267 0 1 1 3.267 3.269zM35.188 0H2.804C1.257 0 0 1.227 0 2.738V35.26c0 1.513 1.257 2.742 2.805 2.742h32.383c1.55 0 2.815-1.229 2.815-2.742V2.74C38.003 1.226 36.737 0 35.188 0z"/>
</svg>