<svg width="42" height="32">
  <path fill="#111" fill-rule="nonzero" d="M0 0h42v31.216H0V0zm1.703 6.243h38.594v-4.54H1.703v4.54zm0 23.271h38.594V7.946H1.703v21.568zM36.892 5.108V3.405h1.703v1.703h-1.703zm-30.65 0V3.405h1.703v1.703H6.243zm-2.837 0V3.405h1.703v1.703H3.405zm11.352 0V3.405h21v1.703h-21zm-5.108 0V3.405h1.702v1.703H9.648zm19.864 16.46h5.675v-5.676h-5.675v5.676zm-2.27 2.27V13.622h10.216v10.216H27.242zm-10.52 4.565l-1.966-1.135 9.354-16.203.483-.836.663-1.148 1.966 1.135-.007.013-3.105 5.376-7.388 12.798zM9.931 16.102a2.915 2.915 0 0 0-2.912 2.912 2.915 2.915 0 0 0 2.912 2.911 2.915 2.915 0 0 0 2.911-2.911 2.915 2.915 0 0 0-2.911-2.912zm0 8.303a5.398 5.398 0 0 1-5.392-5.391 5.398 5.398 0 0 1 5.392-5.392 5.398 5.398 0 0 1 5.391 5.392 5.397 5.397 0 0 1-5.391 5.391z"/>
</svg>
