<?xml version="1.0" encoding="UTF-8" standalone="no"?>
<svg xmlns="http://www.w3.org/2000/svg" height="42px" width="42px" version="1.1" xmlns:xlink="http://www.w3.org/1999/xlink" viewBox="0 0 42 42"><!-- Generator: Sketch 52 (66869) - http://www.bohemiancoding.com/sketch -->
 <title>icon--dribble</title>
 <desc>Created with Sketch.</desc>
 <g id="Symbols" fill-rule="evenodd" fill="none">
  <g id="Icon-/-Logo-/-Dribble" fill-rule="nonzero" fill="#111">
   <path id="icon--dribble" d="m41.521 16.928c-0.272-1.334-0.681-2.648-1.21-3.903-0.52-1.232-1.165-2.418-1.915-3.5271-0.743-1.0996-1.596-2.1328-2.535-3.0711-0.938-0.9399-1.972-1.7934-3.071-2.5351-1.109-0.7518-2.296-1.3944-3.527-1.916-1.255-0.5284-2.568-0.9383-3.903-1.2088-1.366-0.28054-2.774-0.42334-4.18-0.42334-1.408 0-2.814 0.1428-4.183 0.42336-1.334 0.27048-2.647 0.68128-3.901 1.2088-1.231 0.5216-2.419 1.1651-3.5292 1.916-1.0996 0.7417-2.1328 1.5943-3.0711 2.5351-0.9391 0.9383-1.7909 1.9724-2.5334 3.0711-0.7501 1.1091-1.3944 2.2951-1.9144 3.5271-0.5317 1.255-0.9391 2.569-1.2121 3.903-0.27972 1.365-0.42168 2.773-0.42168 4.18 0 1.409 0.14196 2.817 0.42168 4.183 0.273 1.334 0.6812 2.647 1.2113 3.902 0.5199 1.23 1.1651 2.42 1.9143 3.528 0.7426 1.1 1.5944 2.131 2.5335 3.071 0.9383 0.939 1.9723 1.79 3.071 2.534 1.1101 0.75 2.2981 1.394 3.5291 1.914 1.253 0.532 2.568 0.937 3.902 1.211 1.368 0.282 2.774 0.423 4.182 0.423 1.406 0 2.814-0.141 4.181-0.423 1.335-0.274 2.647-0.68 3.902-1.211 1.231-0.52 2.419-1.165 3.527-1.914 1.1-0.744 2.133-1.594 3.071-2.534 0.939-0.94 1.792-1.972 2.536-3.071 0.75-1.108 1.394-2.298 1.914-3.528 0.53-1.254 0.938-2.568 1.21-3.902 0.281-1.367 0.422-2.775 0.422-4.183 0.001-1.407-0.14-2.815-0.421-4.18zm-2.616 4.004c-0.256-0.055-6.257-1.347-12.35-0.581-0.124-0.304-0.251-0.609-0.382-0.916-0.369-0.868-0.766-1.728-1.18-2.572 7.004-2.858 9.848-6.9695 9.88-7.0182 2.488 3.0192 3.992 6.8782 4.032 11.087zm-6.014-13.133c-0.044 0.0689-2.57 3.9126-9.263 6.4216-3.031-5.5698-6.362-9.9941-6.628-10.345 1.341-0.3253 2.738-0.5009 4.179-0.5009 4.491 0 8.587 1.6733 11.712 4.4243zm-15.96-3.9094c0 0.0017-0.003 0.0034-0.003 0.0034s-0.02 0.005-0.052 0.0118c0.017-0.0051 0.037-0.0084 0.055-0.0152zm-3.319 1.1794c0.236 0.3167 3.516 4.7628 6.586 10.218-8.515 2.262-15.905 2.174-16.374 2.166 1.153-5.493 4.8431-10.048 9.788-12.384zm-10.166 16.039c0-0.189 0.0084-0.374 0.0151-0.561 0.3125 0.007 9.0752 0.206 18.205-2.526 0.508 0.994 0.995 2.005 1.439 3.014-0.234 0.066-0.468 0.136-0.699 0.212-9.57 3.093-14.424 11.705-14.424 11.705-0.0003 0 0.0064 0.005 0.0064 0.008-2.8232-3.143-4.5427-7.296-4.5427-11.852zm17.733 17.734c-4.292 0-8.228-1.525-11.296-4.063 0.233 0.189 0.398 0.309 0.398 0.309s3.399-7.413 13.915-11.077c0.04-0.016 0.079-0.026 0.119-0.038 2.495 6.484 3.525 11.914 3.788 13.464-2.129 0.906-4.468 1.405-6.924 1.405zm9.909-3.024c-0.18-1.071-1.125-6.276-3.451-12.668 5.724-0.915 10.685 0.655 11.051 0.775-0.79 4.941-3.618 9.203-7.6 11.893z"/>
  </g>
 </g>
</svg>
