<svg width="42" height="33">
  <path fill="#111" fill-rule="nonzero" d="M41.663 29.338l-2.828 2.828L33.669 27H0V0h36.327v24.001l5.336 5.337zm-14.46-3.811h4.994l-.433-.433.707-.707-.746-.746a8.952 8.952 0 0 1-4.522 1.886zM1.473 6.872v18.655h23.45a8.864 8.864 0 0 1-1.678-.384 8.96 8.96 0 0 1-5.051-4.252 8.735 8.735 0 0 1-.417-.902.474.474 0 0 1-.263.089h-4.305a.487.487 0 0 1 0-.973h4.271c-.023-.082-.057-.162-.078-.245a9.096 9.096 0 0 1-.241-1.323h-1.213a.487.487 0 0 1 0-.973h1.178c.004-.46.033-.919.106-1.375h-4.023a.487.487 0 0 1 0-.973h4.236c.051-.183.102-.366.165-.546a8.877 8.877 0 0 1 2.133-3.425l.049-.044c3.518-3.468 9.18-3.455 12.679.044a8.964 8.964 0 0 1 2.383 4.25V6.872H1.473zm16.041 4.803a.487.487 0 0 1 0 .973h-1.565a.488.488 0 0 1 0-.973h1.565zM8.027 17.05c0-.268.218-.486.486-.486h5.87a.487.487 0 0 1 0 .972h-5.87a.487.487 0 0 1-.486-.486zm6.356-5.375a.487.487 0 0 1 0 .973h-5.87a.487.487 0 0 1 0-.973h5.87zm0 9.778a.487.487 0 0 1 0 .973h-5.87a.487.487 0 0 1 0-.973h5.87zm3.131 0a.487.487 0 0 1 0 .973h-1.565a.487.487 0 0 1 0-.973h1.565zm-10.565 0a.487.487 0 0 1 0 .973h-3.13a.487.487 0 0 1 0-.973h3.13zm6.26-11.153a.487.487 0 0 1 0-.973h4.304a.487.487 0 0 1 0 .973H13.21zm-9.39 0a.487.487 0 0 1 0-.973h7.825a.487.487 0 0 1 0 .973H3.82zm0 9.778a.487.487 0 0 1 0-.973h7.825a.487.487 0 0 1 0 .973H3.82zm0-7.43a.487.487 0 0 1 0-.973h3.13a.487.487 0 0 1 0 .973h-3.13zm0 4.889a.487.487 0 0 1 0-.973h3.13a.487.487 0 0 1 0 .973h-3.13zm0-2.348a.487.487 0 0 1 0-.973h7.825a.487.487 0 0 1 0 .973H3.82zm-2.346-9.79h33.382V1.472H1.473v3.927zm30.436-.981V2.945h1.473v1.473H31.91zm-19.145 0V2.945h18.164v1.473H12.764zm-7.364 0V2.945h1.473v1.473H5.4zm-2.455 0V2.945h1.473v1.473H2.945zm5.401 0V2.945H9.82v1.473H8.346zm26.247 17.848l.261.262v-3.822a8.93 8.93 0 0 1-1.714 3.52l.746.747.707-.707zm-4.316-1.375a.72.72 0 0 1 .72.718l-.002.006c.02-.02.042-.036.062-.056a7 7 0 0 0 0-9.9c-.085-.085-.177-.16-.266-.24a.717.717 0 0 1-.514.219H23.92a.719.719 0 0 1 0-1.437h4.993a7.005 7.005 0 0 0-6.622.54c.015.059.036.116.036.179a.72.72 0 0 1-.719.718h-.426c-.008.008-.016.014-.024.02a6.974 6.974 0 0 0-1.395 2.012h5.891a.719.719 0 1 1 0 1.436h-6.377a7.024 7.024 0 0 0-.116 2.317h2.447a.72.72 0 0 1 0 1.437h-2.122a6.95 6.95 0 0 0 1.092 2.03h5.076a.72.72 0 0 1 0 1.438h-3.572a6.997 6.997 0 0 0 8.052 0h-2.167a.72.72 0 0 1 0-1.437h2.311zm0-3.47a.72.72 0 0 1 0 1.439H23.92a.72.72 0 0 1 0-1.438h6.358zm-2.31-2.315a.72.72 0 0 1 0-1.437h2.311a.72.72 0 0 1 0 1.437h-2.312z"/>
</svg>