<?xml version="1.0" encoding="UTF-8" standalone="no"?>
<svg xmlns="http://www.w3.org/2000/svg" height="42px" width="42px" version="1.1" xmlns:xlink="http://www.w3.org/1999/xlink" viewBox="0 0 42 42"><!-- Generator: Sketch 52 (66869) - http://www.bohemiancoding.com/sketch -->
 <title>icon--wordpress</title>
 <desc>Created with Sketch.</desc>
 <g id="Symbols" fill-rule="evenodd" fill="none">
  <g id="Icon-/-Logo-/-Wordpress" fill-rule="nonzero" fill="#111">
   <path id="icon--wordpress" d="m2.985 20.999c0 7.13 4.1437 13.293 10.153 16.213l-8.5934-23.545c-1.0301 2.307-1.5616 4.805-1.5596 7.332zm30.176-0.909c0-2.227-0.8-3.768-1.486-4.968-0.913-1.484-1.769-2.741-1.769-4.225 0-1.6559 1.256-3.1975 3.025-3.1975 0.08 0 0.156 0.0099 0.234 0.0145-3.205-2.9363-7.476-4.729-12.165-4.729-6.294 0-11.831 3.229-15.052 8.12 0.4226 0.012 0.8208 0.021 1.1593 0.021 1.8841 0 4.8007-0.228 4.8007-0.228 0.971-0.058 1.086 1.369 0.116 1.484 0 0-0.976 0.114-2.0622 0.171l6.5602 19.513 3.943-11.823-2.807-7.69c-0.97-0.057-1.889-0.172-1.889-0.172-0.971-0.057-0.857-1.541 0.114-1.484 0 0 2.975 0.229 4.745 0.229 1.884 0 4.801-0.229 4.801-0.229 0.971-0.057 1.086 1.369 0.115 1.484 0 0-0.978 0.115-2.062 0.172l6.511 19.365 1.796-6.005c0.779-2.491 1.372-4.281 1.372-5.823zm-11.845 2.485l-5.405 15.706c1.652 0.486 3.366 0.733 5.089 0.733 2.097 0 4.109-0.362 5.982-1.021-0.05-0.079-0.093-0.162-0.128-0.248l-5.538-15.17zm15.491-10.219c0.077 0.574 0.121 1.19 0.121 1.852 0 1.828-0.341 3.883-1.37 6.453l-5.502 15.909c5.355-3.123 8.957-8.925 8.957-15.571 0.001-3.132-0.799-6.077-2.207-8.643h0.001zm-15.807-12.356c-11.579 0-21 9.42-21 20.999 0 11.58 9.4206 21 21 21 11.578 0 21-9.42 21-21 0-11.579-9.422-20.999-21-20.999zm0 41.036c-11.048 0-20.037-8.989-20.037-20.037-0.00019-11.048 8.9883-20.036 20.037-20.036 11.047-0.00019 20.035 8.9879 20.035 20.036s-8.988 20.037-20.035 20.037z"/>
  </g>
 </g>
</svg>
