<?xml version="1.0" encoding="UTF-8" standalone="no"?>
<svg xmlns="http://www.w3.org/2000/svg" height="27px" width="42px" version="1.1" xmlns:xlink="http://www.w3.org/1999/xlink" viewBox="0 0 42 27"><!-- Generator: Sketch 52 (66869) - http://www.bohemiancoding.com/sketch -->
 <title>icon--googleplus</title>
 <desc>Created with Sketch.</desc>
 <g id="Symbols" fill-rule="evenodd" fill="none">
  <g id="Icon-/-Logo-/-Google-+" fill-rule="nonzero" fill="#111" transform="translate(0 -8)">
   <path id="icon--googleplus" d="m13.34 19.431c4.248-0.013 8.496-0.02 12.751 0.012 0.254 3.567-0.217 7.363-2.408 10.312-3.318 4.668-9.98 6.031-15.177 4.031-5.2161-1.987-8.91-7.496-8.4706-13.113 0.11466-6.873 6.4326-12.891 13.305-12.662 3.293-0.1527 6.388 1.2803 8.91 3.293-1.076 1.223-2.191 2.401-3.382 3.503-3.031-2.096-7.343-2.694-10.375-0.274-4.3369 3-4.5343 10.082-0.3627 13.311 4.0567 3.681 11.726 1.853 12.846-3.783-2.541-0.039-5.088 0-7.63-0.083-0.006-1.516-0.012-3.032-0.006-4.547zm24.851-0.02c1.268 0.013 2.542 0.013 3.809 0.026v3.789c-1.267 0.013-2.535 0.02-3.809 0.032-0.012 1.274-0.019 2.541-0.025 3.809h-3.796c-0.013-1.268-0.013-2.535-0.025-3.802-1.268-0.013-2.542-0.026-3.809-0.039v-3.789c1.267-0.013 2.535-0.019 3.809-0.026 0.006-1.273 0.019-2.541 0.031-3.808h3.79c0.006 1.267 0.013 2.541 0.025 3.808z"/>
  </g>
 </g>
</svg>
