<?xml version="1.0" encoding="UTF-8" standalone="no"?>
<svg xmlns="http://www.w3.org/2000/svg" height="35px" width="42px" version="1.1" xmlns:xlink="http://www.w3.org/1999/xlink" viewBox="0 0 42 35"><!-- Generator: Sketch 52 (66869) - http://www.bohemiancoding.com/sketch -->
 <title>icon--github</title>
 <desc>Created with Sketch.</desc>
 <g id="Symbols" fill-rule="evenodd" fill="none">
  <g id="Icon-/-Logo-/-Github" fill-rule="nonzero" fill="#111" transform="translate(0 -4)">
   <path id="icon--github" d="m41.829 20.805c0.008 0.001 0.018 0.002 0.027 0.002 0.067 0 0.129-0.049 0.142-0.118 0.014-0.078-0.038-0.154-0.116-0.169-1.975-0.364-3.42-0.766-8.295-0.726 0.304-1.124 0.468-2.453 0.501-4.027-0.008-4.269-2.051-5.7792-2.444-6.4883 0.579-3.2319-0.096-4.7031-0.41-5.2077-1.157-0.412-4.028 1.0593-5.595 2.0964-2.557-0.7477-7.959-0.6754-9.985 0.1929-3.739-2.6772-5.7165-2.2672-5.7165-2.2672s-1.2783 2.2913-0.3376 5.6438c-1.2301 1.5681-2.1466 2.6771-2.1466 5.6181 0 1.656 0.1949 3.139 0.6348 4.433-1.9565-0.004-6.0572 0.259-7.9781 0.734-0.077108 0.019-0.12436 0.098-0.10607 0.175 0.016403 0.066 0.076209 0.11 0.14089 0.11 0.01153 0 0.02315-0.001 0.03468-0.004 1.9382-0.479 6.176-0.74 8.0128-0.724 0.1052 0.279 0.2229 0.549 0.3531 0.81-4.7224 0.126-5.9955 0.8-7.9781 1.295-0.1437 0.037-0.28459 0.071-0.42154 0.105-0.077155 0.019-0.12543 0.098-0.10612 0.176 0.016406 0.065 0.07519 0.11 0.14089 0.11 0.01153 0 0.02315-0.001 0.03469-0.004 0.13695-0.035 0.27784-0.07 0.42257-0.106 1.9884-0.497 3.2788-1.175 8.0581-1.29 1.4051 2.551 4.1141 4.138 8.6831 4.576-0.653 0.495-1.436 1.435-1.544 2.521-0.82 0.531-2.469 0.706-3.751 0.301-1.796-0.567-2.4841-4.124-5.1738-3.617-0.5828 0.11-0.467 0.494 0.0366 0.82 0.82 0.53 1.5918 1.194 2.1871 2.607 0.4573 1.086 1.4181 3.025 4.4571 3.025 1.206 0 2.051-0.145 2.051-0.145s0.023 2.77 0.023 3.847c0 1.241-1.675 1.592-1.675 2.189 0 0.236 0.554 0.258 1 0.258 0.881 0 2.714-0.735 2.714-2.026 0-1.025 0.016-4.473 0.016-5.076 0-1.319 0.708-1.737 0.708-1.737s0.087 7.04-0.169 7.983c-0.301 1.11-0.844 0.953-0.844 1.448 0 0.736 2.206 0.18 2.937-1.436 0.566-1.258 0.319-8.164 0.319-8.164l0.602-0.012s0.034 3.161 0.014 4.606c-0.021 1.497-0.123 3.39 0.766 4.282 0.584 0.587 2.476 1.616 2.476 0.675 0-0.547-1.037-0.996-1.037-2.476v-6.809c0.828 0 0.704 2.239 0.704 2.239l0.06 4.16s-0.182 1.515 1.639 2.15c0.643 0.225 2.019 0.286 2.083-0.091 0.065-0.379-1.656-0.941-1.672-2.115-0.009-0.716 0.032-1.134 0.032-4.245s-0.417-4.261-1.873-5.178c4.493-0.462 7.273-1.573 8.628-4.551 1.558 0.052 4.818 0.211 8.608 1.369 0.013 0.005 0.028 0.007 0.042 0.007 0.062 0 0.119-0.04 0.138-0.102 0.023-0.077-0.019-0.158-0.096-0.181-3.738-1.144-6.899-1.322-8.568-1.378 0.105-0.259 0.202-0.53 0.287-0.814 4.903-0.046 6.352 0.356 8.325 0.72zm-34.038 4.733c-0.1798 0-0.3256-0.097-0.3256-0.217s0.1458-0.217 0.3256-0.217 0.3256 0.097 0.3256 0.217-0.1458 0.217-0.3256 0.217zm0.6874 0.334c0-0.12 0.1457-0.217 0.3255-0.217s0.3256 0.097 0.3256 0.217-0.1458 0.217-0.3256 0.217-0.3255-0.097-0.3255-0.217zm0.619 0.736c0-0.12 0.1458-0.217 0.3256-0.217 0.1797 0 0.3256 0.097 0.3256 0.217s-0.1459 0.217-0.3256 0.217c-0.1798 0-0.3256-0.097-0.3256-0.217zm0.8683 1.049c-0.1799 0-0.3257-0.097-0.3257-0.217s0.1458-0.217 0.3257-0.217c0.1795 0 0.3255 0.097 0.3255 0.217s-0.146 0.217-0.3255 0.217zm0.6195 0.784c-0.18 0-0.326-0.098-0.326-0.217 0-0.12 0.146-0.217 0.326-0.217 0.179 0 0.325 0.097 0.325 0.217 0 0.119-0.146 0.217-0.325 0.217zm0.836 0.667c-0.18 0-0.326-0.097-0.326-0.217s0.146-0.217 0.326-0.217c0.179 0 0.325 0.097 0.325 0.217s-0.146 0.217-0.325 0.217zm1.169 0.434c-0.179 0-0.325-0.097-0.325-0.217s0.146-0.217 0.325-0.217c0.18 0 0.326 0.097 0.326 0.217s-0.146 0.217-0.326 0.217zm1.174 0c-0.18 0-0.326-0.097-0.326-0.217s0.146-0.217 0.326-0.217 0.326 0.097 0.326 0.217-0.146 0.217-0.326 0.217zm1.178-0.185c-0.18 0-0.326-0.097-0.326-0.217s0.146-0.217 0.326-0.217 0.326 0.097 0.326 0.217-0.146 0.217-0.326 0.217zm9.222-4.621c-0.971 0.033-1.978 0.049-2.993 0.049-1.024 0-2.013-0.017-2.939-0.05-4.936-0.173-7.654-2.256-7.654-5.865 0-0.375 0.079-1.693 1.1-2.917 0.993-1.19 2.514-1.819 4.398-1.819 0.129 0 0.359 0.014 0.825 0.043 0.999 0.062 2.672 0.166 4.329 0.166 1.499 0 3.016-0.111 3.831-0.17 0.382-0.028 0.535-0.039 0.634-0.039 4.009 0 5.438 2.562 5.438 4.959 0 2.47-1.209 5.455-6.969 5.643zm-17.354 3.122c0.7769 0 0.0131-1.205-0.0001-1.769-0.0035 0.549-0.7768 1.769 0.0001 1.769zm15.13-5.186c-0.08 0-0.144 0.065-0.144 0.145 0 0.319-0.375 0.675-0.877 0.675-0.072 0-0.142-0.008-0.208-0.022-0.167-0.036-0.314-0.111-0.434-0.2-0.024-0.017-0.047-0.036-0.069-0.054-0.066-0.056-0.121-0.114-0.165-0.17-0.072-0.093-0.113-0.178-0.113-0.229 0-0.08-0.064-0.145-0.144-0.145s-0.145 0.065-0.145 0.145c0 0.041 0.008 0.087 0.025 0.136 0.024 0.074 0.066 0.154 0.123 0.234 0.057 0.081 0.129 0.161 0.214 0.236s0.184 0.144 0.293 0.202c0.136 0.071 0.289 0.124 0.454 0.146 0.055 0.007 0.112 0.011 0.169 0.011 0.301 0 0.561-0.098 0.76-0.245 0.028-0.021 0.055-0.043 0.081-0.066 0.051-0.046 0.097-0.096 0.137-0.148 0.101-0.13 0.164-0.276 0.182-0.42 0.004-0.029 0.006-0.057 0.006-0.086 0-0.08-0.065-0.145-0.145-0.145zm-1.45-0.774c0.036 0.053 0.081 0.099 0.134 0.134 0.02 0.014 0.041 0.026 0.063 0.036 0.044 0.021 0.091 0.036 0.14 0.044 0.025 0.004 0.05 0.005 0.076 0.005 0.103 0 0.199-0.031 0.279-0.085 0.033-0.022 0.063-0.048 0.09-0.078 0.038-0.041 0.065-0.09 0.087-0.142 0.025-0.06 0.043-0.124 0.043-0.193 0-0.275-0.223-0.499-0.499-0.499-0.137 0-0.262 0.056-0.352 0.147-0.004 0.003-0.007 0.008-0.011 0.012-0.025 0.028-0.047 0.058-0.066 0.091-0.027 0.046-0.048 0.095-0.059 0.149-0.007 0.032-0.01 0.066-0.01 0.1s0.003 0.068 0.01 0.101c0.013 0.064 0.039 0.125 0.075 0.178zm-3.691-5.228c-0.102-0.125-0.212-0.236-0.33-0.331-0.117-0.095-0.241-0.173-0.37-0.233s-0.264-0.102-0.403-0.123c-0.07-0.01-0.14-0.016-0.212-0.016-1.141 0-2.066 1.379-2.066 3.08 0 1.7 0.925 2.886 2.066 2.886 0.072 0 0.142-0.005 0.212-0.014 0.139-0.018 0.274-0.054 0.403-0.107s0.253-0.122 0.37-0.206c0.117-0.085 0.228-0.184 0.33-0.298s0.196-0.241 0.28-0.381c0.295-0.491 0.472-1.137 0.472-1.88 0-0.744-0.177-1.427-0.472-1.959-0.084-0.152-0.178-0.292-0.28-0.418zm9.852-0.703c-1.141 0-2.066 1.379-2.066 3.079 0 1.701 0.925 2.887 2.066 2.887 1.142 0 2.067-1.186 2.067-2.887 0-1.7-0.925-3.079-2.067-3.079z"/>
  </g>
 </g>
</svg>
