<?xml version="1.0" encoding="UTF-8" standalone="no"?>
<svg xmlns="http://www.w3.org/2000/svg" height="34px" width="42px" version="1.1" xmlns:xlink="http://www.w3.org/1999/xlink" viewBox="0 0 42 34"><!-- Generator: Sketch 52 (66869) - http://www.bohemiancoding.com/sketch -->
 <title>icon--medium</title>
 <desc>Created with Sketch.</desc>
 <g id="Symbols" fill-rule="evenodd" fill="none">
  <g id="Icon-/-Logo-/-Medium" fill-rule="nonzero" fill="#111" transform="translate(0 -5)">
   <path id="icon--medium" d="m4.9804 11.802c0.0522-0.516-0.1444-1.025-0.5294-1.372l-3.9216-4.7243 0.00001-0.7057h12.177l9.412 20.641 8.274-20.641h11.608v0.7057l-3.353 3.2148c-0.289 0.2203-0.432 0.5824-0.372 0.9409v23.621c-0.06 0.359 0.083 0.721 0.372 0.941l3.275 3.215v0.706h-16.471v-0.706l3.392-3.293c0.333-0.334 0.333-0.432 0.333-0.941v-19.093l-9.431 23.954h-1.274l-10.981-23.954 0.0002 16.054c-0.0916 0.675 0.1326 1.355 0.6078 1.843l4.412 5.351v0.706h-12.51v-0.706l4.4118-5.351c0.4717-0.489 0.6828-1.173 0.5686-1.843v-18.563z"/>
  </g>
 </g>
</svg>
