<svg width="38" height="38">
  <path fill="#111" fill-rule="nonzero" d="M19 9.117c5.363 0 9.806 4.443 9.806 9.806S24.44 28.73 19 28.73s-9.806-4.367-9.806-9.807c0-5.439 4.443-9.806 9.806-9.806zm15.935-5.976C36.927 5.133 38 7.891 38 11.11v15.782c0 3.294-1.073 6.129-3.141 8.121C32.867 36.927 30.109 38 26.815 38h-15.63c-3.141 0-5.899-.996-7.967-2.988C1.073 32.944 0 30.109 0 26.815V11.109C0 4.444 4.444 0 11.109 0h15.782c3.218 0 6.053 1.073 8.044 3.141zM19 25.206c3.448 0 6.282-2.835 6.282-6.283 0-3.447-2.834-6.282-6.282-6.282s-6.282 2.835-6.282 6.282c0 3.448 2.834 6.283 6.282 6.283zM29.19 11.11a2.222 2.222 0 1 1 0-4.443 2.222 2.222 0 0 1 0 4.443zm5.286 15.782h.153V11.11c0-2.222-.766-4.137-2.069-5.516-1.379-1.38-3.294-2.069-5.592-2.069H11.185c-2.298 0-4.29.69-5.592 1.992-1.38 1.38-2.069 3.294-2.069 5.593v15.706c0 2.375.69 4.29 2.069 5.67 1.379 1.301 3.294 1.991 5.592 1.991h15.63c2.298 0 4.213-.69 5.592-1.992 1.379-1.303 2.069-3.218 2.069-5.593z"/>
</svg>