<?xml version="1.0" encoding="UTF-8" standalone="no"?>
<svg xmlns="http://www.w3.org/2000/svg" height="27px" width="42px" version="1.1" xmlns:xlink="http://www.w3.org/1999/xlink" viewBox="0 0 42 27"><!-- Generator: Sketch 52 (66869) - http://www.bohemiancoding.com/sketch -->
 <title>icon--behance</title>
 <desc>Created with Sketch.</desc>
 <g id="Symbols" fill-rule="evenodd" fill="none">
  <g id="Icon-/-Logo-/-Behance" fill-rule="nonzero" fill="#111" transform="translate(0 -8)">
   <path id="icon--behance" d="m16.951 19.892s3.973-0.296 3.973-4.956-3.251-6.936-7.37-6.936h-7.582-0.2224-5.7496v26.048h5.7496 0.2224 7.582s8.274 0.261 8.274-7.689c-0.001 0 0.361-6.467-4.877-6.467zm-10.979-7.262h6.606 0.975s1.843 0 1.843 2.709c0 2.711-1.084 3.104-2.313 3.104h-7.1119v-5.813h0.0009zm7.198 16.788c-0.2 0.005-0.37 0-0.484 0h-6.714v-6.96h7.582s2.747-0.037 2.747 3.575c-0.001 3.048-2.052 3.362-3.131 3.385zm19.694-14.791c10.542 0 9.065 11.306 9.066 11.306h-13.497c0 4.838 4.583 4.533 4.583 4.533 4.329 0 4.177-2.801 4.177-2.801h4.584c0 7.436-8.913 6.927-8.913 6.927-10.695 0-10.008-9.957-10.008-9.957s-0.009-10.008 10.008-10.008zm-4.483 7.831h8.556s0.053-4.015-3.972-4.015c-4.024 0-4.584 4.015-4.584 4.015zm-1.12-12.924h10.744v3.2078h-10.744v-3.2078z"/>
  </g>
 </g>
</svg>
