<svg width="42" height="40">
  <path fill="#111" fill-rule="nonzero" d="M41.998 24.446L42 34.481c0 .025-.003.051-.004.078a39.216 39.216 0 0 1-3.102.563 8.47 8.47 0 0 0 .029-.641 12695.475 12695.475 0 0 0-.007-10.035c-.075-1.93-.794-3.669-1.916-4.976-1.261-1.467-3.032-2.387-5-2.387v-1.259a7.017 7.017 0 0 0 1.62-1.19 7.56 7.56 0 0 0 .62-.69A9.322 9.322 0 0 1 37 15.135c1.729 1.096 3.126 2.744 4 4.739.605 1.385.967 2.927.998 4.572zm-10.667 1.895c.401 1.081.642 2.244.667 3.469L32 39.387l-.002.074A44.796 44.796 0 0 1 28.74 40c.016-.202.029-.406.029-.613 0-.109-.001-9.47-.005-9.577a7.377 7.377 0 0 0-1.039-3.469A7.458 7.458 0 0 0 27 25.325a7.22 7.22 0 0 0-5.5-2.545 7.244 7.244 0 0 0-6.5 4.041 7.346 7.346 0 0 0-.764 2.989c-.003.092-.005 9.483-.005 9.577 0 .161.015.316.024.474A43.383 43.383 0 0 1 11 39.242c0-1.188.002-9.343.004-9.432.033-1.223.279-2.386.685-3.469A10.575 10.575 0 0 1 15 21.782a10.45 10.45 0 0 1 2.258-1.363c1.118.655 2.385 1.044 3.742 1.044 1.525 0 2.943-.478 4.153-1.29a10.457 10.457 0 0 1 6.178 6.168zM7.76 13.944c.194.244.4.474.62.691A6.975 6.975 0 0 0 10 15.824v1.258c-1.492 0-2.87.533-4 1.426-1.689 1.334-2.821 3.485-2.916 5.938-.002.031-.003.799-.004 1.896l-.003 8.139c0 .216.013.429.028.641a39.737 39.737 0 0 1-3.101-.563C.003 34.532 0 34.507 0 34.481l.002-10.035c.031-1.645.392-3.187.998-4.571 1.302-2.977 3.773-5.184 6.76-5.931zm6.056 1.609c-.268.034-.54.057-.816.057a6.371 6.371 0 0 1-3-.761 6.992 6.992 0 0 1-1.62-1.191 7.547 7.547 0 0 1-.62-.689C6.668 11.591 6 9.787 6 7.805 6 3.495 9.134 0 13 0c2.358 0 4.439 1.304 5.708 3.298.727-.239 1.495-.371 2.292-.371s1.565.132 2.292.37C24.56 1.305 26.642 0 29 0c3.866 0 7 3.495 7 7.805 0 1.982-.668 3.786-1.76 5.164a7.547 7.547 0 0 1-.62.689A6.992 6.992 0 0 1 32 14.849a6.371 6.371 0 0 1-3 .761c-.276 0-.548-.023-.816-.057A8.949 8.949 0 0 1 27 17.496a8.271 8.271 0 0 1-1.847 1.701c-1.211.813-2.63 1.291-4.153 1.291-1.357 0-2.625-.39-3.743-1.045A8.203 8.203 0 0 1 15 17.496a8.949 8.949 0 0 1-1.184-1.943zM13 2.402c-2.676 0-4.846 2.42-4.846 5.403 0 2.984 2.17 5.404 4.846 5.404.042 0 .083-.006.124-.007A9.675 9.675 0 0 1 13 11.707a9.39 9.39 0 0 1 .85-3.902c.65-1.424 1.63-2.636 2.846-3.49-.89-1.169-2.214-1.913-3.696-1.913zm4.757 4.384a5.888 5.888 0 0 0-1.33 1.494 6.474 6.474 0 0 0-.924 4.145l.025-.016a6.629 6.629 0 0 0 .682 2.327l-.006.003c.07.135.144.27.224.397.997 1.6 2.672 2.65 4.572 2.65s3.575-1.05 4.572-2.65c.08-.128.153-.262.224-.397l-.006-.003a6.629 6.629 0 0 0 .682-2.327l.025.016a6.474 6.474 0 0 0-.924-4.145 5.888 5.888 0 0 0-1.33-1.494 5.288 5.288 0 0 0-1.998-.997c-.401-.101-.816-.16-1.245-.16s-.844.059-1.245.16a5.288 5.288 0 0 0-1.998.997zM29 2.402c-1.482 0-2.807.744-3.696 1.912 1.216.855 2.196 2.067 2.845 3.49a9.39 9.39 0 0 1 .85 3.903c0 .51-.047 1.008-.123 1.495.04.001.082.007.124.007 2.676 0 4.846-2.42 4.846-5.404 0-2.983-2.17-5.403-4.846-5.403z"/>
</svg>