<svg width="40" height="40">
  <path fill="#111" fill-rule="nonzero" d="M20.836 3.024L3.024 20.837a1.54 1.54 0 0 0 0 2.177L16.08 36.07c.6.6 1.575.6 2.175 0l17.867-17.868c.315-.315.478-.75.447-1.195l-.811-11.635a1.54 1.54 0 0 0-1.365-1.422l-12.3-1.366a1.54 1.54 0 0 0-1.257.441zM34.352 1.36a4.5 4.5 0 0 1 3.992 4.159l.791 11.343a4.499 4.499 0 0 1-1.307 3.495L20.41 37.775a4.499 4.499 0 0 1-6.364 0L1.318 25.047a4.5 4.5 0 0 1 0-6.364L18.683 1.318a4.5 4.5 0 0 1 3.679-1.29l11.99 1.332zm-7.158 11.246a4 4 0 1 1 5.656-5.657 4 4 0 0 1-5.656 5.657zm1.414-1.414a2 2 0 1 0 2.829-2.83 2 2 0 0 0-2.829 2.83zM20.462 27.66c-1.017 1.017-2.16 1.479-3.428 1.386s-2.482-.634-3.643-1.623l-1.246 1.247-1.032-1.032 1.247-1.246c-.76-.846-1.358-1.702-1.795-2.57s-.713-1.614-.827-2.245l2.923-2.15 1.483 1.699-1.655 1.354a7.466 7.466 0 0 0 1.397 2.386l3.782-3.783a15.913 15.913 0 0 1-1.665-3.235c-.423-1.124-.068-2.253 1.064-3.385 1.074-1.074 2.228-1.49 3.46-1.246 1.232.243 2.343.802 3.331 1.676l1.397-1.397 1.032 1.032-1.397 1.397c.616.73 1.089 1.447 1.418 2.149.33.702.559 1.36.688 1.977l-2.364 2.75-1.719-1.46 1.483-1.956a5.002 5.002 0 0 0-1.011-1.956l-3.245 3.246c.358.558.724 1.225 1.096 1.998.373.774.545 1.59.516 2.45-.029.86-.459 1.706-1.29 2.537zM19.28 16.247c-.472.473-.67.978-.591 1.515.079.538.29 1.093.634 1.666l3.052-3.052c-1.218-.931-2.249-.974-3.095-.13zm-1.01 9.607c.53-.53.77-1.092.72-1.687-.05-.594-.233-1.193-.548-1.794l-3.525 3.524c1.261.946 2.379.932 3.353-.043z"/>
</svg>