<svg width="42" height="42">
  <path fill="#111" fill-rule="nonzero" d="M2.985 20.999c0 7.13 4.144 13.293 10.153 16.213L4.545 13.667a17.947 17.947 0 0 0-1.56 7.332zm30.176-.909c0-2.227-.8-3.768-1.486-4.968-.913-1.484-1.769-2.741-1.769-4.225 0-1.656 1.256-3.197 3.025-3.197.08 0 .156.01.234.014A17.95 17.95 0 0 0 21 2.985c-6.294 0-11.831 3.229-15.052 8.12.423.012.82.021 1.16.021 1.883 0 4.8-.228 4.8-.228.971-.058 1.086 1.369.116 1.484 0 0-.976.114-2.062.171l6.56 19.513 3.943-11.823-2.807-7.69a32.786 32.786 0 0 1-1.889-.172c-.971-.057-.857-1.541.114-1.484 0 0 2.975.229 4.745.229 1.884 0 4.801-.229 4.801-.229.971-.057 1.086 1.369.115 1.484 0 0-.978.115-2.062.172l6.511 19.365 1.796-6.005c.779-2.491 1.372-4.281 1.372-5.823zm-11.845 2.485l-5.405 15.706a18.033 18.033 0 0 0 11.071-.288 1.573 1.573 0 0 1-.128-.248l-5.538-15.17zm15.491-10.219c.077.574.121 1.19.121 1.852 0 1.828-.341 3.883-1.37 6.453L30.056 36.57c5.355-3.123 8.957-8.925 8.957-15.571a17.899 17.899 0 0 0-2.207-8.643h.001zM21 0C9.421 0 0 9.42 0 20.999c0 11.58 9.42 21 21 21 11.578 0 21-9.42 21-21C42 9.42 32.578 0 21 0zm0 41.036C9.952 41.036.963 32.047.963 20.999.963 9.951 9.951.963 21 .963c11.047 0 20.035 8.988 20.035 20.036S32.047 41.036 21 41.036z"/>
</svg>