<svg width="42" height="27">
  <path fill="#111" fill-rule="nonzero" d="M13.34 11.431c4.248-.013 8.496-.02 12.751.012.254 3.567-.217 7.363-2.408 10.312-3.318 4.668-9.98 6.031-15.177 4.031C3.29 23.799-.404 18.29.036 12.673.15 5.8 6.467-.218 13.34.011c3.293-.153 6.388 1.28 8.91 3.293a47.418 47.418 0 0 1-3.382 3.503c-3.03-2.096-7.343-2.694-10.375-.274-4.337 3-4.534 10.082-.362 13.311 4.056 3.681 11.726 1.853 12.846-3.783-2.541-.039-5.088 0-7.63-.083-.006-1.516-.012-3.032-.006-4.547zm24.851-.02c1.268.013 2.542.013 3.809.026v3.789c-1.267.013-2.535.02-3.809.032a811.404 811.404 0 0 0-.025 3.809H34.37c-.013-1.268-.013-2.535-.025-3.802l-3.809-.039v-3.789c1.267-.013 2.535-.019 3.809-.026.006-1.273.019-2.541.031-3.808h3.79c.006 1.267.013 2.541.025 3.808z"/>
</svg>