<?xml version="1.0" encoding="UTF-8" standalone="no"?>
<svg xmlns="http://www.w3.org/2000/svg" height="32px" width="42px" version="1.1" xmlns:xlink="http://www.w3.org/1999/xlink" viewBox="0 0 42 32"><!-- Generator: Sketch 52 (66869) - http://www.bohemiancoding.com/sketch -->
 <title>icon--prototyping</title>
 <desc>Created with Sketch.</desc>
 <g id="Symbols" fill-rule="evenodd" fill="none">
  <g id="Icon-/-UI-/-Prototyping" fill-rule="nonzero" fill="#111" transform="translate(0 -5)">
   <path id="icon--prototyping" d="m0 5h42v31.216h-42v-23.27-7.946zm9.6486 5.108v-1.7027h1.7024v1.7027h-1.7024zm27.243 0v-1.7027h1.703v1.7027h-1.703zm-22.135 0v-1.7027h21v1.7027h-21zm-11.352 0v-1.7027h1.7027v1.7027h-1.7027zm2.8378 0v-1.7027h1.7027v1.7027h-1.7027zm-4.5405 1.135h38.594v-4.5403h-38.594l-0.0003 4.5403zm0 23.272h38.594v-21.569h-38.594l-0.0003 21.569zm23.345-17.618c-0.392-0.184-0.65-0.58-0.65-1.018 0-0.619 0.504-1.122 1.123-1.122h3.929c0.619 0 1.122 0.503 1.122 1.122 0 0.438-0.257 0.834-0.649 1.018v14.185c0 1.345-1.094 2.438-2.438 2.438s-2.437-1.093-2.437-2.438v-14.185zm0.473-1.296c-0.153 0-0.278 0.125-0.278 0.278 0 0.154 0.125 0.279 0.278 0.279h3.929c0.153 0 0.278-0.125 0.278-0.279 0-0.153-0.125-0.278-0.278-0.278h-3.929zm0.229 4.335l0.185-0.058c0.541-0.171 1.264-0.19 1.55-0.19 0.287 0 1.01 0.019 1.551 0.19l0.185 0.058v-3.217h-3.471v3.217zm3.133 0.605l0.469-0.136-0.469-0.137c-0.208-0.06-0.666-0.161-1.398-0.161-0.731 0-1.189 0.101-1.397 0.161l-0.47 0.137 0.47 0.136c0.208 0.061 0.666 0.162 1.397 0.162 0.732 0 1.19-0.101 1.398-0.162zm-1.298 2.757c-0.115 0-0.209-0.093-0.209-0.209s0.094-0.21 0.209-0.21h1.636v-2.005l-0.185 0.058c-0.541 0.171-1.264 0.19-1.551 0.19-0.286 0-1.009-0.019-1.55-0.19l-0.185-0.058v10.208c0 0.957 0.779 1.735 1.735 1.735 0.957 0 1.736-0.778 1.736-1.735v-1.493h-1.636c-0.115 0-0.209-0.095-0.209-0.21 0-0.116 0.094-0.209 0.209-0.209h1.636v-0.63h-0.645c-0.116 0-0.21-0.094-0.21-0.209s0.094-0.21 0.21-0.21h0.645v-0.63h-1.636c-0.115 0-0.209-0.094-0.209-0.209s0.094-0.209 0.209-0.209h1.636v-0.629h-0.645c-0.116 0-0.21-0.095-0.21-0.21 0-0.116 0.094-0.21 0.21-0.21h0.645v-0.629h-1.636c-0.115 0-0.209-0.094-0.209-0.21 0-0.115 0.094-0.209 0.209-0.209h1.636v-0.63h-0.645c-0.116 0-0.21-0.093-0.21-0.209s0.094-0.209 0.21-0.209h0.645v-0.63h-1.636zm-9.973 10.222c-3.41 0-6.185-2.774-6.185-6.184 0-2.547 1.583-4.851 3.948-5.767v-5.624c-0.355-0.178-0.587-0.547-0.587-0.947 0-0.584 0.475-1.059 1.059-1.059h3.529c0.584 0 1.059 0.475 1.059 1.059 0 0.4-0.232 0.769-0.586 0.947v5.624c2.365 0.916 3.947 3.22 3.947 5.767 0 3.41-2.774 6.184-6.184 6.184zm-5.323-6.616c-0.012 0.142-0.017 0.287-0.017 0.432 0 2.944 2.395 5.34 5.34 5.34 2.944 0 5.339-2.396 5.339-5.34 0-0.145-0.005-0.29-0.017-0.432-0.309 0.121-0.745 0.221-1.329 0.309-1.069 0.161-2.487 0.249-3.993 0.249s-2.924-0.088-3.994-0.249c-0.584-0.088-1.02-0.188-1.329-0.309zm5.373 5.137c-0.178 0-0.331-0.135-0.349-0.316-0.02-0.192 0.121-0.365 0.314-0.385 0.858-0.087 1.67-0.414 2.351-0.947 0.153-0.12 0.373-0.093 0.493 0.059 0.119 0.153 0.093 0.374-0.06 0.493-0.785 0.616-1.723 0.994-2.713 1.094-0.012 0.002-0.024 0.002-0.036 0.002zm3.207-1.66c-0.082 0-0.165-0.029-0.231-0.086-0.147-0.128-0.161-0.35-0.034-0.496 0.162-0.185 0.308-0.382 0.436-0.587 0.102-0.165 0.319-0.214 0.484-0.112 0.164 0.103 0.215 0.32 0.112 0.485-0.148 0.236-0.317 0.463-0.503 0.676-0.069 0.08-0.166 0.12-0.264 0.12zm-3.257-4.596c-2.721 0-4.398 0.273-5.016 0.488 0.618 0.214 2.296 0.487 5.016 0.487s4.398-0.273 5.016-0.487c-0.618-0.215-2.296-0.488-5.016-0.488zm-1.593-3.398c-1.47 0.473-2.626 1.541-3.208 2.95 0.223-0.052 0.483-0.1 0.786-0.145 1.076-0.162 2.502-0.251 4.014-0.251 1.513 0 2.939 0.089 4.015 0.251 0.303 0.045 0.563 0.093 0.787 0.145-0.582-1.409-1.739-2.477-3.209-2.95-0.205-0.066-0.342-0.255-0.342-0.469v-5.861h-2.501v5.861c0 0.214-0.137 0.403-0.342 0.469zm3.714-7.389c0-0.196-0.16-0.356-0.357-0.356h-3.529c-0.095 0-0.185 0.037-0.252 0.105-0.067 0.067-0.104 0.156-0.104 0.251 0 0.196 0.16 0.356 0.356 0.356h3.529c0.197 0 0.357-0.16 0.357-0.356zm8.377 17.246c-0.087 0-0.177-0.037-0.241-0.109-0.059-0.065-0.089-0.149-0.084-0.232 0.006-0.073 0.039-0.14 0.094-0.186 0.242-0.2 0.407-0.476 0.478-0.795 0.016-0.075 0.063-0.137 0.131-0.174 0.071-0.038 0.159-0.044 0.241-0.013 0.108 0.04 0.185 0.135 0.207 0.24 0.01 0.04 0.012 0.081 0.003 0.122-0.001 0.007-0.004 0.012-0.006 0.019-0.099 0.427-0.322 0.796-0.648 1.068l-0.026 0.018c-0.044 0.029-0.096 0.042-0.149 0.042z"/>
  </g>
 </g>
</svg>
