<?xml version="1.0" encoding="UTF-8" standalone="no"?>
<svg xmlns="http://www.w3.org/2000/svg" height="40px" width="40px" version="1.1" xmlns:xlink="http://www.w3.org/1999/xlink" viewBox="0 0 40 40"><!-- Generator: Sketch 52 (66869) - http://www.bohemiancoding.com/sketch -->
 <title>icon--ecomm</title>
 <desc>Created with Sketch.</desc>
 <g id="Symbols" fill-rule="evenodd" fill="none">
  <g id="Icon-/-UI-/-Ecomm" fill-rule="nonzero" fill="#111" transform="translate(-1 -1)">
   <path id="icon--ecomm" d="m21.836 4.0245l-17.812 17.812c-0.6011 0.602-0.6011 1.576-0.0003 2.177l13.056 13.056c0.6 0.601 1.575 0.601 2.175 0l17.867-17.867c0.315-0.315 0.478-0.751 0.447-1.195l-0.811-11.635c-0.052-0.7417-0.627-1.3402-1.365-1.4223l-12.299-1.3665c-0.464-0.0516-0.927 0.1107-1.258 0.4413zm13.516-1.6648c2.16 0.2401 3.841 1.9906 3.992 4.1593l0.791 11.343c0.091 1.299-0.386 2.574-1.307 3.495l-17.418 17.418c-1.757 1.758-4.607 1.758-6.364 0l-12.728-12.728c-1.7573-1.757-1.7573-4.606 0-6.364l17.365-17.365c0.967-0.9666 2.32-1.4414 3.679-1.2904l11.99 1.3321zm-7.158 11.246c-1.562-1.562-1.562-4.0944 0-5.6565s4.095-1.5621 5.657 0 1.562 4.0945 0 5.6565-4.095 1.562-5.657 0zm1.414-1.414c0.781 0.781 2.048 0.781 2.829 0s0.781-2.047 0-2.8283c-0.781-0.781-2.048-0.781-2.829 0-0.781 0.7813-0.781 2.0473 0 2.8283zm-8.146 16.468c-1.017 1.017-2.16 1.479-3.428 1.386s-2.482-0.634-3.643-1.623l-1.246 1.247-1.032-1.032 1.247-1.246c-0.76-0.846-1.358-1.702-1.795-2.569s-0.713-1.615-0.827-2.246l2.923-2.149 1.483 1.698-1.655 1.354c0.329 0.903 0.795 1.698 1.397 2.386l3.782-3.783c-0.687-1.032-1.243-2.11-1.665-3.235-0.423-1.124-0.068-2.253 1.064-3.385 1.074-1.074 2.228-1.49 3.46-1.246 1.232 0.243 2.343 0.802 3.331 1.676l1.397-1.397 1.032 1.032-1.397 1.397c0.616 0.731 1.089 1.447 1.418 2.149 0.33 0.702 0.559 1.361 0.688 1.977l-2.364 2.751-1.719-1.461 1.483-1.956c-0.201-0.745-0.538-1.397-1.011-1.956l-3.245 3.246c0.358 0.558 0.724 1.225 1.096 1.998 0.373 0.774 0.545 1.591 0.516 2.451-0.029 0.859-0.459 1.705-1.29 2.536zm-1.182-11.413c-0.472 0.473-0.67 0.978-0.591 1.515 0.079 0.538 0.29 1.093 0.634 1.666l3.052-3.052c-1.218-0.931-2.249-0.974-3.095-0.129zm-1.01 9.607c0.53-0.53 0.77-1.092 0.72-1.687-0.05-0.594-0.233-1.193-0.548-1.794l-3.525 3.524c1.261 0.946 2.379 0.932 3.353-0.043z"/>
  </g>
 </g>
</svg>
