<svg width="42" height="27">
  <path fill="#111" fill-rule="nonzero" d="M16.951 11.892s3.973-.296 3.973-4.956S17.673 0 13.554 0H0v26.048h13.554s8.274.261 8.274-7.689c-.001 0 .361-6.467-4.877-6.467zM5.972 4.63H13.553s1.843 0 1.843 2.709c0 2.711-1.084 3.104-2.313 3.104H5.971V4.63h.001zm7.198 16.788c-.2.005-.37 0-.484 0H5.972v-6.96h7.582s2.747-.037 2.747 3.575c-.001 3.048-2.052 3.362-3.131 3.385zM32.864 6.627c10.542 0 9.065 11.306 9.066 11.306H28.433c0 4.838 4.583 4.533 4.583 4.533 4.329 0 4.177-2.801 4.177-2.801h4.584c0 7.436-8.913 6.927-8.913 6.927-10.695 0-10.008-9.957-10.008-9.957S22.847 6.627 32.864 6.627zm-4.483 7.831h8.556s.053-4.015-3.972-4.015c-4.024 0-4.584 4.015-4.584 4.015zm-1.12-12.924h10.744v3.208H27.261V1.534z"/>
</svg>