<svg width="37" height="42">
  <defs>
    <path id="a" d="M26.892 41.264l1.56-36.318c.066.034.133.067.199.133.265.233 2.455 2.424 2.455 2.424s3.153.232 3.319.232.332.133.365.332c.033.199 4.513 30.508 4.513 30.508l-12.411 2.689zM27.921 4.88l-1.593 36.417L3 36.915s3.02-23.404 3.152-24.201c.133-1.095.166-1.128 1.328-1.493.166-.067 1.659-.532 3.716-1.162C11.993 6.673 14.548 0 19.89 0c.697 0 1.494.365 2.157 1.195h.199c2.29 0 3.584 1.959 4.314 4.083.73-.232 1.195-.365 1.228-.365s.1-.033.133-.033zm-6.073 1.627c0-1.594-.199-2.756-.531-3.619-1.294.565-2.787 2.058-3.583 5.113 1.393-.432 2.82-.864 4.114-1.262v-.232zm-2.123-5.08c-3.817 0-5.974 5.013-6.869 8.1 1.028-.298 2.123-.63 3.252-.995.763-4.05 2.621-6.075 4.313-6.872a1.167 1.167 0 0 0-.696-.232zm.929 18.027l1.626-4.68s-1.062-.631-3.219-.631c-5.608 0-8.362 3.75-8.362 7.602 0 4.58 4.579 4.714 4.579 7.502 0 .664-.498 1.594-1.659 1.594-1.792 0-3.916-1.826-3.916-1.826L8.608 32.6s2.057 2.523 6.106 2.523c3.385 0 5.873-2.523 5.873-6.473 0-5.013-5.575-5.843-5.575-7.967 0-.4.1-1.96 2.589-1.96 1.659 0 3.053.73 3.053.73zm2.123-16.797c.299.863.465 1.925.465 3.22v.431c.73-.232 1.394-.431 1.991-.63-.498-1.528-1.261-2.889-2.456-3.021z"/>
  </defs>
  <use fill="#111" fill-rule="nonzero" transform="translate(-3)" xlink:href="#a"/>
</svg>