<?xml version="1.0" encoding="UTF-8" standalone="no"?>
<svg xmlns="http://www.w3.org/2000/svg" height="38px" width="38px" version="1.1" xmlns:xlink="http://www.w3.org/1999/xlink" viewBox="0 0 38 38"><!-- Generator: Sketch 52 (66869) - http://www.bohemiancoding.com/sketch -->
 <title>icon--instagram</title>
 <desc>Created with Sketch.</desc>
 <g id="Symbols" fill-rule="evenodd" fill="none">
  <g id="Icon-/-Logo-/-Instagram" fill-rule="nonzero" fill="#111" transform="translate(-2 -2)">
   <path id="icon--instagram" d="m21 11.117c5.363 0 9.806 4.443 9.806 9.806s-4.366 9.807-9.806 9.807-9.806-4.367-9.806-9.807c0-5.439 4.443-9.806 9.806-9.806zm15.935-5.9759c1.992 1.992 3.065 4.75 3.065 7.9679v15.782c0 3.294-1.073 6.129-3.141 8.121-1.992 1.915-4.75 2.988-8.044 2.988h-15.63c-3.141 0-5.8987-0.996-7.9673-2.988-2.1451-2.068-3.2177-4.903-3.2177-8.197v-15.706c0-6.6655 4.4435-11.109 11.109-11.109h15.782c3.218 0 6.053 1.0726 8.044 3.1411zm-15.935 22.065c3.448 0 6.282-2.835 6.282-6.283 0-3.447-2.834-6.282-6.282-6.282s-6.282 2.835-6.282 6.282c0 3.448 2.834 6.283 6.282 6.283zm10.19-14.097c-1.228 0-2.222-0.995-2.222-2.222s0.994-2.2217 2.222-2.2217c1.227 0 2.221 0.9947 2.221 2.2217s-0.994 2.222-2.221 2.222zm5.286 15.782h0.153v-15.782c0-2.222-0.766-4.1372-2.069-5.5163-1.379-1.379-3.294-2.0685-5.592-2.0685h-15.783c-2.298 0-4.2898 0.6895-5.5923 1.9919-1.379 1.3791-2.0685 3.2939-2.0685 5.5929v15.706c0 2.375 0.6895 4.29 2.0685 5.669 1.3791 1.302 3.2943 1.992 5.5923 1.992h15.63c2.298 0 4.213-0.69 5.592-1.992 1.379-1.303 2.069-3.218 2.069-5.593z"/>
  </g>
 </g>
</svg>
