<?xml version="1.0" encoding="UTF-8" standalone="no"?>
<svg xmlns="http://www.w3.org/2000/svg" height="32px" width="42px" version="1.1" xmlns:xlink="http://www.w3.org/1999/xlink" viewBox="0 0 42 32"><!-- Generator: Sketch 52 (66869) - http://www.bohemiancoding.com/sketch -->
 <title>icon--SASS</title>
 <desc>Created with Sketch.</desc>
 <defs>
  <path id="path-1" d="m29.697 28.79c-0.133-0.095-0.111-0.401 0.327-1.356 0.172-0.375 0.565-1.006 1.247-1.609 0.079 0.248 0.128 0.486 0.126 0.707-0.009 1.478-1.063 2.029-1.7 2.258zm-5.61 1.279c-0.179 0.094-0.343 0.152-0.419 0.107-0.056-0.033 0.074-0.156 0.074-0.156s0.911-0.98 1.27-1.427c0.208-0.259 0.45-0.567 0.714-0.912 0.002 0.035 0.003 0.069 0.003 0.103-0.002 1.174-1.136 1.966-1.642 2.285zm-7.283-3.475c-0.421 1.028-1.303 3.656-1.84 3.515-0.461-0.121-0.741-2.119-0.092-4.085 0.327-0.99 1.025-2.172 1.436-2.632 0.66-0.738 1.387-0.98 1.564-0.68 0.225 0.381-0.803 3.238-1.068 3.882zm-8.814 5.993c-1.2099 1.32-2.9003 1.818-3.6252 1.398-0.7826-0.454-0.4727-2.397 1.0121-3.798 0.905-0.853 2.0733-1.639 2.8483-2.124 0.1764-0.106 0.4356-0.262 0.7505-0.45 0.0522-0.03 0.0816-0.047 0.0816-0.047l-0.0011-0.002c0.0608-0.036 0.123-0.073 0.1874-0.112 0.5402 1.994 0.0164 3.749-1.2536 5.135zm28.156-9.493c-1.468 0.008-2.74 0.361-3.806 0.886-0.389-0.778-0.784-1.462-0.85-1.971-0.077-0.594-0.167-0.949-0.074-1.656 0.094-0.708 0.503-1.71 0.497-1.785s-0.092-0.436-0.938-0.442c-0.847-0.006-1.571 0.163-1.656 0.386-0.086 0.224-0.249 0.727-0.35 1.252-0.148 0.767-1.691 3.505-2.566 4.938-0.287-0.559-0.53-1.052-0.581-1.442-0.077-0.594-0.167-0.948-0.073-1.656 0.093-0.708 0.502-1.71 0.496-1.785-0.005-0.075-0.091-0.436-0.938-0.442s-1.571 0.163-1.656 0.387c-0.085 0.223-0.176 0.746-0.35 1.251-0.173 0.505-2.223 5.073-2.76 6.257-0.274 0.603-0.512 1.087-0.68 1.418l-0.001-0.001s-0.01 0.022-0.028 0.059c-0.144 0.282-0.23 0.437-0.23 0.437s0.001 0.003 0.003 0.006c-0.114 0.207-0.237 0.399-0.297 0.399-0.042 0-0.127-0.55 0.018-1.306 0.305-1.585 1.038-4.056 1.031-4.141-0.004-0.043 0.136-0.474-0.479-0.699-0.597-0.219-0.81 0.146-0.864 0.147-0.053 0.001-0.093 0.129-0.093 0.129s0.666-2.779-1.269-2.779c-1.21 0-2.887 1.324-3.713 2.524-0.521 0.284-1.636 0.893-2.82 1.543-0.454 0.25-0.918 0.505-1.358 0.747-0.0299-0.033-0.0597-0.066-0.0904-0.099-2.3468-2.503-6.6851-4.274-6.5011-7.64 0.0669-1.224 0.4923-4.446 8.3365-8.3549 6.425-3.2018 11.569-2.3207 12.458-0.3681 1.27 2.79-2.749 7.975-9.422 8.723-2.543 0.285-3.881-0.701-4.214-1.068-0.3507-0.386-0.403-0.403-0.5338-0.331-0.2132 0.118-0.0781 0.459 0 0.662 0.1992 0.519 1.0168 1.438 2.4108 1.896 1.226 0.402 4.211 0.623 7.821-0.773 4.043-1.564 7.2-5.914 6.272-9.5506-0.943-3.6984-7.075-4.9142-12.879-2.8523-3.4537 1.2271-7.1929 3.1531-9.8814 5.6679-3.1967 2.99-3.7064 5.592-3.4964 6.68 0.74632 3.863 6.0717 6.38 8.2043 8.244-0.1053 0.058-0.204 0.113-0.2938 0.162-1.0691 0.529-5.1285 2.654-6.1439 4.898-1.1518 2.546 0.1834 4.373 1.0673 4.619 2.7387 0.762 5.549-0.608 7.0594-2.861 1.5095-2.253 1.3255-5.185 0.6325-6.524-0.009-0.016-0.018-0.033-0.027-0.049 0.276-0.164 0.558-0.33 0.837-0.494 0.544-0.319 1.078-0.617 1.542-0.869-0.26 0.71-0.45 1.562-0.549 2.792-0.116 1.446 0.477 3.314 1.252 4.049 0.341 0.323 0.752 0.331 1.012 0.331 0.902 0 1.313-0.75 1.766-1.638 0.556-1.088 1.049-2.355 1.049-2.355s-0.619 3.423 1.068 3.423c0.614 0 1.232-0.797 1.507-1.203 0.001 0.004 0.002 0.006 0.002 0.006s0.016-0.026 0.047-0.079c0.064-0.098 0.1-0.16 0.1-0.16s0.001-0.006 0.003-0.017c0.247-0.429 0.795-1.407 1.616-3.019 1.062-2.083 2.08-4.693 2.08-4.693s0.094 0.638 0.404 1.693c0.183 0.621 0.571 1.307 0.876 1.965-0.246 0.342-0.397 0.538-0.397 0.538s0.001 0.004 0.004 0.01c-0.197 0.261-0.417 0.543-0.648 0.818-0.838 0.998-1.836 2.137-1.969 2.466-0.158 0.387-0.12 0.672 0.184 0.902 0.222 0.167 0.618 0.193 1.03 0.165 0.753-0.05 1.283-0.237 1.544-0.351 0.407-0.144 0.882-0.37 1.327-0.698 0.822-0.604 1.317-1.468 1.27-2.613-0.027-0.631-0.228-1.256-0.482-1.846 0.074-0.107 0.149-0.216 0.224-0.325 1.296-1.894 2.3-3.975 2.3-3.975s0.095 0.638 0.405 1.693c0.157 0.534 0.467 1.117 0.745 1.688-1.218 0.99-1.973 2.14-2.235 2.894-0.485 1.395-0.105 2.028 0.607 2.172 0.323 0.065 0.778-0.083 1.121-0.228 0.427-0.142 0.94-0.377 1.418-0.729 0.822-0.604 1.612-1.45 1.565-2.595-0.022-0.521-0.164-1.038-0.355-1.535 1.032-0.43 2.369-0.67 4.072-0.471 3.653 0.427 4.369 2.708 4.232 3.662-0.137 0.955-0.903 1.479-1.159 1.638-0.256 0.158-0.335 0.213-0.313 0.331 0.031 0.171 0.15 0.165 0.368 0.128 0.301-0.051 1.918-0.776 1.987-2.538 0.088-2.237-2.055-4.695-5.851-4.675z"/>
 </defs>
 <g id="Symbols" fill-rule="evenodd" fill="none">
  <g id="Icon-/-Logo-/-SASS" transform="translate(0 -5)">
   <mask id="mask-2" fill="white">
    <use xlink:href="#path-1"/>
   </mask>
   <use id="icon--SASS" xlink:href="#path-1" fill-rule="nonzero" fill="#111111"/>
  </g>
 </g>
</svg>
