<?xml version="1.0" encoding="UTF-8" standalone="no"?>
<svg xmlns="http://www.w3.org/2000/svg" height="42px" width="37px" version="1.1" xmlns:xlink="http://www.w3.org/1999/xlink" viewBox="0 0 37 42"><!-- Generator: Sketch 52 (66869) - http://www.bohemiancoding.com/sketch -->
 <title>icon--shopify</title>
 <desc>Created with Sketch.</desc>
 <defs>
  <path id="path-1" d="m26.892 41.264l1.56-36.318c0.066 0.0335 0.133 0.0667 0.199 0.1331 0.265 0.2324 2.455 2.4234 2.455 2.4234s3.153 0.2324 3.319 0.2324 0.332 0.1328 0.365 0.332c0.033 0.1991 4.513 30.508 4.513 30.508l-12.411 2.689zm1.029-36.384l-1.593 36.417-23.328-4.382s3.0197-23.404 3.1524-24.201c0.1328-1.095 0.166-1.128 1.3274-1.493 0.1659-0.067 1.6592-0.532 3.7162-1.162 0.797-3.3864 3.352-10.059 8.694-10.059 0.697 0 1.494 0.36517 2.157 1.1951h0.199c2.29 0 3.584 1.9586 4.314 4.0832 0.73-0.2324 1.195-0.3652 1.228-0.3652s0.1-0.0332 0.133-0.0332zm-6.073 1.6267c0-1.5935-0.199-2.7553-0.531-3.6185-1.294 0.5644-2.787 2.0582-3.583 5.1124 1.393-0.4316 2.82-0.8632 4.114-1.2615v-0.2324zm-2.123-5.0791c-3.817 0-5.974 5.0127-6.869 8.1 1.028-0.2988 2.123-0.6307 3.252-0.9959 0.763-4.05 2.621-6.075 4.313-6.8718-0.232-0.1659-0.464-0.2323-0.696-0.2323zm0.929 18.026l1.626-4.68s-1.062-0.631-3.219-0.631c-5.608 0-8.362 3.751-8.362 7.602 0 4.581 4.579 4.714 4.579 7.502 0 0.664-0.498 1.594-1.659 1.594-1.792 0-3.9159-1.826-3.9159-1.826l-1.0951 3.585s2.057 2.523 6.106 2.523c3.385 0 5.873-2.523 5.873-6.473 0-5.013-5.575-5.843-5.575-7.967 0-0.399 0.1-1.959 2.589-1.959 1.659 0 3.053 0.73 3.053 0.73zm2.123-16.797c0.299 0.8631 0.465 1.9254 0.465 3.2201v0.4315c0.73-0.2324 1.394-0.4315 1.991-0.6307-0.498-1.5271-1.261-2.8882-2.456-3.0209z"/>
 </defs>
 <g id="Symbols" fill-rule="evenodd" fill="none">
  <g id="Icon-/-Logo-/-Shopify" transform="translate(-3)">
   <mask id="mask-2" fill="white">
    <use xlink:href="#path-1"/>
   </mask>
   <use id="icon--shopify" xlink:href="#path-1" fill-rule="nonzero" fill="#111111"/>
  </g>
 </g>
</svg>
