<svg width="42" height="35">
  <path fill="#111" fill-rule="nonzero" d="M41.829 16.805a.146.146 0 0 0 .169-.116.147.147 0 0 0-.116-.169c-1.975-.364-3.42-.766-8.295-.726.304-1.124.468-2.453.501-4.027-.008-4.269-2.051-5.78-2.444-6.488.579-3.232-.096-4.703-.41-5.208-1.157-.412-4.028 1.06-5.595 2.096-2.557-.747-7.959-.675-9.985.193C11.915-.317 9.938.093 9.938.093S8.659 2.384 9.6 5.737c-1.23 1.568-2.147 2.677-2.147 5.618 0 1.656.195 3.139.635 4.433-1.956-.004-6.057.259-7.978.734a.146.146 0 0 0-.106.175.146.146 0 0 0 .176.106c1.938-.479 6.176-.74 8.012-.724.106.279.223.549.353.81-4.722.126-5.995.8-7.978 1.295-.143.037-.284.071-.421.105a.146.146 0 0 0-.106.176.146.146 0 0 0 .175.106l.423-.106c1.988-.497 3.279-1.175 8.058-1.29 1.405 2.551 4.114 4.138 8.683 4.576-.653.495-1.436 1.435-1.544 2.521-.82.531-2.469.706-3.751.301-1.796-.567-2.484-4.124-5.174-3.617-.583.11-.467.494.037.82.82.53 1.592 1.194 2.187 2.607.457 1.086 1.418 3.025 4.457 3.025 1.206 0 2.051-.145 2.051-.145s.023 2.77.023 3.847c0 1.241-1.675 1.592-1.675 2.189 0 .236.554.258 1 .258.881 0 2.714-.735 2.714-2.026 0-1.025.016-4.473.016-5.076 0-1.319.708-1.737.708-1.737s.087 7.04-.169 7.983c-.301 1.11-.844.953-.844 1.448 0 .736 2.206.18 2.937-1.436.566-1.258.319-8.164.319-8.164l.602-.012s.034 3.161.014 4.606c-.021 1.497-.123 3.39.766 4.282.584.587 2.476 1.616 2.476.675 0-.547-1.037-.996-1.037-2.476v-6.809c.828 0 .704 2.239.704 2.239l.06 4.16s-.182 1.515 1.639 2.15c.643.225 2.019.286 2.083-.091.065-.379-1.656-.941-1.672-2.115-.009-.716.032-1.134.032-4.245s-.417-4.261-1.873-5.178c4.493-.462 7.273-1.573 8.628-4.551 1.558.052 4.818.211 8.608 1.369a.144.144 0 0 0 .18-.095.144.144 0 0 0-.096-.181c-3.738-1.144-6.899-1.322-8.568-1.378.105-.259.202-.53.287-.814 4.903-.046 6.352.356 8.325.72zM7.791 21.538c-.18 0-.326-.097-.326-.217s.146-.217.326-.217.326.097.326.217-.146.217-.326.217zm.687.334c0-.12.146-.217.326-.217s.326.097.326.217-.146.217-.326.217-.326-.097-.326-.217zm.62.736c0-.12.145-.217.325-.217.18 0 .326.097.326.217s-.146.217-.326.217c-.18 0-.326-.097-.326-.217zm.868 1.049c-.18 0-.326-.097-.326-.217s.146-.217.326-.217c.18 0 .325.097.325.217s-.146.217-.325.217zm.62.784c-.18 0-.327-.098-.327-.217 0-.12.146-.217.326-.217.18 0 .325.097.325.217 0 .119-.146.217-.325.217zm.835.667c-.18 0-.326-.097-.326-.217s.146-.217.326-.217c.18 0 .325.097.325.217s-.146.217-.325.217zm1.17.434c-.18 0-.326-.097-.326-.217s.146-.217.325-.217c.18 0 .326.097.326.217s-.146.217-.326.217zm1.173 0c-.18 0-.326-.097-.326-.217s.146-.217.326-.217.326.097.326.217-.146.217-.326.217zm1.178-.185c-.18 0-.326-.097-.326-.217s.146-.217.326-.217.326.097.326.217-.146.217-.326.217zm9.222-4.621a88.584 88.584 0 0 1-5.932-.001c-4.936-.173-7.654-2.256-7.654-5.865 0-.375.08-1.693 1.1-2.917.993-1.19 2.514-1.819 4.398-1.819.13 0 .36.014.825.043 1 .062 2.672.166 4.33.166 1.498 0 3.015-.111 3.83-.17.382-.028.535-.039.634-.039 4.01 0 5.438 2.562 5.438 4.959 0 2.47-1.209 5.455-6.969 5.643zM6.81 23.858c.777 0 .013-1.205 0-1.769-.003.549-.777 1.769 0 1.769zm15.13-5.186a.144.144 0 0 0-.144.145c0 .319-.375.675-.877.675-.072 0-.142-.008-.208-.022a1.134 1.134 0 0 1-.434-.2c-.024-.017-.047-.036-.069-.054a1.185 1.185 0 0 1-.165-.17c-.072-.093-.113-.178-.113-.229a.144.144 0 1 0-.289 0c0 .041.008.087.025.136a.884.884 0 0 0 .123.234 1.502 1.502 0 0 0 .507.438 1.375 1.375 0 0 0 .623.157 1.27 1.27 0 0 0 .841-.311c.051-.046.097-.096.137-.148a.869.869 0 0 0 .188-.506.145.145 0 0 0-.145-.145zm-1.45-.774a.488.488 0 0 0 .337.214.497.497 0 0 0 .445-.158.48.48 0 0 0 .087-.142.5.5 0 0 0 .043-.193.5.5 0 0 0-.85-.352c-.005.003-.008.008-.012.012a.542.542 0 0 0-.125.24.471.471 0 0 0 0 .201.493.493 0 0 0 .075.178zM16.8 12.67a2.245 2.245 0 0 0-.33-.331c-.118-.095-.242-.173-.37-.233a1.468 1.468 0 0 0-.616-.139c-1.14 0-2.066 1.379-2.066 3.08 0 1.7.925 2.886 2.066 2.886a1.653 1.653 0 0 0 .985-.327c.117-.085.228-.184.33-.298s.196-.241.28-.381c.295-.491.472-1.137.472-1.88 0-.744-.177-1.427-.472-1.959a2.872 2.872 0 0 0-.28-.418zm9.851-.703c-1.14 0-2.066 1.379-2.066 3.079 0 1.701.925 2.887 2.066 2.887 1.142 0 2.067-1.186 2.067-2.887 0-1.7-.925-3.079-2.067-3.079z"/>
</svg>