<?xml version="1.0" encoding="UTF-8" standalone="no"?>
<svg xmlns="http://www.w3.org/2000/svg" height="33px" width="42px" version="1.1" xmlns:xlink="http://www.w3.org/1999/xlink" viewBox="0 0 42 33"><!-- Generator: Sketch 52 (66869) - http://www.bohemiancoding.com/sketch -->
 <title>icon--research</title>
 <desc>Created with Sketch.</desc>
 <g id="Symbols" fill-rule="evenodd" fill="none">
  <g id="Icon-/-UI-/-User-Research" fill-rule="nonzero" fill="#111" transform="translate(0 -5)">
   <path id="icon--research" d="m41.663 34.338l-2.828 2.828-5.166-5.166h-33.669v-20.128-6.872h36.327v24.001l5.336 5.337zm-14.46-3.811h4.994l-0.433-0.433 0.707-0.707-0.746-0.746c-0.495 0.397-1.024 0.727-1.574 1.003-0.933 0.471-1.932 0.758-2.948 0.883zm-25.73-18.655v18.655h23.45c-0.568-0.074-1.13-0.2-1.678-0.384-1.28-0.428-2.483-1.151-3.502-2.17-0.207-0.208-0.4-0.424-0.583-0.645-0.374-0.453-0.695-0.936-0.966-1.437-0.159-0.294-0.294-0.596-0.417-0.902-0.077 0.051-0.164 0.089-0.263 0.089h-4.305c-0.268 0-0.486-0.218-0.486-0.487 0-0.268 0.218-0.486 0.486-0.486h4.271c-0.023-0.082-0.057-0.162-0.078-0.245-0.113-0.437-0.194-0.878-0.241-1.323h-1.213c-0.268 0-0.486-0.218-0.486-0.487 0-0.268 0.218-0.486 0.486-0.486h1.178c0.004-0.46 0.033-0.919 0.106-1.375h-4.023c-0.268 0-0.486-0.218-0.486-0.486s0.218-0.487 0.486-0.487h4.236c0.051-0.183 0.102-0.366 0.165-0.546 0.243-0.707 0.569-1.392 0.994-2.032 0.327-0.492 0.705-0.959 1.139-1.393 0.016-0.015 0.033-0.029 0.049-0.044 3.518-3.468 9.18-3.455 12.679 0.044 1.215 1.216 2.008 2.693 2.383 4.25v-7.623h-33.381zm16.041 4.803c0.268 0 0.486 0.218 0.486 0.486 0 0.269-0.218 0.487-0.486 0.487h-1.565c-0.268 0-0.487-0.218-0.487-0.487 0-0.268 0.219-0.486 0.487-0.486h1.565zm-9.4868 5.375c0-0.268 0.218-0.486 0.486-0.486h5.8698c0.268 0 0.486 0.218 0.486 0.486s-0.218 0.486-0.486 0.486h-5.8698c-0.268 0-0.486-0.218-0.486-0.486zm6.3558-5.375c0.268 0 0.486 0.218 0.486 0.486 0 0.269-0.218 0.487-0.486 0.487h-5.8698c-0.268 0-0.486-0.218-0.486-0.487 0-0.268 0.218-0.486 0.486-0.486h5.8698zm0 9.778c0.268 0 0.486 0.218 0.486 0.486s-0.218 0.487-0.486 0.487h-5.8698c-0.268 0-0.486-0.219-0.486-0.487s0.218-0.486 0.486-0.486h5.8698zm3.131 0c0.268 0 0.486 0.218 0.486 0.486s-0.218 0.487-0.486 0.487h-1.565c-0.268 0-0.487-0.219-0.487-0.487s0.219-0.486 0.487-0.486h1.565zm-10.565 0c0.268 0 0.486 0.218 0.486 0.486s-0.218 0.487-0.486 0.487h-3.13c-0.268 0-0.487-0.219-0.487-0.487s0.219-0.486 0.487-0.486h3.13zm6.2604-11.153c-0.268 0-0.486-0.218-0.486-0.486s0.218-0.487 0.486-0.487h4.304c0.268 0 0.487 0.219 0.487 0.487s-0.219 0.486-0.487 0.486h-4.304zm-9.3907 0c-0.268 0-0.486-0.218-0.486-0.486s0.218-0.487 0.486-0.487h7.8257c0.268 0 0.486 0.219 0.486 0.487s-0.218 0.486-0.486 0.486h-7.8257zm0 9.778c-0.268 0-0.486-0.218-0.486-0.486s0.218-0.487 0.486-0.487h7.8257c0.268 0 0.486 0.219 0.486 0.487s-0.218 0.486-0.486 0.486h-7.8257zm0-7.43c-0.268 0-0.486-0.218-0.486-0.486s0.218-0.487 0.486-0.487h3.13c0.268 0 0.487 0.219 0.487 0.487s-0.219 0.486-0.487 0.486h-3.13zm0 4.889c-0.268 0-0.486-0.218-0.486-0.486s0.218-0.487 0.486-0.487h3.13c0.268 0 0.487 0.219 0.487 0.487s-0.219 0.486-0.487 0.486h-3.13zm0-2.348c-0.268 0-0.486-0.218-0.486-0.486s0.218-0.487 0.486-0.487h7.8257c0.268 0 0.486 0.219 0.486 0.487s-0.218 0.486-0.486 0.486h-7.8257zm-2.3453-9.79h33.382v-3.927h-33.382v3.927zm30.436-0.9815v-1.473h1.473v1.473h-1.473zm-19.145 0v-1.473h18.164v1.473h-18.164zm-7.3641 0v-1.473h1.473v1.473h-1.473zm-2.455 0v-1.473h1.473v1.473h-1.473zm5.401 0v-1.473h1.473v1.473h-1.473zm26.247 17.848l0.261 0.262v-3.822c-0.299 1.257-0.868 2.464-1.714 3.521l0.746 0.746 0.707-0.707zm-4.316-1.375c0.397 0 0.719 0.323 0.719 0.718 0 0.002-0.001 0.004-0.001 0.006 0.02-0.02 0.042-0.036 0.062-0.056 2.734-2.734 2.734-7.166 0-9.9-0.085-0.085-0.177-0.16-0.266-0.24-0.131 0.134-0.312 0.219-0.514 0.219h-6.358c-0.396 0-0.718-0.322-0.718-0.718s0.322-0.719 0.718-0.719h4.993c-2.133-0.933-4.633-0.756-6.622 0.541 0.015 0.058 0.036 0.115 0.036 0.178 0 0.396-0.323 0.718-0.719 0.718h-0.426c-0.008 0.008-0.016 0.014-0.024 0.021-0.599 0.6-1.059 1.284-1.395 2.011h5.891c0.397 0 0.719 0.322 0.719 0.718s-0.322 0.718-0.719 0.718h-6.377c-0.167 0.762-0.206 1.545-0.116 2.317h2.447c0.396 0 0.719 0.322 0.719 0.718s-0.323 0.719-0.719 0.719h-2.122c0.244 0.719 0.607 1.406 1.092 2.031h5.076c0.397 0 0.719 0.323 0.719 0.718 0 0.397-0.322 0.719-0.719 0.719h-3.572c2.409 1.699 5.643 1.699 8.052 0h-2.167c-0.397 0-0.719-0.322-0.719-0.719 0-0.395 0.322-0.718 0.719-0.718h2.311zm0-3.469c0.396 0 0.719 0.322 0.719 0.72 0 0.396-0.323 0.718-0.719 0.718h-6.358c-0.396 0-0.719-0.322-0.719-0.718 0-0.398 0.323-0.72 0.719-0.72h6.358zm-2.311-2.316c-0.396 0-0.719-0.322-0.719-0.718s0.323-0.719 0.719-0.719h2.312c0.396 0 0.718 0.323 0.718 0.719s-0.322 0.718-0.718 0.718h-2.312z"/>
  </g>
 </g>
</svg>
