<svg width="42" height="32">
  <defs>
    <path id="a" d="M29.697 28.79c-.133-.095-.111-.401.327-1.356.172-.375.565-1.006 1.247-1.609.079.248.128.486.126.707-.009 1.478-1.063 2.029-1.7 2.258zm-5.61 1.279c-.179.094-.343.152-.419.107-.056-.033.074-.156.074-.156s.911-.98 1.27-1.427c.208-.259.45-.567.714-.912l.003.103c-.002 1.174-1.136 1.966-1.642 2.285zm-7.283-3.475c-.421 1.028-1.303 3.656-1.84 3.515-.461-.121-.741-2.119-.092-4.085.327-.99 1.025-2.172 1.436-2.632.66-.738 1.387-.98 1.564-.68.225.381-.803 3.238-1.068 3.882zM7.99 32.587c-1.21 1.32-2.9 1.818-3.625 1.398-.783-.454-.473-2.397 1.012-3.798.905-.853 2.073-1.639 2.848-2.124l.75-.45.082-.047v-.002l.187-.112c.54 1.994.016 3.749-1.254 5.135zm28.156-9.493a8.648 8.648 0 0 0-3.806.886c-.389-.778-.784-1.462-.85-1.971-.077-.594-.167-.949-.074-1.656.094-.708.503-1.71.497-1.785s-.092-.436-.938-.442c-.847-.006-1.571.163-1.656.386a8.23 8.23 0 0 0-.35 1.252c-.148.767-1.691 3.505-2.566 4.938-.287-.559-.53-1.052-.581-1.442-.077-.594-.167-.948-.073-1.656.093-.708.502-1.71.496-1.785-.005-.075-.091-.436-.938-.442s-1.571.163-1.656.387c-.085.223-.176.746-.35 1.251-.173.505-2.223 5.073-2.76 6.257a36.696 36.696 0 0 1-.68 1.418l-.001-.001-.028.059c-.144.282-.23.437-.23.437l.003.006c-.114.207-.237.399-.297.399-.042 0-.127-.55.018-1.306.305-1.585 1.038-4.056 1.031-4.141-.004-.043.136-.474-.479-.699-.597-.219-.81.146-.864.147-.053.001-.093.129-.093.129s.666-2.779-1.269-2.779c-1.21 0-2.887 1.324-3.713 2.524-.521.284-1.636.893-2.82 1.543l-1.358.747-.09-.099c-2.347-2.503-6.685-4.274-6.501-7.64.066-1.224.492-4.446 8.336-8.355 6.425-3.202 11.569-2.32 12.458-.368 1.27 2.79-2.749 7.975-9.422 8.723-2.543.285-3.881-.701-4.214-1.068-.35-.386-.403-.403-.534-.331-.213.118-.078.459 0 .662.2.519 1.017 1.438 2.411 1.896 1.226.402 4.211.623 7.821-.773 4.043-1.564 7.2-5.914 6.272-9.55-.943-3.699-7.075-4.915-12.879-2.853-3.454 1.227-7.193 3.153-9.881 5.668C.34 14.657-.17 17.259.04 18.347c.747 3.863 6.072 6.38 8.204 8.244l-.293.162c-1.07.529-5.129 2.654-6.144 4.898-1.152 2.546.183 4.373 1.067 4.619 2.739.762 5.55-.608 7.06-2.861 1.509-2.253 1.325-5.185.632-6.524l-.027-.049.837-.494a54.597 54.597 0 0 1 1.542-.869c-.26.71-.45 1.562-.549 2.792-.116 1.446.477 3.314 1.252 4.049.341.323.752.331 1.012.331.902 0 1.313-.75 1.766-1.638.556-1.088 1.049-2.355 1.049-2.355s-.619 3.423 1.068 3.423c.614 0 1.232-.797 1.507-1.203l.002.006.047-.079c.064-.098.1-.16.1-.16l.003-.017a68.66 68.66 0 0 0 1.616-3.019c1.062-2.083 2.08-4.693 2.08-4.693s.094.638.404 1.693c.183.621.571 1.307.876 1.965-.246.342-.397.538-.397.538l.004.01c-.197.261-.417.543-.648.818-.838.998-1.836 2.137-1.969 2.466-.158.387-.12.672.184.902.222.167.618.193 1.03.165a4.672 4.672 0 0 0 1.544-.351c.407-.144.882-.37 1.327-.698.822-.604 1.317-1.468 1.27-2.613-.027-.631-.228-1.256-.482-1.846l.224-.325c1.296-1.894 2.3-3.975 2.3-3.975s.095.638.405 1.693c.157.534.467 1.117.745 1.688-1.218.99-1.973 2.14-2.235 2.894-.485 1.395-.105 2.028.607 2.172.323.065.778-.083 1.121-.228.427-.142.94-.377 1.418-.729.822-.604 1.612-1.45 1.565-2.595-.022-.521-.164-1.038-.355-1.535 1.032-.43 2.369-.67 4.072-.471 3.653.427 4.369 2.708 4.232 3.662-.137.955-.903 1.479-1.159 1.638-.256.158-.335.213-.313.331.031.171.15.165.368.128.301-.051 1.918-.776 1.987-2.538.088-2.237-2.055-4.695-5.851-4.675z"/>
  </defs>
  <use fill="#111" fill-rule="nonzero" transform="translate(0 -5)" xlink:href="#a"/>
</svg>