<?xml version="1.0" encoding="UTF-8" standalone="no"?>
<svg xmlns="http://www.w3.org/2000/svg" height="40px" width="42px" version="1.1" xmlns:xlink="http://www.w3.org/1999/xlink" viewBox="0 0 42 40"><!-- Generator: Sketch 52 (66869) - http://www.bohemiancoding.com/sketch -->
 <title>icon--users</title>
 <desc>Created with Sketch.</desc>
 <g id="Symbols" fill-rule="evenodd" fill="none">
  <g id="Icon-/-UI-/-Users" fill-rule="nonzero" fill="#111" transform="translate(0 -1)">
   <path id="icon--users" d="m41.998 25.446c0.001 0.08 0.002 9.955 0.002 10.035 0 0.025-0.003 0.051-0.004 0.078-1.008 0.226-2.045 0.414-3.102 0.563 0.016-0.212 0.029-0.424 0.029-0.641 0-0.083-0.001-5.255-0.004-8.139-0.001-1.097-0.002-1.865-0.003-1.896-0.075-1.93-0.794-3.669-1.916-4.976-1.261-1.467-3.032-2.387-5-2.387v-1.259c0.59-0.313 1.134-0.714 1.62-1.19 0.219-0.215 0.426-0.446 0.62-0.69 0.651 0.162 1.277 0.396 1.873 0.69 0.304 0.15 0.6 0.318 0.887 0.501 1.729 1.096 3.126 2.744 4 4.739 0.605 1.385 0.967 2.927 0.998 4.572zm-10.667 1.895c0.401 1.081 0.642 2.244 0.667 3.469 0.001 0.075 0.002 9.501 0.002 9.577 0 0.026-0.002 0.049-0.002 0.074-1.061 0.217-2.147 0.396-3.258 0.539 0.016-0.202 0.029-0.406 0.029-0.613 0-0.109-0.001-9.47-0.005-9.577-0.055-1.268-0.43-2.448-1.039-3.469-0.215-0.359-0.455-0.7-0.725-1.016-1.333-1.558-3.302-2.545-5.5-2.545-2.655 0-4.974 1.424-6.242 3.561-0.093 0.157-0.177 0.318-0.258 0.48-0.448 0.904-0.723 1.914-0.764 2.989-0.003 0.092-0.005 9.483-0.005 9.577 0 0.161 0.015 0.316 0.024 0.474-1.111-0.167-2.196-0.376-3.255-0.619 0-1.188 0.002-9.343 0.004-9.432 0.033-1.223 0.279-2.386 0.685-3.469 0.681-1.81 1.831-3.383 3.311-4.559 0.688-0.546 1.447-1.003 2.258-1.363 1.118 0.655 2.385 1.044 3.742 1.044 1.525 0 2.943-0.478 4.153-1.29 0.649 0.239 1.266 0.539 1.847 0.896 1.974 1.213 3.509 3.058 4.331 5.272zm-23.571-12.397c0.194 0.244 0.4 0.474 0.62 0.691 0.485 0.476 1.029 0.876 1.6197 1.189v1.258c-1.4917 0-2.8697 0.533-3.9997 1.426-1.689 1.334-2.821 3.485-2.916 5.938-0.002 0.031-0.003 0.799-0.004 1.896-0.002 2.885-0.003 8.057-0.003 8.139 0 0.216 0.013 0.429 0.028 0.641-1.056-0.15-2.093-0.337-3.101-0.563-0.001-0.027-0.004-0.052-0.004-0.078 0-0.081 0.001-9.956 0.002-10.035 0.031-1.645 0.392-3.187 0.998-4.571 1.302-2.977 3.773-5.184 6.76-5.931zm6.0557 1.609c-0.268 0.034-0.54 0.057-0.816 0.057-1.075 0-2.09-0.278-3-0.761-0.59-0.313-1.134-0.714-1.62-1.191-0.219-0.215-0.426-0.445-0.62-0.689-1.092-1.378-1.76-3.182-1.76-5.1642 0-4.3103 3.134-7.8049 7-7.8049 2.358 0 4.439 1.3044 5.708 3.2976 0.727-0.2381 1.495-0.3708 2.292-0.3708s1.565 0.1327 2.292 0.3708c1.269-1.9932 3.35-3.2976 5.708-3.2976 3.866 0 7 3.4946 7 7.8049 0 1.9822-0.668 3.7862-1.76 5.1642-0.194 0.244-0.401 0.474-0.62 0.689-0.486 0.477-1.03 0.878-1.62 1.191-0.91 0.483-1.925 0.761-3 0.761-0.276 0-0.548-0.023-0.816-0.057-0.315 0.707-0.716 1.357-1.184 1.943-0.532 0.665-1.156 1.237-1.847 1.701-1.211 0.813-2.629 1.291-4.153 1.291-1.357 0-2.625-0.39-3.743-1.045-0.854-0.502-1.623-1.154-2.257-1.947-0.468-0.586-0.869-1.236-1.184-1.943zm-0.816-13.151c-2.676 0-4.846 2.4195-4.846 5.4029 0 2.9842 2.17 5.4042 4.846 5.4042 0.042 0 0.083-0.006 0.124-0.007-0.076-0.487-0.124-0.985-0.124-1.495 0-1.406 0.315-2.7256 0.851-3.9022 0.649-1.4244 1.629-2.6361 2.845-3.4908-0.889-1.1678-2.214-1.9121-3.696-1.9121zm4.757 4.3843c-0.517 0.4117-0.969 0.9142-1.33 1.4937-0.608 0.9761-0.966 2.1561-0.966 3.4271 0 0.244 0.017 0.483 0.042 0.718l0.025-0.016c0.044 0.432 0.13 0.849 0.251 1.249 0.114 0.377 0.258 0.738 0.431 1.078l-0.006 0.003c0.071 0.135 0.144 0.269 0.224 0.397 0.997 1.6 2.672 2.65 4.572 2.65s3.575-1.05 4.572-2.65c0.08-0.128 0.153-0.262 0.224-0.397l-0.006-0.003c0.173-0.34 0.317-0.701 0.431-1.078 0.121-0.4 0.207-0.817 0.251-1.249l0.025 0.016c0.025-0.235 0.042-0.474 0.042-0.718 0-1.271-0.358-2.451-0.966-3.4271-0.361-0.5795-0.813-1.082-1.33-1.4937-0.59-0.4683-1.265-0.8126-1.998-0.997-0.401-0.1015-0.816-0.161-1.245-0.161s-0.844 0.0595-1.245 0.161c-0.733 0.1844-1.408 0.5287-1.998 0.997zm11.243-4.3843c-1.482 0-2.807 0.7443-3.696 1.9121 1.216 0.8547 2.196 2.0664 2.845 3.4908 0.536 1.1766 0.851 2.4962 0.851 3.9022 0 0.51-0.048 1.008-0.124 1.495 0.041 0.001 0.082 0.007 0.124 0.007 2.676 0 4.846-2.42 4.846-5.4042 0-2.9834-2.17-5.4029-4.846-5.4029z"/>
  </g>
 </g>
</svg>
