<svg width="42" height="32">
  <path fill="#111" fill-rule="nonzero" d="M0 0h42v31.216H0V0zm9.649 5.108V3.405h1.702v1.703H9.649zm27.243 0V3.405h1.703v1.703h-1.703zm-22.135 0V3.405h21v1.703h-21zm-11.352 0V3.405h1.702v1.703H3.405zm2.837 0V3.405h1.703v1.703H6.242zm-4.54 1.135h38.594v-4.54H1.702v4.54zm0 23.272h38.594V7.946H1.702v21.569zm23.345-17.618a1.129 1.129 0 0 1-.65-1.018c0-.619.504-1.122 1.123-1.122h3.929a1.123 1.123 0 0 1 .473 2.14v14.185c0 1.345-1.094 2.438-2.438 2.438s-2.437-1.093-2.437-2.438V11.897zm.473-1.296a.279.279 0 0 0 0 .557h3.929a.279.279 0 0 0 0-.557h-3.93zm.229 4.335l.185-.058c.54-.171 1.264-.19 1.55-.19.287 0 1.01.019 1.55.19l.186.058v-3.217h-3.471v3.217zm3.133.605l.469-.136-.47-.137c-.207-.06-.665-.161-1.397-.161-.731 0-1.19.101-1.397.161l-.47.137.47.136c.208.061.666.162 1.397.162.732 0 1.19-.101 1.398-.162zm-1.298 2.757a.21.21 0 0 1 0-.419h1.636v-2.005l-.185.058c-.541.171-1.264.19-1.551.19-.286 0-1.01-.019-1.55-.19l-.185-.058v10.208c0 .957.779 1.735 1.735 1.735.957 0 1.736-.778 1.736-1.735v-1.493h-1.636a.21.21 0 0 1-.21-.21c0-.116.095-.209.21-.209h1.636v-.63h-.645a.21.21 0 1 1 0-.419h.645v-.63h-1.636c-.115 0-.21-.094-.21-.209s.095-.209.21-.209h1.636v-.629h-.645a.21.21 0 1 1 0-.42h.645v-.629h-1.636a.21.21 0 0 1 0-.419h1.636v-.63h-.645a.21.21 0 1 1 0-.418h.645v-.63h-1.636zM17.61 28.52a6.192 6.192 0 0 1-6.185-6.184 6.206 6.206 0 0 1 3.948-5.767v-5.624a1.067 1.067 0 0 1-.587-.947 1.06 1.06 0 0 1 1.059-1.059h3.529a1.06 1.06 0 0 1 1.059 1.059c0 .4-.232.769-.586.947v5.624a6.205 6.205 0 0 1 3.947 5.767 6.19 6.19 0 0 1-6.184 6.184zm-5.323-6.616a5.346 5.346 0 0 0 5.323 5.772 5.346 5.346 0 0 0 5.322-5.772c-.31.121-.745.221-1.33.309-1.068.161-2.486.249-3.992.249s-2.924-.088-3.994-.249c-.584-.088-1.02-.188-1.33-.309zm5.373 5.137a.351.351 0 0 1-.035-.701 4.553 4.553 0 0 0 2.35-.947.351.351 0 1 1 .434.552 5.241 5.241 0 0 1-2.713 1.094c-.012.002-.024.002-.036.002zm3.207-1.66a.352.352 0 0 1-.265-.582c.162-.185.308-.382.436-.587a.351.351 0 1 1 .596.373 5.36 5.36 0 0 1-.503.676.346.346 0 0 1-.264.12zm-3.257-4.596c-2.721 0-4.398.273-5.016.488.618.214 2.296.487 5.016.487s4.398-.273 5.016-.487c-.618-.215-2.296-.488-5.016-.488zm-1.593-3.398a5.15 5.15 0 0 0-3.208 2.95c.223-.052.483-.1.786-.145 1.076-.162 2.502-.251 4.014-.251 1.513 0 2.939.089 4.015.251.303.045.563.093.787.145a5.151 5.151 0 0 0-3.21-2.95.492.492 0 0 1-.341-.469v-5.861H16.36v5.861a.492.492 0 0 1-.342.469zm3.714-7.389a.357.357 0 0 0-.357-.356h-3.53a.352.352 0 0 0-.251.105.357.357 0 0 0 .252.607h3.529c.197 0 .357-.16.357-.356zm8.377 17.246a.325.325 0 0 1-.241-.109.318.318 0 0 1-.084-.232.27.27 0 0 1 .094-.186c.242-.2.407-.476.478-.795a.258.258 0 0 1 .13-.174.292.292 0 0 1 .242-.013.331.331 0 0 1 .21.362c-.001.007-.004.012-.006.019a1.946 1.946 0 0 1-.648 1.068l-.026.018a.269.269 0 0 1-.15.042z"/>
</svg>