<?xml version="1.0" encoding="UTF-8" standalone="no"?>
<svg xmlns="http://www.w3.org/2000/svg" height="42px" width="33px" version="1.1" xmlns:xlink="http://www.w3.org/1999/xlink" viewBox="0 0 33 42"><!-- Generator: Sketch 52 (66869) - http://www.bohemiancoding.com/sketch -->
 <title>icon--usertest</title>
 <desc>Created with Sketch.</desc>
 <g id="Symbols" fill-rule="evenodd" fill="none">
  <g id="Icon-/-UI-/-User-Test" fill-rule="nonzero" fill="#111" transform="translate(-5 -1)">
   <path id="icon--usertest" d="m36.446 7.5692c0.476 0 0.862 0.3858 0.862 0.8616v33.707c0 0.476-0.386 0.862-0.862 0.862h-30.584c-0.4762 0-0.862-0.386-0.862-0.862v-33.707c0-0.476 0.3858-0.8618 0.8615-0.8618h6.4185l4.566-1.9686v-0.2929c0-2.379 1.929-4.3077 4.308-4.3077s4.308 1.9287 4.308 4.3077v0.2929l4.566 1.9686h6.418zm-0.861 33.708v-31.985l-4.954 0.0003v1.5077h2.584c0.476 0 0.862 0.386 0.862 0.862v27.246c0 0.475-0.386 0.861-0.862 0.861h-24.123c-0.4755 0-0.8612-0.386-0.8612-0.861v-27.246c0-0.476 0.3857-0.862 0.8615-0.862h2.5847v-1.5077h-4.9539v31.985h28.862zm-23.047-27.031c-0.475 0-0.861-0.386-0.861-0.861v-0.862h-1.7232v25.523h22.4v-25.523h-1.723v0.862c0 0.475-0.386 0.861-0.862 0.861h-17.231zm0.862-5.2768v3.5538h15.508v-3.5538l-4.786-1.9755-0.384-0.8245v-0.8615c0-1.4275-1.157-2.5846-2.584-2.5846-1.428 0-2.585 1.1571-2.585 2.5846v0.8615l-0.383 0.8245-4.786 1.9755zm6.892-2.8v-1.723h1.723v1.723h-1.723zm8 27.734c0.242 0 0.438 0.196 0.438 0.438 0 0.241-0.196 0.438-0.438 0.438h-5.29c-0.242 0-0.438-0.197-0.438-0.438 0-0.242 0.196-0.438 0.438-0.438h5.29zm-12.237-11.286c0.825 0 1.496 0.672 1.496 1.497v3.526c0 0.825-0.671 1.497-1.496 1.497h-3.527c-0.825 0-1.496-0.672-1.496-1.497v-3.526c0-0.825 0.671-1.497 1.496-1.497h3.527zm0.62 5.023v-3.526c0-0.342-0.279-0.62-0.62-0.62h-3.527c-0.341 0-0.619 0.278-0.619 0.62v3.526c0 0.342 0.278 0.62 0.619 0.62h3.527c0.341 0 0.62-0.278 0.62-0.62zm14.438 4.147c0.242 0 0.439 0.196 0.439 0.438s-0.197 0.438-0.439 0.438h-3.879c-0.242 0-0.438-0.196-0.438-0.438s0.196-0.438 0.438-0.438h3.879zm0 2.116c0.242 0 0.439 0.196 0.439 0.438 0 0.241-0.197 0.438-0.439 0.438h-1.41c-0.242 0-0.439-0.197-0.439-0.438 0-0.242 0.197-0.438 0.439-0.438h1.41zm-2.383-6.968c0 0.242-0.196 0.438-0.438 0.438h-5.29c-0.242 0-0.438-0.196-0.438-0.438s0.196-0.438 0.438-0.438h5.29c0.242 0 0.438 0.196 0.438 0.438zm-17.698-10.227c0-0.825 0.671-1.497 1.496-1.497h3.527c0.825 0 1.496 0.672 1.496 1.497v3.526c0 0.825-0.671 1.497-1.496 1.497h-3.527c-0.825 0-1.496-0.672-1.496-1.497v-3.526zm0.877 0v3.526c0 0.342 0.278 0.62 0.619 0.62h3.527c0.342 0 0.619-0.278 0.619-0.62v-3.526c0-0.342-0.277-0.62-0.619-0.62h-3.527c-0.341 0-0.619 0.278-0.619 0.62zm4.146 13.315c0.825 0 1.496 0.671 1.496 1.497v3.526c0 0.825-0.671 1.496-1.496 1.496h-3.527c-0.825 0-1.496-0.671-1.496-1.496v-3.526c0-0.826 0.671-1.497 1.496-1.497h3.527zm0.62 5.023v-3.526c0-0.342-0.279-0.62-0.62-0.62h-3.527c-0.341 0-0.619 0.278-0.619 0.62v3.526c0 0.342 0.278 0.62 0.619 0.62h3.527c0.341 0 0.62-0.278 0.62-0.62zm-0.836-3.26c0.117 0 0.228 0.046 0.31 0.129 0.083 0.083 0.129 0.193 0.129 0.31s-0.046 0.227-0.129 0.31l-2.116 2.116c-0.082 0.082-0.193 0.128-0.31 0.128s-0.227-0.046-0.31-0.128l-1.058-1.058c-0.082-0.083-0.128-0.193-0.128-0.31s0.046-0.227 0.128-0.31c0.083-0.083 0.193-0.128 0.31-0.128s0.228 0.045 0.31 0.128l0.748 0.748 1.806-1.806c0.083-0.083 0.193-0.129 0.31-0.129zm-0.051-6.967c0 0.117-0.046 0.227-0.129 0.31l-0.748 0.748 0.748 0.748c0.083 0.083 0.129 0.193 0.129 0.31s-0.046 0.227-0.129 0.31c-0.082 0.083-0.192 0.128-0.31 0.128-0.117 0-0.227-0.045-0.309-0.128l-0.749-0.748-0.748 0.748c-0.082 0.083-0.192 0.128-0.309 0.128-0.118 0-0.228-0.045-0.31-0.128-0.171-0.171-0.171-0.449 0-0.62l0.748-0.748-0.748-0.748c-0.083-0.083-0.129-0.193-0.129-0.31s0.046-0.227 0.129-0.31c0.082-0.083 0.192-0.128 0.31-0.128 0.117 0 0.227 0.045 0.309 0.128l0.749 0.748 0.748-0.748c0.082-0.083 0.192-0.128 0.309-0.128 0.118 0 0.228 0.045 0.31 0.128 0.083 0.083 0.129 0.193 0.129 0.31zm2.982 2.554c-0.241 0-0.438-0.196-0.438-0.438s0.197-0.438 0.438-0.438h2.822c0.241 0 0.438 0.196 0.438 0.438s-0.197 0.438-0.438 0.438h-2.822zm0 5.29c-0.241 0-0.438-0.196-0.438-0.438s0.197-0.439 0.438-0.439h7.053c0.242 0 0.439 0.197 0.439 0.439s-0.197 0.438-0.439 0.438h-7.053zm0-7.406c-0.241 0-0.438-0.196-0.438-0.438s0.197-0.438 0.438-0.438h7.053c0.242 0 0.439 0.196 0.439 0.438s-0.197 0.438-0.439 0.438h-7.053zm0 9.522c-0.241 0-0.438-0.197-0.438-0.438 0-0.242 0.197-0.439 0.438-0.439h2.822c0.241 0 0.438 0.197 0.438 0.439 0 0.241-0.197 0.438-0.438 0.438h-2.822zm-5.356-14.94l-1.058-1.058c-0.083-0.083-0.129-0.193-0.129-0.31s0.046-0.227 0.129-0.31c0.082-0.083 0.192-0.128 0.309-0.128 0.118 0 0.228 0.045 0.31 0.128l0.748 0.748 1.806-1.806c0.083-0.083 0.193-0.128 0.31-0.128 0.118 0 0.228 0.045 0.31 0.128 0.083 0.083 0.129 0.193 0.129 0.31s-0.046 0.227-0.129 0.31l-2.116 2.116c-0.082 0.083-0.192 0.128-0.31 0.128-0.117 0-0.227-0.045-0.309-0.128zm5.356 0.128c-0.241 0-0.438-0.196-0.438-0.438s0.197-0.438 0.438-0.438h2.822c0.241 0 0.438 0.196 0.438 0.438s-0.197 0.438-0.438 0.438h-2.822zm8.464-2.116c-0.242 0-0.438-0.196-0.438-0.438s0.196-0.438 0.438-0.438h3.879c0.242 0 0.439 0.196 0.439 0.438s-0.197 0.438-0.439 0.438h-3.879zm1.496 1.678c0 0.242-0.196 0.438-0.438 0.438h-5.29c-0.242 0-0.438-0.196-0.438-0.438s0.196-0.438 0.438-0.438h5.29c0.242 0 0.438 0.196 0.438 0.438zm2.383 4.852c0.242 0 0.439 0.196 0.439 0.438s-0.197 0.438-0.439 0.438h-3.879c-0.242 0-0.438-0.196-0.438-0.438s0.196-0.438 0.438-0.438h3.879zm0 2.116c0.242 0 0.439 0.196 0.439 0.438s-0.197 0.438-0.439 0.438h-1.41c-0.242 0-0.439-0.196-0.439-0.438s0.197-0.438 0.439-0.438h1.41zm0-7.406c0.242 0 0.439 0.196 0.439 0.438s-0.197 0.438-0.439 0.438h-1.41c-0.242 0-0.439-0.196-0.439-0.438s0.197-0.438 0.439-0.438h1.41zm-12.343-1.24c-0.241 0-0.438-0.196-0.438-0.438s0.197-0.438 0.438-0.438h7.053c0.242 0 0.439 0.196 0.439 0.438s-0.197 0.438-0.439 0.438h-7.053z"/>
  </g>
 </g>
</svg>
