<?xml version="1.0" encoding="UTF-8" standalone="no"?>
<svg xmlns="http://www.w3.org/2000/svg" height="32px" width="42px" version="1.1" xmlns:xlink="http://www.w3.org/1999/xlink" viewBox="0 0 42 32"><!-- Generator: Sketch 52 (66869) - http://www.bohemiancoding.com/sketch -->
 <title>icon--wireframe</title>
 <desc>Created with Sketch.</desc>
 <g id="Symbols" fill-rule="evenodd" fill="none">
  <g id="Icon-/-UI-/-Wireframe" fill-rule="nonzero" fill="#111" transform="translate(0 -5)">
   <path id="icon--wireframe" d="m0 5v7.946 23.27h42v-31.216h-42zm1.7027 6.243v-4.5403h38.594v4.5403h-38.594zm0 23.271v-21.568h38.594v21.568h-38.594zm35.189-24.406h1.703v-1.7026h-1.703v1.7026zm-30.649 0h1.7027v-1.7026h-1.7027v1.7026zm-2.8378 0h1.7027v-1.7026h-1.7027v1.7026zm11.352 0h21v-1.7026h-21v1.7026zm-5.1084 0h1.7024v-1.7026h-1.7024v1.7026zm9.1214 13.474c-2.341-2.847-3.633-4.27-3.877-4.27-0.623 0-10.352 11.08-10.352 12.364h32.351c0-1.063-11.664-14.757-12.294-14.757-0.282 0-2.225 2.221-5.828 6.663zm-9.6889-2.69c1.5669 0 2.8379-1.271 2.8379-2.838s-1.271-2.838-2.8379-2.838c-1.5673 0-2.8379 1.271-2.8379 2.838s1.2706 2.838 2.8379 2.838z"/>
  </g>
 </g>
</svg>
