<?xml version="1.0" encoding="UTF-8" standalone="no"?>
<svg xmlns="http://www.w3.org/2000/svg" height="35px" width="42px" version="1.1" xmlns:xlink="http://www.w3.org/1999/xlink" viewBox="0 0 42 35"><!-- Generator: Sketch 52 (66869) - http://www.bohemiancoding.com/sketch -->
 <title>icon--twitter</title>
 <desc>Created with Sketch.</desc>
 <g id="Symbols" fill-rule="evenodd" fill="none">
  <g id="Icon-/-Logo-/-Twitter" fill-rule="nonzero" fill="#111" transform="translate(0 -4)">
   <path id="icon--twitter" d="m42 8.0401c-1.544 0.6861-3.205 1.149-4.949 1.3567 1.779-1.0657 3.145-2.7542 3.789-4.7674-1.665 0.9879-3.509 1.7052-5.472 2.0919-1.571-1.6747-3.811-2.7213-6.289-2.7213-4.759 0-8.617 3.8582-8.617 8.617 0 0.675 0.076 1.332 0.223 1.963-7.161-0.359-13.511-3.789-17.761-9.0027-0.7414 1.2722-1.1664 2.7522-1.1664 4.332 0 2.9897 1.5211 5.6267 3.8332 7.1727-1.4121-0.046-2.7414-0.433-3.9028-1.079-0.0008 0.036-0.0008 0.072-0.0008 0.109 0 4.175 2.9703 7.657 6.9125 8.449-0.7231 0.197-1.4844 0.303-2.2704 0.303-0.5558 0-1.0953-0.054-1.6215-0.155 1.097 3.423 4.2791 5.915 8.0492 5.984-2.9492 2.311-6.6642 3.689-10.702 3.689-0.695 0-1.3806-0.041-2.055-0.12 3.814 2.445 8.3429 3.871 13.209 3.871 15.85 0 24.516-13.13 24.516-24.517 0-0.373-0.007-0.746-0.024-1.115 1.683-1.215 3.145-2.7324 4.299-4.4609z"/>
  </g>
 </g>
</svg>
