<?xml version="1.0" encoding="UTF-8" standalone="no"?>
<svg xmlns="http://www.w3.org/2000/svg" height="38px" width="38px" version="1.1" xmlns:xlink="http://www.w3.org/1999/xlink" viewBox="0 0 38 38"><!-- Generator: Sketch 52 (66869) - http://www.bohemiancoding.com/sketch -->
 <title>icon--facebook</title>
 <desc>Created with Sketch.</desc>
 <g id="Symbols" fill-rule="evenodd" fill="none">
  <g id="Icon-/-Logo-/-Facebook" fill-rule="nonzero" fill="#111" transform="translate(-2 -2)">
   <path id="icon--facebook" d="m37.903 2h-33.806c-1.1583 0-2.097 0.9387-2.097 2.0966v33.806c0 1.158 0.9387 2.097 2.0966 2.097h18.213v-14.696h-4.946v-5.752h4.946v-4.232c0-4.908 3.001-7.5807 7.378-7.5807 1.474-0.0032 2.948 0.0711 4.415 0.2228v5.1299h-3.013c-2.385 0-2.85 1.127-2.85 2.791v3.663h5.7l-0.741 5.752h-4.992v14.702h9.696c1.158 0 2.097-0.939 2.097-2.097v-33.806c0-1.1583-0.939-2.097-2.097-2.097z"/>
  </g>
 </g>
</svg>
