<?xml version="1.0" encoding="UTF-8" standalone="no"?>
<svg xmlns="http://www.w3.org/2000/svg" height="40px" width="42px" version="1.1" xmlns:xlink="http://www.w3.org/1999/xlink" viewBox="0 0 42 40"><!-- Generator: Sketch 52 (66869) - http://www.bohemiancoding.com/sketch -->
 <title>icon--IA</title>
 <desc>Created with Sketch.</desc>
 <g id="Symbols" fill-rule="evenodd" fill="none">
  <g id="Icon-/-UI-/-Info-Arch" fill-rule="nonzero" fill="#111" transform="translate(0 -1)">
   <path id="icon--IA" d="m17.784 2.6817c-1.268 0-2.296 0.9411-2.296 2.1021 0 1.1609 1.028 2.1021 2.296 2.1021h6.432c1.268 0 2.296-0.9412 2.296-2.1021 0-1.161-1.028-2.1021-2.296-2.1021h-6.432zm10.566 14.615l-6.3 6.487v2.081h14.7v6.486h5.25v8.649h-12.6v-8.649h5.25v-4.324h-12.6v4.324h5.25v8.649h-12.6v-8.649h5.25v-4.324h-12.6v4.324h5.25v8.649h-12.6v-8.649h5.25v-6.486h14.7v-2.081l-6.3-6.487 6.295-6.488 0.005-2.2414h-2.166c-2.283 0-4.134-1.6941-4.134-3.7838s1.851-3.7838 4.134-3.7838h6.432c2.283 0 4.134 1.6941 4.134 3.7838s-1.851 3.7838-4.134 3.7838h-2.166v2.2434l6.3 6.486zm-8.4-6.488l2.1 0.002-2.1-0.002zm1.05 1.249l-5.088 5.239 5.088 5.239 5.088-5.239-5.088-5.239zm-4.362 22.239v4.757h8.724v-4.757h-8.724zm14.7 0v4.757h8.724v-4.757h-8.724zm-29.4 0v4.757h8.7235v-4.757h-8.7235z"/>
  </g>
 </g>
</svg>
