<?xml version="1.0" encoding="UTF-8" standalone="no"?>
<svg xmlns="http://www.w3.org/2000/svg" height="38px" width="38px" version="1.1" xmlns:xlink="http://www.w3.org/1999/xlink" viewBox="0 0 38 38"><!-- Generator: Sketch 52 (66869) - http://www.bohemiancoding.com/sketch -->
 <title>icon--linkedin</title>
 <desc>Created with Sketch.</desc>
 <g id="Symbols" fill-rule="evenodd" fill="none">
  <g id="Icon-/-Logo-/-LinkedIn" fill-rule="nonzero" fill="#111" transform="translate(-2 -2)">
   <path id="icon--linkedin" d="m34.381 34.381h-5.63v-8.818c0-2.104-0.041-4.809-2.93-4.809-2.933 0-3.38 2.291-3.38 4.657v8.97h-5.635v-18.134h5.408v2.478h0.076c0.753-1.426 2.592-2.93 5.334-2.93 5.703 0 6.757 3.755 6.757 8.639v9.947zm-26.748 0v-18.134h5.6385v18.134h-5.6385zm2.8195-20.613c-1.8068 0-3.267-1.465-3.267-3.269 0-1.8024 1.4602-3.2676 3.267-3.2676 1.802 0 3.266 1.4652 3.266 3.2676 0 1.804-1.464 3.269-3.266 3.269zm26.736-11.768h-32.383c-1.5482 0-2.805 1.2273-2.805 2.7382v32.521c0 1.513 1.2568 2.742 2.805 2.742h32.383c1.549 0 2.815-1.229 2.815-2.742v-32.521c0-1.5107-1.266-2.738-2.815-2.738z"/>
  </g>
 </g>
</svg>
