<?xml version="1.0" encoding="UTF-8" standalone="no"?>
<svg xmlns="http://www.w3.org/2000/svg" height="40px" width="36px" version="1.1" xmlns:xlink="http://www.w3.org/1999/xlink" viewBox="0 0 36 40"><!-- Generator: Sketch 52 (66869) - http://www.bohemiancoding.com/sketch -->
 <title>icon--CSS3</title>
 <desc>Created with Sketch.</desc>
 <g id="Symbols" fill-rule="evenodd" fill="none">
  <g id="Icon-/-Logo-/-CSS3" fill-rule="nonzero" fill="#111" transform="translate(-3 -2)">
   <path id="icon--CSS3" d="m35.275 37.707l3.146-35.245 0.042-0.462h-0.464-34.535-0.464l0.0412 0.4623 3.1429 35.25 0.0262 0.294 0.2832 0.079 14.104 3.915h0.225l14.143-3.921 0.283-0.079 0.026-0.294v0.001zm-14.515-27.909h10.306l-0.31 3.6068-10.167 4.519 0.171 0.814h9.542l-1.099 12.585-8.477 2.35-8.475-2.346-0.538-6.028h3.489l0.28 3.056 0.027 0.296 0.287 0.077 4.856 1.29 0.221-0.002 4.8-1.334 0.286-0.08 0.025-0.294 0.48-5.644 0.039-0.461h-0.463-5.28-9.334l-0.317-3.622 9.818-4.202 0.697-0.299-0.167-0.816h-0.697-10.099l-0.307-3.4658h10.362 0.044z"/>
  </g>
 </g>
</svg>
