<svg width="33" height="42">
  <path fill="#111" fill-rule="nonzero" d="M31.446 6.57c.476 0 .862.385.862.86v33.708a.862.862 0 0 1-.862.862H.862A.862.862 0 0 1 0 41.138V7.43c0-.476.386-.862.862-.862H7.28L11.846 4.6v-.293a4.308 4.308 0 0 1 8.616 0V4.6l4.566 1.969h6.418zm-.861 33.707V8.292h-4.954V9.8h2.584c.476 0 .862.386.862.862v27.246a.862.862 0 0 1-.862.861H4.092a.862.862 0 0 1-.861-.86V10.661c0-.476.385-.862.861-.862h2.585V8.293H1.723v31.985h28.862zM7.538 13.247a.862.862 0 0 1-.861-.862v-.862H4.954v25.523h22.4V11.523H25.63v.862a.862.862 0 0 1-.862.861H7.538zM8.4 7.968v3.554h15.508V7.97l-4.786-1.975-.384-.825v-.861a2.584 2.584 0 1 0-5.169 0v.861l-.383.825L8.4 7.969zm6.892-2.8V3.446h1.723V5.17h-1.723zm8 27.734a.438.438 0 1 1 0 .876h-5.29a.439.439 0 0 1 0-.876h5.29zM11.055 21.617c.825 0 1.496.672 1.496 1.497v3.526c0 .825-.671 1.497-1.496 1.497H7.528a1.498 1.498 0 0 1-1.496-1.497v-3.526c0-.825.671-1.497 1.496-1.497h3.527zm.62 5.023v-3.526a.621.621 0 0 0-.62-.62H7.528a.62.62 0 0 0-.619.62v3.526c0 .342.278.62.619.62h3.527c.341 0 .62-.278.62-.62zm14.438 4.147a.439.439 0 1 1 0 .876h-3.879a.438.438 0 1 1 0-.876h3.879zm0 2.116a.439.439 0 1 1 0 .876h-1.41a.439.439 0 0 1 0-.876h1.41zm-2.383-6.968a.438.438 0 0 1-.438.438h-5.29a.438.438 0 1 1 0-.876h5.29c.242 0 .438.196.438.438zM6.032 15.708c0-.825.671-1.497 1.496-1.497h3.527c.825 0 1.496.672 1.496 1.497v3.526c0 .825-.671 1.497-1.496 1.497H7.528a1.498 1.498 0 0 1-1.496-1.497v-3.526zm.877 0v3.526c0 .342.278.62.619.62h3.527a.62.62 0 0 0 .619-.62v-3.526a.62.62 0 0 0-.619-.62H7.528a.62.62 0 0 0-.619.62zm4.146 13.315c.825 0 1.496.671 1.496 1.497v3.526c0 .825-.671 1.496-1.496 1.496H7.528a1.498 1.498 0 0 1-1.496-1.496V30.52c0-.826.671-1.497 1.496-1.497h3.527zm.62 5.023V30.52a.621.621 0 0 0-.62-.62H7.528a.62.62 0 0 0-.619.62v3.526c0 .342.278.62.619.62h3.527c.341 0 .62-.278.62-.62zm-.836-3.26c.117 0 .228.046.31.13a.436.436 0 0 1 0 .62L9.033 33.65a.437.437 0 0 1-.62 0l-1.058-1.058a.439.439 0 0 1 .62-.62l.748.748 1.806-1.806a.436.436 0 0 1 .31-.129zm-.051-6.967a.436.436 0 0 1-.129.31l-.748.748.748.748a.436.436 0 0 1 0 .62.431.431 0 0 1-.31.128.43.43 0 0 1-.309-.128l-.749-.748-.748.748a.43.43 0 0 1-.309.128.439.439 0 0 1-.31-.748l.748-.748-.748-.748a.436.436 0 0 1 0-.62.431.431 0 0 1 .31-.128.43.43 0 0 1 .309.128l.749.748.748-.748a.43.43 0 0 1 .309-.128.436.436 0 0 1 .439.438zm2.982 2.554a.439.439 0 0 1 0-.876h2.822a.439.439 0 0 1 0 .876H13.77zm0 5.29a.439.439 0 0 1 0-.877h7.053a.44.44 0 0 1 0 .877H13.77zm0-7.406a.439.439 0 0 1 0-.876h7.053a.439.439 0 1 1 0 .876H13.77zm0 9.522a.44.44 0 0 1 0-.877h2.822a.44.44 0 0 1 0 .877H13.77zM8.414 18.84l-1.058-1.058a.436.436 0 0 1 0-.62.43.43 0 0 1 .309-.128c.118 0 .228.045.31.128l.748.748 1.806-1.806a.435.435 0 0 1 .31-.128.436.436 0 0 1 .31.748L9.033 18.84a.431.431 0 0 1-.31.128.43.43 0 0 1-.309-.128zm5.356.128a.439.439 0 0 1 0-.876h2.822a.439.439 0 0 1 0 .876H13.77zm8.464-2.116a.438.438 0 1 1 0-.876h3.879a.439.439 0 1 1 0 .876h-3.879zm1.496 1.678a.438.438 0 0 1-.438.438h-5.29a.438.438 0 1 1 0-.876h5.29c.242 0 .438.196.438.438zm2.383 4.852a.439.439 0 1 1 0 .876h-3.879a.438.438 0 1 1 0-.876h3.879zm0 2.116a.439.439 0 1 1 0 .876h-1.41a.439.439 0 1 1 0-.876h1.41zm0-7.406a.439.439 0 1 1 0 .876h-1.41a.439.439 0 1 1 0-.876h1.41zm-12.343-1.24a.439.439 0 0 1 0-.876h7.053a.439.439 0 1 1 0 .876H13.77z"/>
</svg>