<?xml version="1.0" encoding="UTF-8" standalone="no"?>
<svg xmlns="http://www.w3.org/2000/svg" height="108px" width="130px" version="1.1" xmlns:xlink="http://www.w3.org/1999/xlink" viewBox="0 0 130 108"><!-- Generator: Sketch 52 (66869) - http://www.bohemiancoding.com/sketch -->
 <title>Logo / Crest</title>
 <desc>Created with Sketch.</desc>
 <g id="Logo-/-Crest" fill="#111">
  <path id="Text" d="m51.995 15c0.187 0 0.369 0.015 0.549 0.045 0.18 0.032 0.331 0.079 0.456 0.14-0.063 1.256-0.084 2.529-0.065 3.819 0.02 1.29-0.002 2.594-0.063 3.91h-1.753v-4.864c-0.195 0.186-0.373 0.413-0.538 0.682-0.164 0.269-0.328 0.549-0.496 0.838-0.167 0.289-0.343 0.573-0.527 0.855-0.182 0.28-0.382 0.533-0.6 0.759-0.25-0.226-0.468-0.474-0.655-0.748-0.188-0.274-0.363-0.554-0.527-0.842-0.163-0.289-0.33-0.578-0.502-0.862-0.17-0.284-0.365-0.551-0.584-0.797v4.979c-0.124 0.033-0.268 0.055-0.432 0.071-0.163 0.015-0.325 0.019-0.484 0.011-0.16-0.008-0.304-0.03-0.433-0.063-0.128-0.035-0.223-0.083-0.286-0.145 0-0.624-0.005-1.259-0.018-1.906-0.011-0.647-0.02-1.295-0.028-1.942s-0.011-1.286-0.007-1.918 0.022-1.244 0.053-1.837c0.125-0.031 0.263-0.048 0.415-0.052 0.151-0.002 0.309-0.001 0.473 0.007 0.164 0.005 0.33 0.015 0.502 0.027 0.171 0.012 0.335 0.018 0.491 0.018 0.327 0.502 0.653 1.022 0.975 1.559 0.324 0.54 0.673 1.061 1.047 1.561 0.187-0.216 0.362-0.458 0.524-0.727 0.164-0.272 0.327-0.548 0.486-0.834 0.159-0.284 0.321-0.562 0.485-0.83 0.163-0.27 0.339-0.513 0.525-0.729 0.124-0.061 0.279-0.108 0.462-0.14 0.184-0.03 0.369-0.045 0.555-0.045zm10.331 5.528c-0.691 0.126-1.454 0.141-2.293 0.049-0.067 0.191-0.101 0.392-0.101 0.595 0 0.206 0.01 0.411 0.031 0.616 0.022 0.205 0.034 0.411 0.039 0.615 0.004 0.205-0.027 0.403-0.095 0.597h-1.817c-0.009-1.283-0.031-2.602-0.07-3.956-0.037-1.354-0.023-2.67 0.045-3.956 0.737-0.03 1.459-0.057 2.166-0.08s1.36 0.005 1.962 0.086c0.601 0.082 1.126 0.237 1.575 0.469 0.448 0.232 0.783 0.589 1.003 1.068 0.244 0.736 0.293 1.372 0.147 1.908-0.15 0.539-0.446 0.973-0.89 1.305-0.445 0.333-1.012 0.562-1.702 0.684zm-2.326-4.48v1.52c0 0.47 0.004 0.938 0.012 1.404 0.377 0.037 0.766 0.037 1.169 0 0.402-0.037 0.752-0.134 1.055-0.285 0.3-0.155 0.521-0.38 0.658-0.68 0.139-0.296 0.141-0.698 0.006-1.203-0.074-0.185-0.229-0.336-0.464-0.453-0.235-0.118-0.497-0.204-0.791-0.26-0.293-0.056-0.59-0.084-0.891-0.091-0.302-0.003-0.552 0.012-0.754 0.048zm10.862 0.657c-0.012 0.533-0.022 1.062-0.029 1.596-0.008 0.531-0.011 1.057-0.007 1.574 0.004 0.518 0.022 1.01 0.053 1.482 0.292 0.03 0.612 0.049 0.96 0.051 0.346 0.004 0.698 0.006 1.054 0.006 0.355 0 0.705 0.002 1.053 0.007 0.348 0.002 0.666 0.02 0.96 0.051 0.031 0.092 0.055 0.206 0.071 0.341 0.015 0.137 0.023 0.277 0.023 0.423 0 0.147-0.008 0.287-0.023 0.422-0.016 0.135-0.04 0.249-0.071 0.342h-5.85c0-0.633-0.005-1.279-0.018-1.94-0.012-0.658-0.021-1.321-0.03-1.99-0.008-0.665-0.01-1.328-0.006-1.99 0.004-0.658 0.022-1.306 0.054-1.936 0.134-0.032 0.28-0.06 0.437-0.089 0.159-0.027 0.318-0.043 0.481-0.052 0.161-0.008 0.32-0.001 0.473 0.019 0.154 0.018 0.299 0.06 0.432 0.122 0 0.507-0.006 1.028-0.017 1.561zm11.721 4.666c0.204-0.098 0.365-0.261 0.483-0.492v-0.113c-0.068-0.246-0.193-0.432-0.375-0.56-0.182-0.125-0.389-0.22-0.617-0.281-0.23-0.059-0.467-0.105-0.714-0.138-0.246-0.036-0.476-0.082-0.687-0.141-0.494-0.127-0.912-0.307-1.261-0.544-0.348-0.234-0.629-0.508-0.841-0.823-0.237-0.574-0.294-1.073-0.172-1.493 0.125-0.424 0.359-0.768 0.708-1.039 0.347-0.267 0.777-0.462 1.286-0.586 0.509-0.125 1.031-0.177 1.567-0.157 0.534 0.019 1.048 0.107 1.545 0.262 0.497 0.157 0.911 0.381 1.241 0.673-0.144 0.246-0.313 0.481-0.508 0.705s-0.399 0.4-0.611 0.525c-0.119-0.058-0.273-0.129-0.458-0.212-0.187-0.081-0.389-0.157-0.606-0.224-0.216-0.067-0.442-0.12-0.675-0.162-0.233-0.039-0.455-0.05-0.667-0.028-0.214 0.023-0.405 0.082-0.58 0.18-0.174 0.097-0.307 0.246-0.401 0.446 0.094 0.224 0.235 0.409 0.42 0.551 0.187 0.141 0.399 0.256 0.636 0.342 0.238 0.085 0.492 0.158 0.764 0.217s0.538 0.121 0.797 0.186c0.258 0.062 0.505 0.137 0.739 0.224 0.231 0.086 0.43 0.198 0.59 0.341 0.146 0.06 0.257 0.143 0.339 0.245 0.08 0.106 0.154 0.188 0.221 0.25 0.213 0.491 0.292 0.943 0.237 1.354-0.055 0.41-0.206 0.766-0.452 1.068-0.247 0.303-0.572 0.544-0.975 0.722-0.402 0.181-0.85 0.286-1.343 0.316-0.492 0.029-0.942 0.015-1.35-0.04-0.408-0.057-0.783-0.143-1.126-0.259-0.344-0.116-0.658-0.254-0.942-0.419-0.285-0.165-0.55-0.34-0.795-0.527 0.142-0.186 0.316-0.37 0.515-0.555 0.2-0.182 0.405-0.362 0.617-0.543 0.136 0.083 0.311 0.175 0.528 0.281 0.217 0.104 0.45 0.203 0.7 0.298 0.251 0.092 0.512 0.171 0.784 0.234 0.271 0.062 0.528 0.09 0.771 0.078 0.24-0.01 0.464-0.066 0.668-0.162zm-31.583 6.629c1.107 0.041 5.707 0.066 6.832 0.072 1.125 0.005 7.468 0.008 8.574 0.008 1.107 0 5.661-0.08 13.426 0.096 0.255 0.005 0.132 0.581 0.147 0.911 0.014 0.33 0.021 0.634 0.021 0.913h-29v-2zm0.948 58.501c0.334 0.34 0.593 0.755 0.776 1.248 0.184 0.491 0.276 1.077 0.276 1.756-0.067 0.638-0.21 1.203-0.432 1.694-0.221 0.493-0.507 0.921-0.857 1.293-0.352 0.368-0.766 0.677-1.246 0.928-0.48 0.249-1.012 0.444-1.596 0.58-0.309-0.033-0.633-0.046-0.969-0.039-0.339 0.009-0.677 0.017-1.014 0.026-0.339 0.007-0.67 0.006-0.989-0.008-0.322-0.01-0.621-0.052-0.897-0.12v-2.112c0-0.738 0.004-1.484 0.015-2.242 0.005-0.755 0.021-1.501 0.042-2.24 0.022-0.738 0.048-1.442 0.082-2.113 0-0.017 0.004-0.039 0.013-0.065 0.016-0.049 0.058-0.075 0.124-0.075 0.71-0.018 1.394-0.016 2.053 0.006 0.66 0.021 1.278 0.087 1.853 0.198 0.576 0.109 1.096 0.267 1.565 0.47 0.468 0.204 0.867 0.475 1.201 0.815zm-1.021 3.629c0.127-0.469 0.088-1.028-0.119-1.682-0.281-0.52-0.744-0.903-1.388-1.152-0.642-0.247-1.417-0.34-2.32-0.276-0.067 0.786-0.1 1.611-0.1 2.473s0.033 1.686 0.1 2.474c0.622 0.062 1.202 0.036 1.742-0.078 0.539-0.114 0.99-0.319 1.351-0.614 0.361-0.294 0.605-0.678 0.734-1.145zm9.225 1.431c-0.359-0.414-0.717-0.83-1.077-1.248-0.359-0.417-0.735-0.831-1.129-1.24 0 0.82 0.017 1.646 0.051 2.481 0.034 0.836 0.018 1.634-0.051 2.394h-1.946v-7.747c0.283-0.121 0.585-0.188 0.91-0.198 0.323-0.011 0.631 0.012 0.921 0.073 0.349 0.38 0.694 0.768 1.031 1.166 0.336 0.401 0.676 0.803 1.017 1.209 0.342 0.405 0.689 0.811 1.044 1.215 0.352 0.4 0.722 0.788 1.107 1.16 0-0.372-0.014-0.764-0.039-1.179-0.027-0.413-0.04-0.828-0.045-1.241-0.004-0.414 0.006-0.821 0.032-1.219 0.026-0.4 0.091-0.769 0.194-1.111 0.28 0 0.587 0.006 0.92 0.016 0.332 0.012 0.635 0.049 0.908 0.109v7.747c-0.103 0.031-0.222 0.045-0.359 0.051-0.136 0.002-0.275 0.001-0.417-0.007-0.14-0.007-0.277-0.017-0.41-0.028-0.132-0.012-0.25-0.016-0.353-0.016-0.427-0.373-0.829-0.76-1.205-1.164-0.378-0.402-0.744-0.808-1.104-1.223zm12.941-6.477c0.323 0 0.659 0.007 1.007 0.018s0.647 0.048 0.9 0.109c-0.253 0.642-0.512 1.282-0.782 1.918-0.268 0.634-0.537 1.274-0.805 1.913-0.269 0.638-0.538 1.284-0.806 1.935-0.27 0.652-0.529 1.313-0.782 1.986-0.127-0.03-0.265-0.036-0.416-0.023-0.149 0.018-0.295 0.031-0.439 0.049-0.141 0.013-0.272 0.015-0.389 0.004-0.12-0.011-0.21-0.062-0.274-0.156-0.323-0.58-0.624-1.192-0.9-1.831-0.278-0.641-0.545-1.286-0.806-1.942-0.26-0.653-0.521-1.308-0.782-1.959-0.261-0.65-0.535-1.281-0.819-1.894 0.127-0.061 0.273-0.109 0.439-0.146 0.166-0.032 0.338-0.054 0.517-0.062 0.176-0.007 0.349-0.003 0.515 0.012 0.165 0.017 0.312 0.04 0.438 0.069 0.379 0.867 0.738 1.768 1.078 2.706 0.341 0.936 0.7 1.84 1.079 2.704 0.316-0.864 0.653-1.751 1.013-2.659 0.359-0.908 0.698-1.823 1.014-2.751zm7.694 7.224c0.013 0.213 0.018 0.412 0.018 0.602-0.258 0.061-0.559 0.09-0.902 0.09-0.344 0-0.646-0.029-0.903-0.09v-7.79c0.492-0.023 1-0.05 1.525-0.08 0.522-0.03 1.032-0.043 1.523-0.039 0.492 0.002 0.962 0.037 1.408 0.101 0.445 0.065 0.84 0.18 1.184 0.347 0.343 0.167 0.624 0.395 0.838 0.683 0.216 0.287 0.347 0.663 0.394 1.125 0 0.288-0.024 0.545-0.071 0.77-0.047 0.222-0.107 0.429-0.182 0.618-0.074 0.189-0.159 0.364-0.252 0.523-0.094 0.16-0.188 0.317-0.281 0.477-0.196 0.063-0.368 0.146-0.517 0.251-0.149 0.106-0.321 0.19-0.515 0.252 0.164 0.219 0.338 0.444 0.521 0.675 0.184 0.232 0.366 0.464 0.546 0.701 0.179 0.235 0.347 0.468 0.505 0.704 0.155 0.235 0.281 0.463 0.374 0.682h-1.946c-0.195-0.159-0.37-0.345-0.523-0.556-0.152-0.213-0.297-0.433-0.433-0.66-0.137-0.228-0.273-0.454-0.41-0.677-0.137-0.224-0.287-0.43-0.451-0.62-0.134-0.03-0.257-0.042-0.37-0.034-0.114 0.007-0.227 0.019-0.341 0.034-0.113 0.016-0.228 0.027-0.345 0.033-0.118 0.007-0.242-0.004-0.376-0.033-0.03 0.19-0.048 0.391-0.052 0.602-0.004 0.213-0.001 0.431 0.006 0.655 0.008 0.223 0.017 0.443 0.028 0.654zm0.246-4.922c-0.022 0.168-0.033 0.348-0.033 0.542s0.004 0.387 0.011 0.575c0.007 0.191 0.01 0.357 0.01 0.497h0.709c0.254 0 0.507-0.009 0.755-0.028 0.249-0.022 0.479-0.056 0.692-0.106 0.212-0.051 0.388-0.129 0.529-0.235 0.141-0.108 0.233-0.246 0.274-0.418 0.044-0.169 0.015-0.386-0.086-0.646-0.085-0.167-0.229-0.289-0.425-0.366-0.199-0.078-0.427-0.131-0.681-0.159-0.256-0.031-0.526-0.044-0.81-0.042-0.285 0.005-0.56 0.006-0.827 0.006-0.058 0.087-0.097 0.213-0.118 0.38zm-29.033-8.386c1.107 0.041 5.707 0.066 6.832 0.072 1.125 0.005 7.468 0.008 8.574 0.008 1.107 0 5.661-0.08 13.426 0.096 0.255 0.005 0.132 0.581 0.147 0.911 0.014 0.33 0.021 0.634 0.021 0.913h-29v-2z"/>
  <path id="Crest" d="m115.96 34h3.19 8.04 2.81v6.729h-2.81v26.585h2.81v6.686h-2.81-8.04-3.19v-6.686h3.19v-10.812h-15.8v10.812h2.69v6.686h-2.69-8.041-3.309v-6.686h3.309v-26.585h-3.309v-6.729h3.309 8.041 2.69v6.729h-2.69v9h15.8v-9h-3.19v-6.729zm-5.96 69.52c-0.26 0.11-0.51 0.38-0.76 0.83-0.65 1.2-1.24 0.85-2.04 0.03-0.2-0.2-0.42-0.39-0.81-0.73l-0.45-0.36c-0.41-0.33-0.82-0.65-1.33-1.08-0.16-0.13-0.31-0.27-0.53-0.48-0.16-0.16-0.31-0.32-0.45-0.5-0.01-0.01-0.02-0.01-0.22-0.26-0.09-0.11-0.18-0.22-0.27-0.34-0.45-0.56-0.96-1.116-1.47-1.785-0.05-0.081-0.11-0.148-0.19-0.275-0.15-0.212-0.29-0.429-0.42-0.663-0.13-0.235-0.25-0.479-0.37-0.775-0.09-0.246-0.16-0.502-0.23-0.856-0.05-0.263-0.08-0.538-0.08-0.962 0-0.205 0.01-0.413 0.04-0.632-0.32 0.298-0.579 0.526-0.898 0.817-0.124 0.112-0.25 0.224-0.398 0.359-0.152-0.235-0.313-0.464-0.475-0.694-0.11-0.153-0.223-0.306-0.472-0.646-0.371-0.497-0.743-0.986-1.239-1.673-0.113-0.16-0.221-0.32-0.487-0.718-0.126-0.196-0.245-0.393-0.358-0.594-0.073-0.126-0.137-0.256-0.204-0.385-0.057-0.113-0.119-0.223-0.185-0.373-0.132-0.292-0.25-0.589-0.34-0.893-0.22-0.742-0.486-1.445-0.821-2.2-0.148-0.324-0.306-0.643-0.506-1.025-0.177-0.331-0.364-0.657-0.625-1.089-1.276-2.064-2.909-3.855-4.61-5.624-7.537-7.843-15.126-15.649-22.686-23.47-0.31-0.32-0.62-0.642-0.928-0.962-2.022 2.037-4.037 4.08-6.06 6.113-5.387 5.418-10.781 10.842-16.229 16.209-2.187 2.153-4.363 4.306-6.206 6.796-0.321 0.437-0.63 0.887-0.925 1.345-0.111 0.174-0.212 0.355-0.318 0.531-0.172 0.282-0.344 0.562-0.504 0.852-0.209 0.382-0.4 0.777-0.588 1.172-0.068 0.144-0.146 0.28-0.211 0.427-0.242 0.545-0.466 1.107-0.664 1.687-0.153 0.46-0.795 0.742-1.482 0.957-0.197 0.334-0.382 0.669-0.615 1.071-0.178 0.303-0.363 0.598-0.575 0.874-0.947 1.214-1.895 2.448-2.964 3.559-0.759 0.777-1.214 1.225-1.663 1.413-0.101 0.038-0.199 0.06-0.329 0.067-0.193 0.006-0.394-0.047-0.671-0.171-0.11-0.05-0.224-0.109-0.371-0.195-0.12-0.069-0.255-0.153-0.487-0.299-0.145-0.094-0.299-0.192-0.471-0.303-0.027 0.115-0.066 0.231-0.102 0.341-0.016 0.055-0.029 0.105-0.045 0.442 0.063 0.156 0.116 0.307 0.202 0.623 0.022 0.084 0.044 0.171 0.085 0.456 0.008 0.063 0.017 0.13 0.021 0.406-0.001 0.052 0 0.106-0.031 0.375-0.007 0.04-0.012 0.09-0.079 0.35-0.01 0.03-0.019 0.07-0.119 0.32-0.013 0.03-0.026 0.06-0.155 0.31-0.016 0.02-0.03 0.05-0.186 0.29-0.018 0.02-0.033 0.04-0.213 0.27-0.018 0.02-0.035 0.04-0.233 0.26-0.123 0.12-0.206 0.2-0.249 0.24-0.03 0.03-0.059 0.06-0.257 0.24-0.056 0.05-0.113 0.09-0.253 0.21-0.205 0.17-0.416 0.34-0.628 0.51-0.084 0.06-0.169 0.14-0.253 0.2-0.184 0.15-0.324 0.25-0.703 0.38-0.027 0-0.058-0.02-0.3-0.14-0.053-0.03-0.103-0.07-0.254-0.22-0.069-0.07-0.139-0.14-0.309-0.35-0.212-0.25-0.462-0.56-0.83-1.04-1.279 1.13-2.558 2.25-3.809 3.38-0.495 0.45-0.867 1.1-1.431 1.4-0.445 0.23-1.098 0.06-1.655 0.06 0.013-0.57-0.207-1.33 0.077-1.67 1.097-1.34 2.338-2.55 3.572-3.77 0.355-0.35 0.614-0.68 0.704-1.01l-0.044-0.569c-0.107-0.266-0.376-0.517-0.832-0.761-1.192-0.637-0.854-1.238-0.053-2.054 0.198-0.206 0.385-0.424 0.716-0.828 0.119-0.148 0.237-0.299 0.353-0.451 0.321-0.418 0.633-0.84 1.058-1.359 0.131-0.158 0.265-0.311 0.473-0.533 0.155-0.164 0.316-0.319 0.484-0.466 0.01-0.008 0.018-0.017 0.257-0.224 0.112-0.088 0.223-0.179 0.333-0.269 0.556-0.466 1.1-0.98 1.758-1.503 0.079-0.056 0.147-0.114 0.271-0.201 0.209-0.152 0.424-0.295 0.654-0.431 0.232-0.133 0.473-0.252 0.766-0.372 0.241-0.096 0.495-0.172 0.844-0.251 0.261-0.051 0.534-0.078 0.955-0.088 0.201 0.001 0.409 0.01 0.626 0.037-0.298-0.324-0.528-0.579-0.819-0.898-0.113-0.124-0.227-0.25-0.361-0.397 0.231-0.159 0.457-0.321 0.682-0.488 0.153-0.112 0.302-0.227 0.637-0.482 0.489-0.379 0.971-0.758 1.646-1.265 0.157-0.118 0.315-0.229 0.705-0.5 0.194-0.131 0.388-0.252 0.586-0.368 0.124-0.075 0.253-0.142 0.38-0.21 0.111-0.058 0.221-0.122 0.366-0.191 0.29-0.136 0.583-0.259 0.883-0.352 0.734-0.23 1.429-0.506 2.173-0.852 0.322-0.152 0.636-0.315 1.012-0.52 0.327-0.183 0.647-0.375 1.073-0.644 2.034-1.306 3.792-2.972 5.528-4.706 7.698-7.685 15.357-15.42 23.032-23.127 0.386-0.389 0.773-0.776 1.158-1.163-8.512-8.806-17.015-17.619-25.523-26.428-2.746-2.85-5.487-5.716-8.262-8.547-0.719-0.733-1.451-1.456-2.187-2.175-0.114-0.113-0.229-0.225-0.343-0.337-0.784-0.761-1.574-1.516-2.365-2.268-0.116-0.112-0.237-0.221-0.508-0.458-0.143-0.117-0.289-0.233-0.606-0.441-0.194 0.077-0.374 0.165-0.703 0.488-0.018 0.022-0.036 0.046-0.161 0.311-0.019 0.059-0.035 0.115-0.068 0.342 0 0-7.824-10.657-9.399-13.031-1.588-2.3756 0.588-1.1169 0.588-1.1169 0 0.00004 7.939 6.1682 11.67 8.7298 0.419 0.2803 0.762 0.5005 0.817 0.8009-0.038 0.0373-0.081 0.084-0.283 0.3452-0.02 0.029-0.04 0.059-0.203 0.352-0.043 0.097-0.08 0.204-0.11 0.313-0.015 0.062-0.022 0.13-0.062 0.423-0.004 0.147 0.007 0.302 0.003 0.502 0.16 0.247 0.32 0.491 0.492 0.726 0.188 0.263 0.388 0.517 0.594 0.763 0.243 0.299 0.488 0.584 0.754 0.871 0.223 0.24 0.445 0.482 0.673 0.718 0.306 0.327 0.629 0.649 0.957 0.965 0.8 0.793 1.613 1.574 2.369 2.39 5.85 6.296 12.003 12.32 18.002 18.471 5.126 5.256 10.237 10.53 15.35 15.802 8.571-8.606 17.149-17.205 25.724-25.808 2.795-2.799 5.607-5.593 8.385-8.42 0.723-0.734 1.433-1.48 2.133-2.229 0.11-0.116 0.22-0.232 0.33-0.35 0.75-0.799 1.49-1.602 2.23-2.409 0.11-0.119 0.21-0.242 0.44-0.517 0.12-0.145 0.23-0.295 0.44-0.616-0.08-0.194-0.17-0.375-0.5-0.704-0.02-0.016-0.04-0.035-0.31-0.159-0.05-0.017-0.11-0.033-0.34-0.064 0 0 10.49-8.0033 12.83-9.6171 2.33-1.6258 1.11 0.5793 1.11 0.5793s-6.03 8.0718-8.53 11.863c-0.27 0.424-0.49 0.773-0.79 0.831-0.03-0.038-0.08-0.08-0.34-0.281-0.03-0.022-0.06-0.04-0.35-0.202-0.1-0.043-0.21-0.077-0.32-0.107-0.06-0.016-0.12-0.021-0.42-0.058-0.14-0.003-0.29 0.009-0.49 0.009-0.24 0.164-0.49 0.328-0.72 0.505-0.26 0.192-0.51 0.396-0.75 0.604-0.29 0.251-0.57 0.499-0.85 0.772-0.24 0.227-0.48 0.454-0.71 0.686-0.32 0.311-0.64 0.639-0.95 0.973-0.77 0.817-1.54 1.644-2.34 2.416-6.182 5.967-12.088 12.234-18.124 18.348-5.098 5.165-10.212 10.313-15.324 15.463 1.94 2.001 3.886 3.994 5.824 5.995 5.315 5.491 10.634 10.986 15.897 16.538 2.112 2.228 4.225 4.444 6.672 6.33 0.432 0.328 0.875 0.644 1.326 0.947 0.171 0.114 0.35 0.217 0.524 0.326 0.277 0.176 0.553 0.354 0.839 0.517 0.376 0.216 0.765 0.413 1.155 0.606 0.142 0.07 0.277 0.149 0.421 0.216 0.539 0.252 1.09 0.482 1.67 0.69 0.45 0.159 0.73 0.809 0.93 1.503 0.33 0.203 0.66 0.395 1.06 0.633 0.29 0.181 0.59 0.371 0.86 0.588 1.19 0.968 2.4 1.936 3.49 3.028 0.77 0.771 1.21 1.236 1.39 1.692 0.03 0.1 0.05 0.201 0.06 0.331 0 0.194-0.05 0.398-0.18 0.676-0.05 0.109-0.11 0.224-0.19 0.37-0.08 0.121-0.16 0.256-0.31 0.488-0.09 0.147-0.19 0.3-0.3 0.471 0.11 0.028 0.23 0.071 0.34 0.107 0.05 0.017 0.1 0.031 0.43 0.051 0.16-0.063 0.31-0.115 0.62-0.196 0.09-0.022 0.17-0.045 0.46-0.082 0.06-0.008 0.13-0.017 0.4-0.017 0.05 0.001 0.1 0.001 0.37 0.036 0.04 0.008 0.09 0.013 0.34 0.083 0.04 0.01 0.08 0.021 0.33 0.124 0.03 0.013 0.06 0.026 0.3 0.16 0.02 0.015 0.05 0.031 0.28 0.191 0.02 0.016 0.05 0.032 0.27 0.217 0.02 0.018 0.04 0.035 0.25 0.239 0.02 0.019 0.04 0.042 0.24 0.253 0.03 0.028 0.06 0.06 0.23 0.261 0.05 0.056 0.1 0.114 0.21 0.256 0.17 0.21 0.33 0.425 0.5 0.638 0.06 0.087 0.13 0.173 0.19 0.259 0.15 0.186 0.25 0.33 0.37 0.713 0 0.027-0.02 0.059-0.13 0.301-0.04 0.052-0.08 0.102-0.23 0.253-0.07 0.07-0.14 0.138-0.34 0.305-0.26 0.21-0.57 0.46-1.05 0.83 1.11 1.3 2.2 2.6 3.31 3.88 0.45 0.5 1.08 0.88 1.37 1.45 0.23 0.45 0.05 1.11 0.05 1.67-0.57-0.02-1.33 0.2-1.66-0.09-1.31-1.13-2.5-2.39-3.7-3.65-0.35-0.36-0.67-0.62-0.99-0.72l-0.57 0.04zm-72-58.343h-6.783v-4.411h-8.127v26.556h4.452v6.678h-4.452-8.139-4.449v-6.678h4.449v-26.556h-8.1684v4.411h-6.7826v-4.411-6.766h6.7826 24.434 6.783v6.766 4.411z"/>
 </g>
</svg>
